{"glyphs":{"0":{"ha":694,"x_min":89,"x_max":606,"o":"m 347 -11 q 274 -3 311 -11 q 206 24 238 4 q 151 72 175 43 q 114 134 128 100 q 94 205 100 168 q 89 278 89 242 l 89 743 q 94 816 89 779 q 114 887 100 853 q 151 949 128 921 q 206 997 175 978 q 274 1024 238 1017 q 347 1032 311 1032 q 420 1024 383 1032 q 488 997 457 1017 q 543 949 519 978 q 581 887 567 921 q 600 816 594 853 q 606 743 606 779 l 606 278 q 600 205 606 242 q 581 134 594 168 q 543 72 567 100 q 488 24 519 43 q 420 -3 457 4 q 347 -11 383 -11 m 115 343 l 579 710 l 579 743 q 574 810 579 776 q 557 874 569 843 q 524 931 544 904 q 474 975 503 957 q 413 1000 446 993 q 347 1007 381 1007 q 281 1000 314 1007 q 220 975 249 993 q 171 931 192 957 q 138 874 150 904 q 120 810 125 843 q 115 743 115 776 l 115 343 m 347 14 q 413 21 381 14 q 474 46 446 28 q 524 90 503 64 q 557 147 544 117 q 574 211 569 178 q 579 278 579 244 l 579 678 l 115 311 l 115 278 q 120 211 115 244 q 138 147 125 178 q 171 90 150 117 q 220 46 192 64 q 281 21 249 28 q 347 14 314 14 z "},"1":{"ha":694,"x_min":90,"x_max":403,"o":"m 375 0 l 375 992 l 104 825 l 90 846 l 375 1021 l 403 1021 l 403 0 l 375 0 z "},"2":{"ha":694,"x_min":97,"x_max":600,"o":"m 100 0 l 100 1 q 103 98 100 50 q 121 192 107 146 q 160 279 135 238 q 217 356 185 321 q 289 420 250 392 q 368 476 328 449 q 447 532 408 503 q 514 599 485 561 q 558 684 543 638 q 574 779 574 731 q 568 840 574 810 q 549 897 563 869 q 515 946 536 924 q 466 982 493 968 q 409 1001 439 996 q 349 1007 379 1007 q 263 995 306 1007 q 189 955 221 983 q 140 885 157 926 q 124 800 124 843 l 124 792 l 97 792 l 97 801 q 105 865 97 833 q 128 924 113 896 q 169 974 144 951 q 224 1009 194 996 q 285 1027 253 1022 q 349 1032 317 1032 q 416 1026 382 1032 q 480 1004 450 1019 q 534 965 510 989 q 574 910 558 940 q 594 847 589 881 q 600 779 600 813 q 587 686 600 732 q 547 601 574 640 q 485 532 521 563 q 411 475 450 501 q 334 422 372 449 q 261 363 296 394 q 199 292 226 331 q 156 209 172 253 q 133 119 139 165 q 126 25 128 72 l 594 25 l 594 0 l 100 0 z "},"3":{"ha":694,"x_min":86,"x_max":617,"o":"m 351 -11 q 285 -6 318 -11 q 221 12 251 -1 q 164 47 190 25 q 120 98 138 69 q 94 159 103 126 q 86 225 86 192 l 86 229 l 113 229 l 113 225 q 121 167 113 196 q 144 112 129 138 q 183 67 160 86 q 234 35 207 47 q 291 18 261 22 q 351 14 321 14 q 415 20 383 14 q 475 41 447 26 q 526 79 503 56 q 563 132 549 103 q 583 192 576 161 q 590 256 590 224 q 581 330 590 293 q 554 399 572 367 q 508 458 536 432 q 445 499 479 485 q 373 517 411 514 q 297 521 335 521 l 297 546 q 367 549 332 546 q 433 566 401 553 q 491 603 465 579 q 534 656 517 626 q 560 719 551 686 q 568 788 568 753 q 562 845 568 817 q 543 900 556 874 q 510 948 531 926 q 463 983 489 969 q 409 1001 438 996 q 351 1007 381 1007 q 267 994 308 1007 q 196 953 226 982 q 150 883 165 924 q 135 800 135 842 l 135 792 l 108 792 l 108 800 q 115 863 108 832 q 138 922 122 894 q 176 972 153 950 q 228 1008 200 994 q 288 1026 257 1021 q 351 1032 319 1032 q 416 1026 383 1032 q 477 1005 449 1019 q 528 967 506 990 q 566 914 551 943 q 588 853 581 885 q 594 788 594 821 q 583 705 594 746 q 549 629 572 664 q 490 569 525 594 q 413 535 454 544 q 499 497 458 524 q 565 433 539 471 q 604 349 592 394 q 617 256 617 303 q 610 185 617 219 q 587 118 603 150 q 545 60 571 86 q 488 18 519 35 q 422 -5 457 1 q 351 -11 386 -11 z "},"4":{"ha":694,"x_min":89,"x_max":594,"o":"m 454 0 l 454 297 l 89 297 l 89 322 l 453 1021 l 482 1021 l 118 322 l 454 322 l 454 651 l 481 651 l 481 322 l 594 322 l 594 297 l 481 297 l 481 0 l 454 0 z "},"5":{"ha":694,"x_min":97,"x_max":606,"o":"m 350 -11 q 284 -6 317 -11 q 222 15 251 0 q 169 52 193 29 q 130 103 146 75 q 106 164 114 132 q 97 229 99 196 l 124 229 q 141 143 125 185 q 188 71 157 101 q 263 27 219 40 q 350 14 306 14 q 422 25 386 14 q 485 60 457 36 q 531 115 513 83 q 560 182 550 147 q 575 253 571 217 q 579 326 579 290 q 575 399 579 363 q 560 471 571 436 q 532 538 550 506 q 487 593 514 569 q 424 628 460 617 q 353 639 389 639 q 277 631 315 639 q 208 601 239 624 q 158 545 178 579 q 136 472 139 511 l 110 472 l 110 1021 l 569 1021 l 569 996 l 136 996 l 136 561 q 177 610 153 589 q 230 643 201 631 q 290 660 258 656 q 353 664 321 664 q 431 653 393 664 q 501 616 469 642 q 553 556 532 590 q 585 484 574 522 q 601 406 597 446 q 606 326 606 367 q 601 247 606 286 q 585 169 597 207 q 551 96 572 131 q 499 36 529 61 q 428 0 468 11 q 350 -11 389 -11 z "},"6":{"ha":694,"x_min":89,"x_max":606,"o":"m 347 -11 q 273 -3 310 -11 q 205 26 236 6 q 150 76 174 46 q 113 140 126 106 q 94 213 99 175 q 89 288 89 250 q 106 428 89 358 q 151 565 124 499 q 211 694 178 631 q 278 821 244 758 l 383 1021 l 414 1021 l 301 810 q 260 731 281 771 q 220 652 240 692 q 183 572 200 613 q 151 489 165 531 q 190 532 168 513 q 239 563 213 551 q 294 580 265 575 q 351 585 322 585 q 426 576 389 585 q 493 548 463 568 q 547 497 524 528 q 583 433 569 467 q 601 361 596 399 q 606 288 606 324 q 601 213 606 250 q 582 140 596 175 q 544 76 568 106 q 490 26 521 46 q 422 -3 458 6 q 347 -11 385 -11 m 347 14 q 415 22 381 14 q 476 48 449 29 q 525 94 504 67 q 558 154 546 122 q 574 219 569 186 q 579 288 579 253 q 574 355 579 321 q 558 420 569 389 q 525 479 546 451 q 476 526 504 507 q 415 552 449 544 q 347 560 381 560 q 260 545 303 560 q 186 499 217 531 q 140 426 156 468 q 118 339 124 383 l 117 318 q 116 302 117 310 q 115 288 115 294 q 120 219 115 253 q 137 154 125 186 q 169 94 149 122 q 218 48 190 67 q 280 22 246 29 q 347 14 314 14 z "},"7":{"ha":694,"x_min":100,"x_max":594,"o":"m 258 0 l 231 0 l 567 996 l 100 996 l 100 1021 l 594 1021 l 594 996 l 258 0 z "},"8":{"ha":694,"x_min":89,"x_max":606,"o":"m 347 -11 q 283 -6 315 -11 q 220 11 250 -1 q 165 45 190 24 q 123 94 140 67 q 97 153 106 121 q 89 218 89 185 q 109 315 89 268 q 163 400 129 363 q 238 467 196 438 q 322 521 279 496 q 244 574 282 546 q 176 639 206 603 q 128 720 146 675 q 110 813 110 765 q 126 902 110 858 q 177 976 143 946 q 256 1019 211 1007 q 347 1032 301 1032 q 438 1019 393 1032 q 517 976 483 1007 q 568 902 551 946 q 585 813 585 858 q 567 720 585 765 q 519 639 549 675 q 451 574 489 603 q 372 521 413 546 q 457 467 415 496 q 532 400 499 438 q 585 315 565 363 q 606 218 606 268 q 597 153 606 185 q 572 94 589 121 q 529 45 554 67 q 474 11 504 24 q 412 -6 444 -1 q 347 -11 379 -11 m 347 536 q 424 586 386 560 q 491 647 461 613 q 540 724 521 681 q 558 813 558 767 q 543 892 558 853 q 498 958 528 931 q 428 996 468 985 q 347 1007 388 1007 q 267 996 307 1007 q 197 958 226 985 q 151 892 167 931 q 136 813 136 853 q 155 724 136 767 q 203 647 174 681 q 271 586 233 613 q 347 536 308 560 m 347 14 q 433 25 390 14 q 510 64 476 36 q 562 133 544 92 q 579 218 579 175 q 558 311 579 267 q 505 391 538 356 q 432 453 472 426 q 350 504 392 479 l 347 507 l 344 504 q 263 453 303 479 q 190 391 222 426 q 136 311 157 356 q 115 218 115 267 q 133 133 115 175 q 184 64 150 92 q 261 25 218 36 q 347 14 304 14 z "},"9":{"ha":694,"x_min":89,"x_max":606,"o":"m 281 0 l 393 211 q 434 290 414 250 q 474 369 454 329 q 512 449 494 408 q 543 532 529 490 q 504 489 526 508 q 456 458 482 469 q 401 441 429 446 q 343 436 372 436 q 269 444 306 436 q 201 473 232 453 q 148 524 171 493 q 112 588 125 554 q 94 660 99 622 q 89 733 89 697 q 94 808 89 771 q 113 881 99 846 q 150 945 126 915 q 205 995 174 975 q 273 1024 236 1015 q 347 1032 310 1032 q 422 1024 385 1032 q 490 995 458 1015 q 544 945 521 975 q 582 881 568 915 q 601 808 596 846 q 606 733 606 771 q 588 592 606 663 q 544 456 571 522 q 483 326 517 390 q 417 200 450 263 l 311 0 l 281 0 m 347 461 q 435 476 392 461 q 508 522 478 490 q 555 595 539 553 q 576 682 571 638 l 578 703 q 578 719 578 711 q 579 733 579 726 q 574 801 579 768 q 558 867 569 835 q 525 926 546 899 q 476 973 504 954 q 415 999 449 992 q 347 1007 381 1007 q 280 999 314 1007 q 218 973 246 992 q 169 926 190 954 q 137 867 149 899 q 120 801 125 835 q 115 733 115 768 q 120 666 115 700 q 137 601 125 632 q 169 542 149 569 q 218 495 190 514 q 280 469 246 476 q 347 461 314 461 z "},"\r":{"ha":0,"x_min":0,"x_max":0,"o":""}," ":{"ha":694,"x_min":0,"x_max":0,"o":""},"!":{"ha":694,"x_min":300,"x_max":396,"o":"m 333 361 l 333 1021 l 361 1021 l 361 361 l 333 361 m 347 -11 q 328 -8 338 -11 q 312 1 318 -6 q 303 18 306 8 q 300 38 300 28 q 303 56 300 46 q 312 72 306 65 q 328 82 318 79 q 347 85 338 85 q 367 82 357 85 q 383 72 376 79 q 392 56 389 65 q 396 38 396 46 q 392 18 396 28 q 383 1 389 8 q 367 -8 376 -6 q 347 -11 357 -11 z "},"\"":{"ha":694,"x_min":193,"x_max":501,"o":"m 196 614 q 194 842 194 728 q 193 1072 193 957 l 224 1072 q 223 842 224 957 q 221 614 222 728 l 196 614 m 474 614 q 472 842 472 728 q 471 1072 471 957 l 501 1072 q 501 842 501 957 q 499 614 500 728 l 474 614 z "},"#":{"ha":694,"x_min":88,"x_max":607,"o":"m 228 25 l 228 304 l 88 304 l 88 329 l 228 329 l 228 692 l 88 692 l 88 717 l 228 717 l 228 996 l 254 996 l 254 717 l 440 717 l 440 996 l 467 996 l 467 717 l 607 717 l 607 692 l 467 692 l 467 329 l 607 329 l 607 304 l 467 304 l 467 25 l 440 25 l 440 304 l 254 304 l 254 25 l 228 25 m 440 329 l 440 692 l 254 692 l 254 329 l 440 329 z "},"$":{"ha":694,"x_min":86,"x_max":606,"o":"m 333 -149 l 333 40 q 272 47 303 40 q 211 66 240 53 q 158 100 182 79 q 118 148 135 121 q 94 206 101 175 q 86 268 86 238 l 86 281 l 113 281 l 113 269 q 129 188 113 228 q 177 119 146 147 q 250 78 208 90 q 333 65 292 65 l 333 503 q 250 542 292 521 q 174 594 208 563 q 120 667 140 625 q 100 756 100 710 q 117 844 100 801 q 167 919 135 888 q 244 965 200 950 q 333 981 289 979 l 333 1171 l 361 1171 l 361 981 q 452 965 407 979 q 531 919 497 951 q 581 843 564 888 q 597 753 597 799 l 597 740 l 571 740 l 571 751 q 556 831 571 792 q 511 900 540 871 q 442 942 482 929 q 361 956 401 954 l 361 522 q 447 483 404 504 q 526 431 490 463 q 584 356 563 400 q 606 265 606 313 q 597 204 606 235 q 573 147 589 174 q 533 100 557 121 q 481 66 510 79 q 422 47 453 53 q 361 40 392 40 l 361 -149 l 333 -149 m 333 533 l 333 956 q 254 942 293 954 q 186 901 215 929 q 142 835 157 874 q 126 756 126 796 q 144 678 126 715 q 193 613 163 640 q 260 567 224 586 q 333 533 296 549 m 361 65 q 443 78 403 67 q 515 118 483 90 q 563 185 546 146 q 579 265 579 224 q 560 346 579 307 q 508 412 540 385 q 438 458 476 439 q 361 492 400 476 l 361 65 z "},"%":{"ha":694,"x_min":39,"x_max":656,"o":"m 199 500 q 138 508 168 500 q 83 535 107 515 q 49 585 60 556 q 39 646 39 615 l 39 886 q 49 947 39 917 q 83 997 60 976 q 138 1024 107 1017 q 199 1032 168 1032 q 260 1024 229 1032 q 314 997 290 1017 q 348 947 338 976 q 358 886 358 917 l 358 646 q 348 585 358 615 q 314 535 338 556 q 260 508 290 515 q 199 500 229 500 m 399 599 l 614 1021 l 644 1021 l 429 599 l 399 599 m 199 524 q 249 531 224 524 q 294 554 275 538 q 323 596 314 571 q 332 646 332 621 l 332 886 q 323 936 332 911 q 294 978 314 961 q 249 1001 275 994 q 199 1007 224 1007 q 148 1001 174 1007 q 103 978 122 994 q 74 936 83 961 q 65 886 65 911 l 65 646 q 74 596 65 621 q 103 554 83 571 q 148 531 122 538 q 199 524 174 524 m 496 -11 q 435 -3 465 -11 q 381 24 404 4 q 347 74 357 44 q 336 136 336 104 l 336 375 q 347 435 336 406 q 381 485 357 465 q 435 513 404 506 q 496 521 465 521 q 557 513 526 521 q 611 485 588 506 q 645 435 635 465 q 656 375 656 406 l 656 136 q 645 74 656 104 q 611 24 635 44 q 557 -3 588 4 q 496 -11 526 -11 m 496 14 q 547 20 521 14 q 592 43 572 26 q 620 85 611 60 q 629 136 629 110 l 629 375 q 620 425 629 400 q 592 467 611 450 q 547 490 572 483 q 496 497 521 497 q 445 490 471 497 q 400 467 419 483 q 372 425 381 450 q 363 375 363 400 l 363 136 q 372 85 363 110 q 400 43 381 60 q 445 20 419 26 q 496 14 471 14 m 50 0 l 265 422 l 296 422 l 81 0 l 50 0 z "},"&":{"ha":694,"x_min":88,"x_max":649,"o":"m 321 -11 q 255 -3 288 -11 q 195 22 222 4 q 147 67 168 40 q 114 124 126 93 q 94 187 101 154 q 88 253 88 219 q 101 340 88 297 q 140 419 115 382 q 197 488 165 457 q 264 546 229 518 q 216 613 240 581 q 171 681 192 646 q 138 756 150 717 q 125 836 125 796 q 135 910 125 874 q 170 976 146 947 q 231 1018 194 1004 q 304 1032 267 1032 q 378 1018 342 1032 q 438 976 414 1004 q 472 910 461 947 q 483 836 483 874 q 468 749 483 792 q 426 669 453 706 q 367 601 400 632 q 299 542 333 571 q 322 508 310 525 q 344 472 333 490 l 535 178 q 540 192 538 185 q 546 207 543 199 l 618 396 l 647 396 l 571 197 q 562 174 567 186 q 551 150 557 161 l 649 0 l 617 0 l 538 122 q 499 68 522 93 q 448 25 476 43 q 387 -2 419 7 q 321 -11 354 -11 m 283 563 q 347 618 315 590 q 402 680 378 646 q 442 754 426 714 q 457 836 457 794 q 448 900 457 868 q 419 957 439 932 q 367 994 399 982 q 304 1007 336 1007 q 241 994 272 1007 q 190 957 210 982 q 160 900 169 932 q 151 836 151 868 q 164 760 151 797 q 196 690 176 724 q 238 626 215 657 q 283 563 261 594 m 321 14 q 383 24 353 14 q 440 51 414 33 q 487 94 467 69 q 522 149 507 119 l 322 460 q 300 492 311 476 q 278 525 289 508 q 216 470 246 499 q 163 407 186 442 q 128 333 140 372 q 115 253 115 293 q 121 193 115 222 q 138 137 126 164 q 167 85 149 110 q 209 44 185 61 q 263 21 233 28 q 321 14 292 14 z "},"'":{"ha":694,"x_min":332,"x_max":363,"o":"m 335 614 q 333 842 333 728 q 332 1072 332 957 l 363 1072 q 362 842 363 957 q 360 614 361 728 l 335 614 z "},"(":{"ha":694,"x_min":182,"x_max":549,"o":"m 536 -224 q 424 -144 476 -190 q 332 -44 372 -99 q 263 73 292 11 q 215 201 233 135 q 190 336 197 268 q 182 472 182 404 q 190 608 182 540 q 215 743 197 676 q 263 872 233 810 q 332 988 292 933 q 424 1089 372 1043 q 536 1168 476 1135 l 549 1146 q 442 1069 492 1114 q 353 972 392 1025 q 285 858 314 918 q 240 735 257 799 q 217 605 224 671 q 210 472 210 539 q 217 340 210 406 q 240 210 224 274 q 285 86 257 146 q 353 -27 314 26 q 442 -125 392 -81 q 549 -201 492 -169 l 536 -224 z "},")":{"ha":694,"x_min":146,"x_max":513,"o":"m 158 -224 l 146 -201 q 253 -125 203 -169 q 342 -27 303 -81 q 409 86 381 26 q 454 210 438 146 q 478 340 471 274 q 485 472 485 406 q 478 605 485 539 q 454 735 471 671 q 409 858 438 799 q 342 972 381 918 q 253 1069 303 1025 q 146 1146 203 1114 l 158 1168 q 270 1089 218 1135 q 363 988 322 1043 q 432 872 403 933 q 479 743 461 810 q 505 608 497 676 q 513 472 513 540 q 505 336 513 404 q 479 201 497 268 q 432 73 461 135 q 363 -44 403 11 q 270 -144 322 -99 q 158 -224 218 -190 z "},"*":{"ha":694,"x_min":65,"x_max":629,"o":"m 186 599 l 165 613 l 331 836 l 65 919 l 74 943 l 336 856 l 333 1133 l 361 1133 l 358 856 l 621 943 l 629 919 l 364 836 l 529 613 l 508 599 l 347 824 l 186 599 z "},"+":{"ha":694,"x_min":100,"x_max":594,"o":"m 333 215 l 333 460 l 100 460 l 100 485 l 333 485 l 333 729 l 361 729 l 361 485 l 594 485 l 594 460 l 361 460 l 361 215 l 333 215 z "},",":{"ha":694,"x_min":297,"x_max":397,"o":"m 322 -299 l 297 -289 q 345 -149 326 -221 q 368 -4 364 -78 q 358 -10 364 -8 q 346 -11 351 -11 q 326 -8 336 -11 q 310 3 317 -4 q 301 19 304 10 q 299 39 299 28 q 301 58 299 49 q 311 75 304 68 q 328 85 318 82 q 347 88 338 88 q 369 84 358 88 q 386 72 379 81 q 395 53 393 64 q 397 32 397 43 q 397 22 397 26 q 396 11 396 17 l 396 10 q 374 -147 393 -69 q 322 -299 354 -225 z "},"-":{"ha":694,"x_min":100,"x_max":594,"o":"m 594 460 l 100 460 l 100 485 l 594 485 l 594 460 z "},".":{"ha":694,"x_min":299,"x_max":397,"o":"m 347 -11 q 328 -8 338 -11 q 311 1 318 -6 q 301 18 304 8 q 299 39 299 28 q 301 58 299 49 q 311 75 304 68 q 328 85 318 82 q 347 88 338 88 q 367 85 357 88 q 383 75 376 82 q 394 58 390 68 q 397 38 397 49 q 394 18 397 28 q 383 1 390 8 q 367 -8 376 -6 q 347 -11 357 -11 z "},"/":{"ha":694,"x_min":99,"x_max":596,"o":"m 99 -199 l 568 1143 l 596 1143 l 126 -199 l 99 -199 z "},":":{"ha":694,"x_min":299,"x_max":397,"o":"m 347 -11 q 328 -8 338 -11 q 311 1 318 -6 q 301 18 304 8 q 299 39 299 28 q 301 58 299 49 q 311 75 304 68 q 328 85 318 82 q 347 88 338 88 q 367 85 357 88 q 383 75 376 82 q 394 58 390 68 q 397 38 397 49 q 394 18 397 28 q 383 1 390 8 q 367 -8 376 -6 q 347 -11 357 -11 m 347 635 q 328 638 338 635 q 311 647 318 640 q 301 664 304 654 q 299 685 299 674 q 301 704 299 694 q 311 721 304 714 q 328 731 318 728 q 347 733 338 733 q 367 731 357 733 q 383 721 376 728 q 394 704 390 714 q 397 685 397 694 q 394 664 397 674 q 383 647 390 654 q 367 638 376 640 q 347 635 357 635 z "},";":{"ha":694,"x_min":297,"x_max":397,"o":"m 322 -299 l 297 -289 q 345 -149 326 -221 q 368 -4 364 -78 q 358 -10 364 -8 q 346 -11 351 -11 q 326 -8 336 -11 q 310 3 317 -4 q 301 19 304 10 q 299 39 299 28 q 301 58 299 49 q 311 75 304 68 q 328 85 318 82 q 347 88 338 88 q 369 84 358 88 q 386 72 379 81 q 395 53 393 64 q 397 32 397 43 q 397 22 397 26 q 396 11 396 17 l 396 10 q 374 -147 393 -69 q 322 -299 354 -225 m 347 635 q 328 638 338 635 q 311 647 318 640 q 301 664 304 654 q 299 685 299 674 q 301 704 299 694 q 311 721 304 714 q 328 731 318 728 q 347 733 338 733 q 367 731 357 733 q 383 721 376 728 q 394 704 390 714 q 397 685 397 694 q 394 664 397 674 q 383 647 390 654 q 367 638 376 640 q 347 635 357 635 z "},"<":{"ha":694,"x_min":100,"x_max":601,"o":"m 588 157 l 100 457 l 100 488 l 588 788 l 601 765 l 124 472 l 601 179 l 588 157 z "},"=":{"ha":694,"x_min":100,"x_max":594,"o":"m 594 578 l 100 578 l 100 603 l 594 603 l 594 578 m 594 342 l 100 342 l 100 367 l 594 367 l 594 342 z "},">":{"ha":694,"x_min":93,"x_max":594,"o":"m 107 157 l 93 179 l 571 472 l 93 765 l 107 788 l 594 488 l 594 457 l 107 157 z "},"?":{"ha":694,"x_min":97,"x_max":594,"o":"m 333 307 q 338 376 333 342 q 355 443 342 411 q 390 503 368 475 q 435 557 411 532 q 484 607 460 582 q 527 661 508 632 q 557 724 546 690 q 568 793 568 758 q 553 878 568 836 q 506 951 538 921 q 432 994 475 981 q 346 1007 389 1007 q 260 995 303 1007 q 187 954 218 983 q 140 884 156 925 q 124 800 124 843 l 124 792 l 97 792 l 97 800 q 105 864 97 832 q 128 924 113 896 q 168 973 144 951 q 221 1008 192 994 q 282 1027 250 1022 q 346 1032 314 1032 q 410 1026 378 1032 q 472 1006 443 1021 q 525 969 501 992 q 564 917 549 946 q 587 857 579 889 q 594 793 594 825 q 585 724 594 758 q 558 660 575 690 q 519 603 542 629 q 471 551 496 576 q 423 500 446 526 q 385 442 400 474 q 365 376 369 411 q 361 307 361 342 l 333 307 m 347 -11 q 328 -8 338 -11 q 312 1 318 -6 q 303 18 306 8 q 300 38 300 28 q 303 56 300 46 q 312 72 306 65 q 328 82 318 79 q 347 85 338 85 q 367 82 357 85 q 383 72 376 79 q 392 56 389 65 q 396 38 396 46 q 392 18 396 28 q 383 1 389 8 q 367 -8 376 -6 q 347 -11 357 -11 z "},"@":{"ha":694,"x_min":100,"x_max":594,"o":"m 347 -100 q 276 -92 311 -100 q 212 -65 242 -83 q 159 -18 182 -46 q 123 43 136 10 q 105 112 110 76 q 100 182 100 147 l 100 763 q 105 833 100 797 q 123 901 110 868 q 159 963 136 935 q 212 1010 182 990 q 276 1037 242 1029 q 347 1044 311 1044 q 417 1037 382 1044 q 483 1010 453 1029 q 535 963 513 992 q 571 902 557 935 q 590 834 585 869 q 594 764 594 799 l 594 300 q 592 258 594 279 q 583 217 590 238 q 565 179 576 197 q 536 149 553 161 q 499 131 519 136 q 458 125 479 125 q 417 131 438 125 q 379 149 396 136 q 351 179 363 161 q 333 217 340 197 q 324 258 326 238 q 321 300 321 279 l 321 588 q 328 652 321 621 q 353 710 335 683 q 401 750 371 736 q 464 764 432 764 l 568 764 q 563 828 568 796 q 547 889 558 860 q 515 944 535 918 q 469 987 496 969 q 410 1012 442 1004 q 347 1019 379 1019 q 283 1012 315 1019 q 225 987 251 1004 q 178 944 199 969 q 147 888 158 918 q 131 826 135 858 q 126 763 126 794 l 126 182 q 131 118 126 150 q 147 56 136 86 q 178 1 158 26 q 225 -42 199 -25 q 283 -67 251 -60 q 347 -75 315 -75 l 582 -75 l 582 -100 l 347 -100 m 458 150 q 508 163 485 150 q 545 199 532 176 q 563 247 558 221 q 568 300 568 274 l 568 739 l 464 739 q 412 726 436 739 q 373 691 388 714 q 353 642 358 668 q 349 588 349 615 l 349 300 q 353 247 349 274 q 371 199 357 221 q 408 163 385 176 q 458 150 432 150 z "},"A":{"ha":694,"x_min":81,"x_max":614,"o":"m 81 0 l 332 1021 l 363 1021 l 614 0 l 586 0 l 503 336 l 192 336 l 108 0 l 81 0 m 497 361 l 418 681 q 383 827 400 754 q 347 972 365 900 q 312 827 329 900 q 276 681 294 754 l 197 361 l 497 361 z "},"B":{"ha":694,"x_min":100,"x_max":617,"o":"m 100 0 l 100 1021 l 319 1021 q 388 1015 354 1021 q 453 995 422 1010 q 510 957 485 981 q 553 903 536 933 q 576 838 569 872 q 582 769 582 804 q 573 692 582 731 q 542 620 564 653 q 486 565 519 588 q 415 532 453 543 q 499 498 460 521 q 566 440 539 475 q 605 360 593 404 q 617 271 617 317 q 609 195 617 233 q 582 124 601 157 q 533 67 563 92 q 469 26 504 42 q 396 6 433 11 q 319 0 358 0 l 100 0 m 126 543 l 319 543 q 382 548 351 543 q 440 566 413 553 q 491 601 468 579 q 528 649 514 622 q 549 708 543 676 q 556 769 556 739 q 549 831 556 800 q 528 890 543 863 q 491 938 514 917 q 440 973 468 960 q 382 991 413 986 q 319 996 351 996 l 126 996 l 126 543 m 126 25 l 319 25 q 389 30 354 25 q 456 49 424 35 q 514 85 488 63 q 558 138 540 108 q 583 202 575 168 q 590 271 590 236 q 583 340 590 306 q 558 405 575 375 q 514 458 540 435 q 456 494 488 481 q 389 513 424 507 q 319 518 354 518 l 126 518 l 126 25 z "},"C":{"ha":694,"x_min":89,"x_max":597,"o":"m 343 -11 q 272 -3 307 -11 q 206 22 236 4 q 151 69 175 40 q 114 131 128 97 q 94 199 100 164 q 89 271 89 235 l 89 750 q 94 822 89 786 q 114 890 100 857 q 151 952 128 924 q 206 999 175 981 q 272 1024 236 1017 q 343 1032 307 1032 q 409 1026 376 1032 q 471 1007 442 1021 q 524 971 500 993 q 565 920 549 949 q 590 860 582 892 q 597 794 597 828 l 597 792 l 571 792 l 571 794 q 554 881 571 839 q 506 952 538 922 q 431 994 474 982 q 343 1007 388 1007 q 279 1000 311 1007 q 219 976 247 993 q 171 933 192 958 q 138 877 150 907 q 120 815 125 847 q 115 750 115 782 l 115 271 q 120 206 115 239 q 138 144 125 174 q 171 88 150 114 q 219 45 192 63 q 279 21 247 28 q 343 14 311 14 q 431 26 388 14 q 506 69 474 39 q 554 140 538 99 q 571 226 571 182 l 571 229 l 597 229 l 597 226 q 590 161 597 193 q 565 101 582 129 q 524 50 549 72 q 471 14 500 28 q 409 -6 442 0 q 343 -11 376 -11 z "},"D":{"ha":694,"x_min":100,"x_max":606,"o":"m 297 0 l 100 0 l 100 1021 l 297 1021 q 378 1014 338 1021 q 455 990 418 1007 q 522 944 492 972 q 572 881 553 917 q 598 804 590 844 q 606 724 606 764 l 606 299 q 598 217 606 257 q 572 140 590 176 q 522 76 553 104 q 455 31 492 49 q 378 7 418 14 q 297 0 338 0 m 126 25 l 296 25 q 371 31 333 25 q 442 53 408 38 q 503 95 475 69 q 548 154 531 121 q 572 224 565 188 q 579 299 579 261 l 579 724 q 572 797 579 760 q 548 867 565 833 q 503 926 531 900 q 442 967 475 951 q 371 990 408 983 q 296 996 333 996 l 126 996 l 126 25 z "},"E":{"ha":694,"x_min":111,"x_max":594,"o":"m 111 0 l 111 1021 l 594 1021 l 594 996 l 138 996 l 138 543 l 521 543 l 521 518 l 138 518 l 138 25 l 594 25 l 594 0 l 111 0 z "},"F":{"ha":694,"x_min":150,"x_max":594,"o":"m 150 0 l 150 1021 l 594 1021 l 594 996 l 176 996 l 176 543 l 521 543 l 521 518 l 176 518 l 176 0 l 150 0 z "},"G":{"ha":694,"x_min":89,"x_max":597,"o":"m 338 -11 q 266 -3 301 -11 q 201 23 231 4 q 149 70 171 42 q 113 131 126 99 q 94 199 99 164 q 89 271 89 235 l 89 750 q 94 822 89 786 q 114 890 100 857 q 151 952 128 924 q 206 999 175 981 q 272 1024 236 1017 q 343 1032 307 1032 q 409 1026 376 1032 q 471 1007 442 1021 q 524 971 500 993 q 565 920 549 949 q 590 860 582 892 q 597 794 597 828 l 597 792 l 571 792 l 571 794 q 554 881 571 839 q 506 952 538 922 q 431 994 474 982 q 343 1007 388 1007 q 279 1000 311 1007 q 219 976 247 993 q 171 933 192 958 q 138 877 150 907 q 120 815 125 847 q 115 750 115 782 l 115 271 q 120 206 115 239 q 138 144 125 174 q 170 88 150 114 q 218 45 190 63 q 278 21 246 28 q 342 14 310 14 q 406 21 374 14 q 465 45 438 28 q 513 88 493 63 q 546 144 533 114 q 563 206 558 174 q 568 271 568 239 l 568 513 l 347 513 l 347 538 l 594 538 l 594 0 l 568 0 l 568 147 q 533 81 556 113 q 481 28 511 49 q 413 -2 450 7 q 338 -11 375 -11 z "},"H":{"ha":694,"x_min":100,"x_max":594,"o":"m 100 0 l 100 1021 l 126 1021 l 126 546 l 568 546 l 568 1021 l 594 1021 l 594 0 l 568 0 l 568 521 l 126 521 l 126 0 l 100 0 z "},"I":{"ha":694,"x_min":104,"x_max":590,"o":"m 104 0 l 104 25 l 333 25 l 333 996 l 104 996 l 104 1021 l 590 1021 l 590 996 l 361 996 l 361 25 l 590 25 l 590 0 l 104 0 z "},"J":{"ha":694,"x_min":72,"x_max":578,"o":"m 325 -11 q 260 -6 292 -11 q 198 14 228 0 q 144 50 168 28 q 103 101 119 72 q 80 161 88 129 q 72 226 72 193 l 72 229 l 99 229 l 99 226 q 115 140 99 182 q 163 69 131 99 q 238 26 196 39 q 325 14 281 14 q 390 21 357 14 q 449 45 422 28 q 497 88 476 63 q 531 144 518 114 q 547 206 543 174 q 551 271 551 239 l 551 996 l 322 996 l 322 1021 l 578 1021 l 578 271 q 573 199 578 235 q 554 131 568 164 q 517 69 540 97 q 463 22 493 40 q 397 -3 432 4 q 325 -11 361 -11 z "},"K":{"ha":694,"x_min":122,"x_max":590,"o":"m 560 0 l 244 540 l 149 407 l 149 0 l 122 0 l 122 1021 l 149 1021 l 149 451 l 558 1021 l 590 1021 l 261 564 l 590 0 l 560 0 z "},"L":{"ha":694,"x_min":150,"x_max":603,"o":"m 150 0 l 150 1021 l 176 1021 l 176 25 l 603 25 l 603 0 l 150 0 z "},"M":{"ha":694,"x_min":100,"x_max":594,"o":"m 100 0 l 100 1021 l 140 1021 l 347 349 l 554 1021 l 594 1021 l 594 0 l 568 0 l 568 978 l 361 307 l 333 307 l 126 978 l 126 0 l 100 0 z "},"N":{"ha":694,"x_min":100,"x_max":594,"o":"m 100 0 l 100 1021 l 139 1021 l 568 38 l 568 1021 l 594 1021 l 594 0 l 556 0 l 126 983 l 126 0 l 100 0 z "},"O":{"ha":694,"x_min":89,"x_max":606,"o":"m 347 -11 q 275 -3 311 -11 q 208 22 239 4 q 153 68 176 40 q 115 129 129 96 q 94 199 100 163 q 89 271 89 235 l 89 750 q 94 822 89 786 q 115 892 100 858 q 153 953 129 925 q 208 999 176 981 q 275 1024 239 1017 q 347 1032 311 1032 q 419 1024 383 1032 q 487 999 456 1017 q 542 953 518 981 q 580 892 565 925 q 600 822 594 858 q 606 750 606 786 l 606 271 q 600 199 606 235 q 580 129 594 163 q 542 68 565 96 q 487 22 518 40 q 419 -3 456 4 q 347 -11 383 -11 m 347 14 q 413 21 381 14 q 473 44 444 28 q 522 87 501 61 q 556 142 543 113 q 574 205 569 172 q 579 271 579 238 l 579 750 q 574 816 579 783 q 556 878 569 849 q 522 934 543 908 q 473 976 501 960 q 413 1000 444 993 q 347 1007 381 1007 q 282 1000 314 1007 q 222 976 250 993 q 172 934 193 960 q 138 878 151 908 q 120 816 125 849 q 115 750 115 783 l 115 271 q 120 205 115 238 q 138 142 125 172 q 172 87 151 113 q 222 44 193 61 q 282 21 250 28 q 347 14 314 14 z "},"P":{"ha":694,"x_min":125,"x_max":617,"o":"m 125 0 l 125 1021 l 360 1021 q 430 1014 394 1021 q 497 990 465 1007 q 552 944 528 972 q 591 884 576 917 q 611 816 606 851 q 617 744 617 781 q 611 674 617 710 q 591 605 606 638 q 552 545 576 572 q 497 501 528 518 q 431 476 465 483 q 360 469 396 469 l 151 469 l 151 0 l 125 0 m 360 494 q 424 501 392 494 q 483 523 456 507 q 533 564 511 539 q 567 619 554 589 q 585 681 581 649 q 590 744 590 713 q 585 810 590 778 q 567 872 581 842 q 533 926 554 901 q 483 967 511 950 q 424 990 456 983 q 360 996 392 996 l 151 996 l 151 494 l 360 494 z "},"Q":{"ha":694,"x_min":89,"x_max":606,"o":"m 563 -229 q 503 -224 533 -229 q 447 -206 474 -219 q 398 -172 419 -193 q 362 -126 376 -151 q 341 -70 347 -100 q 333 -11 335 -40 q 264 -1 299 -10 q 200 26 229 7 q 149 74 171 46 q 113 133 126 101 q 94 201 99 165 q 89 271 89 236 l 89 750 q 94 822 89 786 q 115 892 100 858 q 153 953 129 925 q 208 999 176 981 q 275 1024 239 1017 q 347 1032 311 1032 q 419 1024 383 1032 q 487 999 456 1017 q 542 953 518 981 q 580 892 565 925 q 600 822 594 858 q 606 750 606 786 l 606 271 q 601 201 606 236 q 582 133 596 165 q 546 74 568 101 q 494 26 524 46 q 431 -1 465 7 q 361 -11 396 -10 q 367 -63 361 -37 q 385 -112 372 -89 q 418 -154 399 -136 q 461 -184 438 -172 q 510 -200 485 -196 q 563 -204 536 -204 l 583 -204 l 583 -229 l 563 -229 m 347 14 q 413 21 381 14 q 473 44 444 28 q 522 87 501 61 q 556 142 543 113 q 574 205 569 172 q 579 271 579 238 l 579 750 q 574 816 579 783 q 556 878 569 849 q 522 934 543 908 q 473 976 501 960 q 413 1000 444 993 q 347 1007 381 1007 q 282 1000 314 1007 q 222 976 250 993 q 172 934 193 960 q 138 878 151 908 q 120 816 125 849 q 115 750 115 783 l 115 271 q 120 205 115 238 q 138 142 125 172 q 172 87 151 113 q 222 44 193 61 q 282 21 250 28 q 347 14 314 14 z "},"R":{"ha":694,"x_min":100,"x_max":628,"o":"m 100 0 l 100 1021 l 360 1021 q 429 1013 394 1021 q 494 988 464 1006 q 546 942 524 969 q 582 882 568 914 q 601 815 596 850 q 606 744 606 781 q 601 677 606 711 q 583 611 596 643 q 550 552 571 579 q 500 506 529 525 q 438 478 471 488 q 371 469 406 469 l 628 0 l 597 0 l 340 469 l 126 469 l 126 0 l 100 0 m 360 494 q 422 501 390 494 q 480 525 453 508 q 526 567 507 542 q 558 621 546 592 q 574 682 569 650 q 579 744 579 714 q 574 808 579 776 q 558 869 569 839 q 526 924 546 899 q 480 965 507 949 q 422 989 453 982 q 360 996 390 996 l 126 996 l 126 494 l 360 494 z "},"S":{"ha":694,"x_min":86,"x_max":606,"o":"m 346 -11 q 280 -6 313 -11 q 217 12 247 -1 q 162 47 188 25 q 119 97 136 68 q 94 157 103 125 q 86 222 86 189 l 86 229 l 113 229 l 113 222 q 130 137 113 179 q 181 66 147 94 q 258 26 214 38 q 346 14 301 14 q 406 19 376 14 q 463 37 436 24 q 513 72 490 50 q 549 119 535 93 q 572 176 564 146 q 579 236 579 206 q 565 312 579 275 q 526 378 551 349 q 469 431 501 408 q 403 470 438 453 q 333 504 368 488 q 264 540 297 521 q 200 584 231 560 q 147 640 169 608 q 112 710 124 672 q 100 785 100 747 q 108 851 100 818 q 130 913 115 883 q 168 965 144 942 q 221 1004 192 989 q 283 1026 250 1019 q 349 1032 315 1032 q 413 1026 381 1032 q 474 1008 444 1021 q 526 972 503 994 q 566 922 550 950 q 590 863 582 894 q 597 799 597 831 l 597 792 l 571 792 l 571 799 q 555 883 571 842 q 508 953 539 924 q 434 994 476 982 q 349 1007 392 1007 q 290 1001 319 1007 q 235 982 261 996 q 188 947 208 968 q 153 899 167 925 q 133 844 140 874 q 126 786 126 815 q 140 710 126 747 q 179 642 154 672 q 236 590 204 613 q 303 551 268 568 q 373 517 338 533 q 442 481 408 500 q 506 437 475 461 q 559 381 536 413 q 594 313 582 350 q 606 236 606 275 q 597 169 606 201 q 573 106 589 136 q 532 53 557 76 q 476 15 507 29 q 413 -6 446 0 q 346 -11 379 -11 z "},"T":{"ha":694,"x_min":92,"x_max":603,"o":"m 333 0 l 333 996 l 92 996 l 92 1021 l 603 1021 l 603 996 l 361 996 l 361 0 l 333 0 z "},"U":{"ha":694,"x_min":100,"x_max":594,"o":"m 347 -11 q 276 -3 311 -11 q 212 23 242 4 q 159 70 182 42 q 123 132 136 99 q 105 200 110 165 q 100 271 100 235 l 100 1021 l 126 1021 l 126 271 q 131 207 126 239 q 147 145 136 175 q 178 90 158 115 q 225 46 199 64 q 283 21 251 28 q 347 14 315 14 q 411 21 379 14 q 469 46 443 28 q 516 90 496 64 q 547 145 536 115 q 563 207 558 175 q 568 271 568 239 l 568 1021 l 594 1021 l 594 271 q 590 200 594 235 q 572 132 585 165 q 535 70 558 99 q 483 23 513 42 q 418 -3 453 4 q 347 -11 383 -11 z "},"V":{"ha":694,"x_min":81,"x_max":614,"o":"m 332 0 l 81 1021 l 108 1021 l 276 340 q 312 194 294 267 q 347 49 329 121 q 383 194 365 121 q 418 340 400 267 l 586 1021 l 614 1021 l 363 0 l 332 0 z "},"W":{"ha":694,"x_min":78,"x_max":617,"o":"m 199 0 l 78 1021 l 104 1021 l 214 74 l 333 735 l 361 735 l 481 74 l 590 1021 l 617 1021 l 496 0 l 468 0 l 347 675 l 226 0 l 199 0 z "},"X":{"ha":694,"x_min":94,"x_max":600,"o":"m 94 0 l 333 511 l 94 1021 l 124 1021 l 347 542 l 571 1021 l 600 1021 l 361 511 l 600 0 l 571 0 l 347 479 l 124 0 l 94 0 z "},"Y":{"ha":694,"x_min":93,"x_max":601,"o":"m 333 0 l 333 407 l 93 1021 l 122 1021 l 347 444 l 572 1021 l 601 1021 l 361 407 l 361 0 l 333 0 z "},"Z":{"ha":694,"x_min":100,"x_max":594,"o":"m 100 0 l 100 25 l 564 996 l 100 996 l 100 1021 l 594 1021 l 594 996 l 131 25 l 594 25 l 594 0 l 100 0 z "},"[":{"ha":694,"x_min":193,"x_max":544,"o":"m 193 -199 l 193 1143 l 544 1143 l 544 1118 l 221 1118 l 221 -174 l 544 -174 l 544 -199 l 193 -199 z "},"\\":{"ha":694,"x_min":99,"x_max":596,"o":"m 568 -199 l 99 1143 l 126 1143 l 596 -199 l 568 -199 z "},"]":{"ha":694,"x_min":150,"x_max":501,"o":"m 150 -199 l 150 -174 l 474 -174 l 474 1118 l 150 1118 l 150 1143 l 501 1143 l 501 -199 l 150 -199 z "},"^":{"ha":694,"x_min":92,"x_max":603,"o":"m 114 653 l 92 669 l 331 963 l 364 963 l 603 669 l 581 653 l 347 942 l 114 653 z "},"_":{"ha":694,"x_min":100,"x_max":594,"o":"m 594 -25 l 100 -25 l 100 0 l 594 0 l 594 -25 z "},"`":{"ha":694,"x_min":169,"x_max":374,"o":"m 353 781 l 169 1068 l 194 1082 l 374 792 l 353 781 z "},"a":{"ha":694,"x_min":89,"x_max":594,"o":"m 336 -11 q 276 -8 306 -11 q 217 6 246 -4 q 164 35 189 17 q 122 77 139 53 q 97 131 104 101 q 89 192 89 161 q 99 256 89 225 q 131 313 108 288 q 182 353 153 338 q 242 378 211 369 q 306 390 274 388 q 372 393 339 393 l 568 393 l 568 479 q 563 539 568 508 q 544 597 557 569 q 510 647 532 624 q 462 683 489 669 q 405 703 435 697 q 344 708 375 708 q 294 706 319 708 q 243 694 268 703 q 196 672 218 686 q 158 637 174 657 q 133 592 142 617 q 124 542 125 568 l 97 542 q 107 599 97 571 q 135 651 117 628 q 177 690 153 674 q 229 717 201 707 q 286 730 257 726 q 344 733 315 733 q 413 727 379 733 q 476 706 446 721 q 530 665 506 690 q 569 610 554 640 q 589 546 583 579 q 594 479 594 513 l 594 0 l 568 0 l 568 135 q 531 71 554 100 q 477 23 508 42 q 410 -3 446 4 q 336 -11 374 -11 m 340 14 q 403 19 372 14 q 460 40 433 25 q 509 78 488 56 q 544 129 531 101 q 563 188 557 157 q 568 250 568 219 l 568 368 l 372 368 q 314 366 343 368 q 256 356 285 364 q 201 335 228 349 q 155 300 175 321 q 125 251 135 279 q 115 193 115 222 q 123 140 115 167 q 147 92 131 114 q 185 54 163 69 q 234 30 208 39 q 287 17 260 21 q 340 14 314 14 z "},"b":{"ha":694,"x_min":100,"x_max":606,"o":"m 357 -11 q 282 -2 319 -11 q 214 29 244 7 q 161 83 183 51 q 126 150 139 114 l 126 0 l 100 0 l 100 1021 l 126 1021 l 126 572 q 161 640 139 608 q 214 693 183 671 q 282 724 244 715 q 357 733 319 733 q 429 725 393 733 q 495 697 465 717 q 547 649 525 678 q 583 586 569 619 q 601 517 596 553 q 606 444 606 481 l 606 278 q 601 206 606 242 q 583 136 596 169 q 547 74 569 103 q 495 25 525 44 q 429 -3 465 6 q 357 -11 393 -11 m 353 14 q 418 22 386 14 q 478 47 450 29 q 526 92 506 65 q 558 149 546 118 q 574 212 569 179 q 579 278 579 244 l 579 444 q 574 510 579 478 q 558 574 569 543 q 526 631 546 604 q 478 675 506 657 q 418 701 450 693 q 353 708 386 708 q 288 701 319 708 q 228 675 256 693 q 180 631 200 657 q 148 574 160 604 q 131 510 136 543 q 126 444 126 478 l 126 278 q 131 212 126 244 q 148 149 136 179 q 180 92 160 118 q 228 47 200 65 q 288 22 256 29 q 353 14 319 14 z "},"c":{"ha":694,"x_min":89,"x_max":597,"o":"m 343 -11 q 271 -3 307 -11 q 204 24 235 4 q 150 72 174 43 q 113 135 126 101 q 94 205 99 168 q 89 278 89 242 l 89 444 q 94 517 89 481 q 113 588 99 554 q 150 650 126 621 q 204 699 174 679 q 271 726 235 718 q 343 733 307 733 q 409 728 376 733 q 471 708 442 722 q 525 672 500 694 q 566 621 550 650 q 590 560 582 592 q 597 494 597 528 l 597 493 l 571 493 l 571 494 q 554 581 571 539 q 506 653 538 624 q 431 696 474 683 q 343 708 388 708 q 278 701 311 708 q 218 676 246 693 q 169 631 190 658 q 137 574 149 604 q 120 510 125 543 q 115 444 115 478 l 115 278 q 120 212 115 244 q 137 149 125 179 q 169 91 149 118 q 218 47 190 64 q 278 22 246 29 q 343 14 311 14 q 431 26 388 14 q 506 69 474 39 q 554 141 538 99 q 571 228 571 183 l 571 229 l 597 229 l 597 228 q 590 163 597 194 q 566 101 582 131 q 525 50 550 72 q 471 14 500 28 q 409 -6 442 0 q 343 -11 376 -11 z "},"d":{"ha":694,"x_min":89,"x_max":594,"o":"m 338 -11 q 265 -3 301 -11 q 199 25 229 6 q 147 74 169 44 q 112 136 125 103 q 94 206 99 169 q 89 278 89 242 l 89 444 q 94 517 89 481 q 112 586 99 553 q 147 649 125 619 q 199 697 169 678 q 265 725 229 717 q 338 733 301 733 q 413 724 375 733 q 481 693 450 715 q 533 640 511 671 q 568 572 556 608 l 568 1021 l 594 1021 l 594 0 l 568 0 l 568 150 q 533 83 556 114 q 481 29 511 51 q 413 -2 450 7 q 338 -11 375 -11 m 342 14 q 407 22 375 14 q 467 47 439 29 q 515 92 494 65 q 547 149 535 118 q 563 212 558 179 q 568 278 568 244 l 568 444 q 563 510 568 478 q 547 574 558 543 q 515 631 535 604 q 467 675 494 657 q 407 701 439 693 q 342 708 375 708 q 276 701 308 708 q 217 675 244 693 q 169 631 189 657 q 137 574 149 604 q 120 510 125 543 q 115 444 115 478 l 115 278 q 120 212 115 244 q 137 149 125 179 q 169 92 149 118 q 217 47 189 65 q 276 22 244 29 q 342 14 308 14 z "},"e":{"ha":694,"x_min":89,"x_max":606,"o":"m 349 -11 q 275 -3 311 -11 q 207 23 239 4 q 151 71 175 42 q 114 134 128 100 q 94 205 100 168 q 89 278 89 242 l 89 444 q 94 517 89 481 q 114 588 100 554 q 151 651 128 622 q 206 699 175 679 q 274 726 238 718 q 347 733 311 733 q 420 726 383 733 q 488 699 457 718 q 543 651 519 679 q 581 588 567 622 q 600 517 594 554 q 606 444 606 481 l 606 349 l 115 349 l 115 278 q 120 211 115 244 q 138 147 125 178 q 172 90 150 117 q 221 46 193 64 q 282 21 249 28 q 349 14 315 14 q 401 17 375 14 q 451 28 426 19 q 499 50 476 36 q 539 84 522 64 q 565 129 556 104 q 576 181 575 154 l 603 181 q 591 123 601 151 q 562 72 581 94 q 518 32 543 49 q 465 6 493 15 q 408 -8 438 -4 q 349 -11 378 -11 m 115 374 l 579 374 l 579 444 q 574 511 579 478 q 557 575 569 544 q 524 632 544 606 q 474 676 503 658 q 413 701 446 694 q 347 708 381 708 q 281 701 314 708 q 220 676 249 694 q 171 632 192 658 q 138 575 150 606 q 120 511 125 544 q 115 444 115 478 l 115 374 z "},"f":{"ha":694,"x_min":100,"x_max":618,"o":"m 267 0 l 267 614 l 100 614 l 100 639 l 267 639 l 267 804 q 269 859 267 832 q 281 912 272 886 q 305 960 290 938 q 341 1000 319 983 q 389 1024 363 1017 q 443 1032 415 1032 q 513 1019 479 1032 q 572 981 547 1007 q 607 919 596 954 q 618 849 618 885 l 592 849 q 582 909 592 879 q 552 963 572 939 q 503 997 532 986 q 443 1007 474 1007 q 396 1000 419 1007 q 354 978 372 993 q 324 942 336 963 q 306 898 313 921 q 296 851 299 875 q 293 804 293 828 l 293 638 l 569 638 l 569 614 l 293 614 l 293 0 l 267 0 z "},"g":{"ha":694,"x_min":89,"x_max":594,"o":"m 343 -310 q 287 -306 315 -310 q 232 -294 258 -303 q 181 -271 206 -286 q 138 -235 157 -256 q 109 -187 119 -214 q 97 -132 99 -160 l 124 -132 q 147 -201 126 -169 q 200 -252 168 -233 q 269 -278 232 -271 q 343 -285 306 -285 q 408 -277 375 -285 q 467 -251 440 -269 q 515 -207 494 -233 q 547 -150 535 -181 q 563 -87 558 -119 q 568 -21 568 -54 l 568 150 q 533 83 556 114 q 481 29 511 51 q 413 -2 450 7 q 338 -11 375 -11 q 265 -3 301 -11 q 199 25 229 6 q 147 74 169 44 q 112 136 125 103 q 94 206 99 169 q 89 278 89 242 l 89 444 q 94 517 89 481 q 112 586 99 553 q 147 649 125 619 q 199 697 169 678 q 265 725 229 717 q 338 733 301 733 q 413 724 375 733 q 481 693 450 715 q 533 640 511 671 q 568 572 556 608 l 568 722 l 594 722 l 594 -21 q 590 -93 594 -57 q 571 -163 585 -129 q 535 -226 557 -197 q 482 -274 513 -254 q 415 -301 451 -293 q 343 -310 379 -310 m 342 14 q 407 22 375 14 q 467 47 439 29 q 515 92 494 65 q 547 149 535 118 q 563 212 558 179 q 568 278 568 244 l 568 444 q 563 510 568 478 q 547 574 558 543 q 515 631 535 604 q 467 675 494 657 q 407 701 439 693 q 342 708 375 708 q 276 701 308 708 q 217 675 244 693 q 169 631 189 657 q 137 574 149 604 q 120 510 125 543 q 115 444 115 478 l 115 278 q 120 212 115 244 q 137 149 125 179 q 169 92 149 118 q 217 47 189 65 q 276 22 244 29 q 342 14 308 14 z "},"h":{"ha":694,"x_min":100,"x_max":594,"o":"m 100 0 l 100 1021 l 126 1021 l 126 574 q 160 640 139 608 q 211 693 181 671 q 278 724 242 715 q 351 733 314 733 q 423 725 388 733 q 488 697 458 717 q 538 647 517 676 q 572 585 560 618 q 590 516 585 551 q 594 444 594 481 l 594 0 l 568 0 l 568 444 q 564 509 568 476 q 548 572 560 542 q 517 629 536 603 q 471 674 497 656 q 412 701 444 693 q 347 708 379 708 q 283 701 315 708 q 224 674 250 693 q 178 629 197 656 q 147 572 158 603 q 131 509 135 542 q 126 444 126 476 l 126 0 l 100 0 z "},"i":{"ha":694,"x_min":104,"x_max":590,"o":"m 104 0 l 104 25 l 343 25 l 343 697 l 124 697 l 124 722 l 371 722 l 371 25 l 590 25 l 590 0 l 104 0 m 354 894 q 340 897 347 894 q 327 903 332 899 q 320 916 322 908 q 318 931 318 924 q 320 945 318 938 q 327 958 322 953 q 340 965 332 963 q 354 968 347 968 q 369 965 361 968 q 381 958 376 963 q 389 945 386 953 q 392 931 392 938 q 389 916 392 924 q 381 903 386 908 q 369 897 376 899 q 354 894 361 894 z "},"j":{"ha":694,"x_min":68,"x_max":463,"o":"m 257 -310 q 181 -296 218 -310 q 119 -253 144 -282 q 81 -187 93 -225 q 68 -111 69 -150 l 96 -111 q 106 -177 96 -144 q 138 -235 117 -210 q 192 -272 160 -260 q 257 -285 224 -285 q 312 -274 285 -285 q 358 -242 339 -262 q 390 -195 378 -221 q 410 -142 403 -169 q 419 -85 417 -114 q 421 -28 421 -57 l 421 697 l 192 697 l 192 722 l 449 722 l 449 -28 q 446 -92 449 -60 q 434 -154 443 -124 q 410 -214 425 -185 q 373 -265 396 -243 q 319 -299 350 -287 q 257 -310 289 -310 m 424 894 q 409 897 417 894 q 397 903 401 899 q 390 916 392 908 q 388 931 388 924 q 390 945 388 938 q 397 958 392 953 q 409 965 401 963 q 424 968 417 968 q 438 965 431 968 q 451 958 446 963 q 458 945 456 953 q 461 931 461 938 q 458 916 461 924 q 451 903 456 908 q 438 897 446 899 q 424 894 431 894 z "},"k":{"ha":694,"x_min":122,"x_max":581,"o":"m 547 0 l 246 379 l 149 281 l 149 0 l 122 0 l 122 1021 l 149 1021 l 149 317 l 543 722 l 581 722 l 264 399 l 581 0 l 547 0 z "},"l":{"ha":694,"x_min":104,"x_max":590,"o":"m 104 0 l 104 25 l 343 25 l 343 996 l 124 996 l 124 1021 l 371 1021 l 371 25 l 590 25 l 590 0 l 104 0 z "},"m":{"ha":694,"x_min":100,"x_max":594,"o":"m 100 0 l 100 722 l 126 722 l 126 664 q 144 694 133 681 q 170 716 156 707 q 201 729 185 725 q 235 733 218 733 q 275 728 256 733 q 310 709 294 722 q 337 678 326 696 q 353 642 347 661 q 368 678 358 661 q 394 709 378 696 q 429 728 410 722 q 468 733 449 733 q 524 721 497 733 q 567 684 551 708 q 589 631 583 660 q 594 574 594 603 l 594 0 l 568 0 l 568 574 q 563 622 568 599 q 545 666 558 646 q 510 697 532 686 q 464 708 488 708 q 418 697 440 708 q 383 666 396 686 q 365 622 369 646 q 361 574 361 599 l 361 0 l 333 0 l 333 574 q 329 622 333 599 q 312 666 325 646 q 276 697 299 686 q 231 708 254 708 q 185 697 207 708 q 149 666 163 686 q 131 622 136 646 q 126 574 126 599 l 126 0 l 100 0 z "},"n":{"ha":694,"x_min":100,"x_max":594,"o":"m 100 0 l 100 722 l 126 722 l 126 574 q 160 640 139 608 q 211 693 181 671 q 278 724 242 715 q 351 733 314 733 q 423 725 388 733 q 488 697 458 717 q 538 647 517 676 q 572 585 560 618 q 590 516 585 551 q 594 444 594 481 l 594 0 l 568 0 l 568 444 q 564 509 568 476 q 548 572 560 542 q 517 629 536 603 q 471 674 497 656 q 412 701 444 693 q 347 708 379 708 q 283 701 315 708 q 224 674 250 693 q 178 629 197 656 q 147 572 158 603 q 131 509 135 542 q 126 444 126 476 l 126 0 l 100 0 z "},"o":{"ha":694,"x_min":89,"x_max":606,"o":"m 347 -11 q 274 -3 311 -11 q 206 24 238 4 q 151 72 175 43 q 114 134 128 100 q 94 205 100 168 q 89 278 89 242 l 89 444 q 94 517 89 481 q 114 588 100 554 q 151 651 128 622 q 206 699 175 679 q 274 726 238 718 q 347 733 311 733 q 420 726 383 733 q 488 699 457 718 q 543 651 519 679 q 581 588 567 622 q 600 517 594 554 q 606 444 606 481 l 606 278 q 600 205 606 242 q 581 134 594 168 q 543 72 567 100 q 488 24 519 43 q 420 -3 457 4 q 347 -11 383 -11 m 347 14 q 413 21 381 14 q 474 46 446 28 q 524 90 503 64 q 557 147 544 117 q 574 211 569 178 q 579 278 579 244 l 579 444 q 574 511 579 478 q 557 575 569 544 q 524 632 544 606 q 474 676 503 658 q 413 701 446 694 q 347 708 381 708 q 281 701 314 708 q 220 676 249 694 q 171 632 192 658 q 138 575 150 606 q 120 511 125 544 q 115 444 115 478 l 115 278 q 120 211 115 244 q 138 147 125 178 q 171 90 150 117 q 220 46 192 64 q 281 21 249 28 q 347 14 314 14 z "},"p":{"ha":694,"x_min":100,"x_max":606,"o":"m 100 -299 l 100 722 l 126 722 l 126 572 q 161 640 139 608 q 214 693 183 671 q 282 724 244 715 q 357 733 319 733 q 429 725 393 733 q 495 697 465 717 q 547 649 525 678 q 583 586 569 619 q 601 517 596 553 q 606 444 606 481 l 606 278 q 601 206 606 242 q 583 136 596 169 q 547 74 569 103 q 495 25 525 44 q 429 -3 465 6 q 357 -11 393 -11 q 282 -2 319 -11 q 214 29 244 7 q 161 83 183 51 q 126 150 139 114 l 126 -299 l 100 -299 m 353 14 q 418 22 386 14 q 478 47 450 29 q 526 92 506 65 q 558 149 546 118 q 574 212 569 179 q 579 278 579 244 l 579 444 q 574 510 579 478 q 558 574 569 543 q 526 631 546 604 q 478 675 506 657 q 418 701 450 693 q 353 708 386 708 q 288 701 319 708 q 228 675 256 693 q 180 631 200 657 q 148 574 160 604 q 131 510 136 543 q 126 444 126 478 l 126 278 q 131 212 126 244 q 148 149 136 179 q 180 92 160 118 q 228 47 200 65 q 288 22 256 29 q 353 14 319 14 z "},"q":{"ha":694,"x_min":89,"x_max":594,"o":"m 568 -299 l 568 150 q 533 83 556 114 q 481 29 511 51 q 413 -2 450 7 q 338 -11 375 -11 q 265 -3 301 -11 q 199 25 229 6 q 147 74 169 44 q 112 136 125 103 q 94 206 99 169 q 89 278 89 242 l 89 444 q 94 517 89 481 q 112 586 99 553 q 147 649 125 619 q 199 697 169 678 q 265 725 229 717 q 338 733 301 733 q 413 724 375 733 q 481 693 450 715 q 533 640 511 671 q 568 572 556 608 l 568 722 l 594 722 l 594 -299 l 568 -299 m 342 14 q 407 22 375 14 q 467 47 439 29 q 515 92 494 65 q 547 149 535 118 q 563 212 558 179 q 568 278 568 244 l 568 444 q 563 510 568 478 q 547 574 558 543 q 515 631 535 604 q 467 675 494 657 q 407 701 439 693 q 342 708 375 708 q 276 701 308 708 q 217 675 244 693 q 169 631 189 657 q 137 574 149 604 q 120 510 125 543 q 115 444 115 478 l 115 278 q 120 212 115 244 q 137 149 125 179 q 169 92 149 118 q 217 47 189 65 q 276 22 244 29 q 342 14 308 14 z "},"r":{"ha":694,"x_min":183,"x_max":615,"o":"m 183 0 l 183 722 l 210 722 l 210 543 q 238 615 221 581 q 282 678 254 650 q 347 719 310 706 q 421 733 383 733 q 496 724 458 733 q 562 691 533 715 q 603 631 590 667 q 615 557 615 594 l 589 557 q 578 620 589 589 q 542 672 567 651 q 486 701 518 693 q 421 708 454 708 q 351 695 385 708 q 291 656 317 682 q 250 596 265 629 q 226 527 235 563 q 213 456 217 492 q 210 383 210 419 l 210 0 l 183 0 z "},"s":{"ha":694,"x_min":97,"x_max":594,"o":"m 346 -11 q 290 -8 318 -11 q 234 3 261 -6 q 182 25 207 11 q 138 60 157 39 q 108 107 118 81 q 97 163 97 133 l 97 167 l 124 167 l 124 163 q 134 115 124 138 q 161 74 144 92 q 201 44 178 56 q 247 25 224 32 q 296 16 271 18 q 346 14 321 14 q 397 17 371 14 q 447 27 422 19 q 493 48 471 35 q 532 81 515 61 q 558 124 549 100 q 568 174 568 149 q 551 234 568 206 q 509 281 535 263 q 453 312 483 300 q 393 333 424 324 q 332 353 363 343 q 272 374 301 363 q 213 399 242 385 q 162 435 185 414 q 125 487 139 457 q 111 549 111 517 q 120 603 111 576 q 147 653 129 631 q 188 692 164 676 q 238 717 211 708 q 292 730 264 726 q 349 733 321 733 q 403 731 376 733 q 457 719 431 728 q 508 697 483 711 q 549 661 532 682 q 576 614 567 640 q 586 560 586 588 l 586 556 l 560 556 l 560 560 q 551 606 560 583 q 526 647 542 629 q 488 677 510 665 q 444 696 467 689 q 397 706 421 703 q 349 708 372 708 q 299 706 324 708 q 251 694 275 703 q 207 673 228 686 q 171 640 186 660 q 147 597 156 621 q 138 549 138 574 q 154 488 138 517 q 197 441 171 460 q 252 410 222 422 q 312 389 282 399 q 372 369 342 379 q 433 349 403 360 q 491 323 463 338 q 543 287 519 308 q 581 235 567 265 q 594 174 594 206 q 584 118 594 146 q 556 67 574 90 q 513 29 538 44 q 460 5 488 14 q 403 -8 432 -4 q 346 -11 375 -11 z "},"t":{"ha":694,"x_min":97,"x_max":651,"o":"m 461 -11 q 404 -3 432 -11 q 353 21 376 4 q 313 62 329 38 q 288 113 297 86 q 274 169 278 140 q 271 226 271 197 l 271 697 l 97 697 l 97 722 l 271 722 l 271 1021 l 299 1021 l 299 722 l 583 722 l 583 697 l 299 697 l 299 226 q 301 176 299 201 q 312 127 304 151 q 333 81 319 103 q 367 44 347 60 q 411 21 386 28 q 461 14 436 14 q 510 21 486 14 q 554 42 535 28 q 587 78 574 57 q 608 122 600 99 q 621 169 617 144 q 625 218 625 194 l 625 229 l 651 229 l 651 217 q 647 161 651 189 q 633 108 643 133 q 606 58 622 82 q 567 19 590 35 q 517 -4 544 3 q 461 -11 489 -11 z "},"u":{"ha":694,"x_min":100,"x_max":594,"o":"m 343 -11 q 272 -3 307 -11 q 207 26 236 6 q 156 75 178 46 q 122 138 135 104 q 105 206 110 171 q 100 278 100 242 l 100 722 l 126 722 l 126 278 q 131 213 126 246 q 147 150 135 181 q 178 93 158 119 q 224 48 197 67 q 283 22 250 29 q 347 14 315 14 q 412 22 379 14 q 471 48 444 29 q 517 93 497 67 q 548 150 536 119 q 564 213 560 181 q 568 278 568 246 l 568 722 l 594 722 l 594 0 l 568 0 l 568 149 q 535 83 556 114 q 483 29 514 51 q 417 -2 453 7 q 343 -11 381 -11 z "},"v":{"ha":694,"x_min":81,"x_max":614,"o":"m 332 0 l 81 722 l 110 722 l 278 240 q 313 138 294 189 q 347 35 331 86 q 382 138 364 86 q 417 240 400 189 l 585 722 l 614 722 l 363 0 l 332 0 z "},"w":{"ha":694,"x_min":78,"x_max":617,"o":"m 226 0 l 199 0 l 78 722 l 106 722 l 214 53 l 333 519 l 361 519 l 481 53 l 589 722 l 617 722 l 496 0 l 468 0 l 347 476 l 226 0 z "},"x":{"ha":694,"x_min":96,"x_max":599,"o":"m 96 0 l 332 361 l 96 722 l 128 722 l 347 385 l 567 722 l 599 722 l 363 361 l 599 0 l 567 0 l 347 338 l 128 0 l 96 0 z "},"y":{"ha":694,"x_min":81,"x_max":614,"o":"m 254 -299 q 270 -251 263 -275 q 286 -201 278 -226 l 332 -62 l 81 722 l 108 722 l 346 -19 l 586 722 l 614 722 l 282 -299 l 254 -299 z "},"z":{"ha":694,"x_min":100,"x_max":594,"o":"m 100 0 l 100 25 l 565 697 l 100 697 l 100 722 l 594 722 l 594 697 l 129 25 l 594 25 l 594 0 l 100 0 z "},"{":{"ha":694,"x_min":125,"x_max":544,"o":"m 544 -212 q 479 -207 513 -212 q 415 -189 446 -201 q 358 -156 385 -176 q 314 -108 332 -136 q 288 -48 296 -81 q 279 17 279 -15 q 288 78 279 49 q 310 137 297 108 q 333 195 322 165 q 343 256 343 225 q 338 312 343 283 q 318 365 332 340 q 283 408 304 389 q 235 440 261 428 q 181 456 210 451 q 125 460 153 460 l 125 485 q 181 489 153 485 q 235 505 210 493 q 283 536 261 517 q 318 580 304 556 q 338 633 332 604 q 343 689 343 661 q 333 749 343 719 q 310 808 322 779 q 288 866 297 836 q 279 928 279 896 q 288 992 279 960 q 314 1053 296 1025 q 358 1101 332 1081 q 415 1133 385 1121 q 479 1151 446 1146 q 544 1157 513 1157 l 544 1132 q 486 1127 515 1132 q 429 1111 457 1122 q 378 1082 401 1100 q 338 1040 354 1064 q 314 986 321 1015 q 307 928 307 957 q 317 867 307 896 q 339 809 326 838 q 360 750 351 781 q 369 689 369 719 q 361 617 369 653 q 331 551 353 581 q 279 502 310 522 q 214 472 249 482 q 279 442 249 463 q 331 393 310 422 q 361 328 353 364 q 369 256 369 292 q 360 194 369 225 q 339 135 351 164 q 317 78 326 107 q 307 17 307 49 q 314 -42 307 -12 q 338 -95 321 -71 q 378 -137 354 -119 q 429 -167 401 -156 q 486 -183 457 -178 q 544 -187 515 -187 l 544 -212 z "},"|":{"ha":694,"x_min":333,"x_max":361,"o":"m 333 -199 l 333 1143 l 361 1143 l 361 -199 l 333 -199 z "},"}":{"ha":694,"x_min":150,"x_max":569,"o":"m 150 -212 l 150 -187 q 208 -183 179 -187 q 265 -167 238 -178 q 317 -137 293 -156 q 357 -95 340 -119 q 381 -42 374 -71 q 388 17 388 -12 q 378 78 388 49 q 356 135 368 107 q 334 194 343 164 q 325 256 325 225 q 333 328 325 292 q 363 393 342 364 q 415 442 385 422 q 481 472 446 463 q 415 502 446 482 q 363 551 385 522 q 333 617 342 581 q 325 689 325 653 q 334 750 325 719 q 356 809 343 781 q 378 867 368 838 q 388 928 388 896 q 381 986 388 957 q 357 1040 374 1015 q 317 1082 340 1064 q 265 1111 293 1100 q 208 1127 238 1122 q 150 1132 179 1132 l 150 1157 q 215 1151 182 1157 q 279 1133 249 1146 q 336 1101 310 1121 q 381 1053 363 1081 q 407 992 399 1025 q 415 928 415 960 q 406 866 415 896 q 385 808 397 836 q 362 749 372 779 q 351 689 351 719 q 357 633 351 661 q 376 580 363 604 q 412 536 390 556 q 459 505 433 517 q 513 489 485 493 q 569 485 542 485 l 569 460 q 513 456 542 460 q 459 440 485 451 q 412 408 433 428 q 376 365 390 389 q 357 312 363 340 q 351 256 351 283 q 362 195 351 225 q 385 137 372 165 q 406 78 397 108 q 415 17 415 49 q 407 -48 415 -15 q 381 -108 399 -81 q 336 -156 363 -136 q 279 -189 310 -176 q 215 -207 249 -201 q 150 -212 182 -212 z "},"~":{"ha":694,"x_min":88,"x_max":607,"o":"m 113 256 l 88 264 q 96 291 92 278 q 104 316 100 304 q 113 340 108 328 q 121 362 117 351 q 128 383 125 372 q 136 402 132 393 q 144 420 140 411 q 151 437 147 429 q 158 451 154 444 q 165 465 161 458 q 174 481 168 472 q 185 499 179 490 q 197 515 192 508 q 211 528 203 521 q 229 540 219 536 q 249 543 239 543 q 269 539 260 543 q 287 528 279 535 q 301 512 294 521 q 314 494 308 503 q 324 477 319 486 q 334 459 329 468 q 344 440 339 450 q 353 419 349 429 q 362 399 357 410 q 372 378 367 389 q 381 358 376 368 q 391 340 386 349 q 401 322 396 331 q 413 305 407 314 q 428 288 419 296 q 446 281 436 281 q 463 287 456 281 q 474 299 469 293 q 485 313 479 306 q 498 331 492 321 q 506 346 504 342 q 510 356 507 350 q 517 369 514 363 q 524 383 521 376 q 530 399 526 390 q 537 415 533 407 q 544 433 540 424 q 551 453 547 443 q 558 474 554 463 q 566 496 563 485 q 574 519 569 507 q 582 544 578 531 l 607 536 q 599 509 603 522 q 590 484 594 496 q 582 460 586 472 q 574 438 578 449 q 566 417 569 426 q 558 398 563 407 q 551 380 554 389 q 544 363 547 371 q 537 349 540 356 q 530 335 533 342 q 521 319 526 328 q 509 301 515 310 q 497 285 503 292 q 483 272 492 279 q 465 260 475 264 q 446 256 456 256 q 425 260 435 256 q 408 272 415 265 q 393 288 400 279 q 381 306 386 297 q 370 323 375 314 q 360 341 365 332 q 351 360 356 350 q 342 381 346 371 q 333 401 338 390 q 323 422 328 411 q 313 442 318 432 q 303 460 308 451 q 293 478 299 469 q 281 495 288 486 q 267 512 275 504 q 249 519 258 519 q 232 513 239 519 q 220 501 225 507 q 209 487 215 494 q 197 469 203 479 q 189 454 190 458 q 184 444 188 450 q 177 431 181 438 q 171 417 174 424 q 165 401 168 410 q 158 384 161 393 q 151 366 154 375 q 144 347 147 357 q 136 326 140 338 q 128 304 132 315 q 121 281 125 293 q 113 256 117 269 z "},"":{"ha":694,"x_min":0,"x_max":0,"o":""},"":{"ha":694,"x_min":300,"x_max":396,"o":"m 347 638 q 328 640 338 638 q 312 650 318 643 q 303 667 306 657 q 300 686 300 676 q 303 704 300 694 q 312 721 306 714 q 328 731 318 728 q 347 733 338 733 q 367 731 357 733 q 383 721 376 728 q 392 704 389 714 q 396 686 396 694 q 392 667 396 676 q 383 650 389 657 q 367 640 376 643 q 347 638 357 638 m 333 -299 l 333 361 l 361 361 l 361 -299 l 333 -299 z "},"":{"ha":694,"x_min":89,"x_max":597,"o":"m 333 -149 l 333 -11 q 263 -1 299 -10 q 198 28 228 8 q 147 76 168 47 q 112 138 125 104 q 94 206 99 171 q 89 278 89 242 l 89 444 q 94 516 89 481 q 112 585 99 551 q 147 647 125 618 q 198 694 168 675 q 263 723 228 714 q 333 733 299 732 l 333 872 l 361 872 l 361 733 q 453 716 407 732 q 531 667 499 700 q 581 588 564 633 q 597 494 597 542 l 597 493 l 571 493 l 571 494 q 556 577 571 536 q 513 648 542 618 q 443 692 483 678 q 361 708 403 707 l 361 14 q 443 30 403 15 q 513 74 483 44 q 556 145 542 104 q 571 228 571 186 l 571 229 l 597 229 l 597 228 q 581 135 597 181 q 531 56 564 89 q 453 6 499 22 q 361 -11 407 -10 l 361 -149 l 333 -149 m 333 14 l 333 708 q 270 699 301 707 q 213 672 239 690 q 167 628 186 654 q 135 571 147 601 q 119 508 124 540 q 115 444 115 476 l 115 278 q 119 214 115 246 q 135 151 124 182 q 167 94 147 121 q 213 50 186 68 q 270 24 239 32 q 333 14 301 15 z "},"":{"ha":694,"x_min":58,"x_max":594,"o":"m 100 0 l 100 25 q 149 90 129 54 q 181 164 169 125 q 194 243 192 203 q 196 324 196 283 l 196 499 l 58 499 l 58 522 l 196 522 l 196 818 q 200 872 196 844 q 214 924 204 899 q 241 970 224 949 q 281 1006 258 992 q 331 1026 304 1021 q 385 1032 357 1032 q 460 1019 424 1032 q 523 977 497 1006 q 560 911 549 949 q 572 835 572 874 l 572 826 l 546 826 l 546 833 q 536 899 546 867 q 504 958 526 932 q 450 995 482 983 q 385 1007 418 1007 q 338 1001 361 1007 q 294 983 314 996 q 261 951 275 971 q 238 910 247 932 q 226 865 229 888 q 224 818 224 842 l 224 522 l 394 522 l 394 499 l 224 499 l 224 324 q 222 244 224 283 q 209 165 219 204 q 181 91 199 126 q 136 25 163 56 l 594 25 l 594 0 l 100 0 z "},"":{"ha":694,"x_min":90,"x_max":604,"o":"m 110 217 l 90 233 l 167 310 q 126 385 138 343 q 114 472 114 428 q 126 559 114 517 q 167 635 138 601 l 90 711 l 110 728 l 185 653 q 260 694 217 682 q 347 706 303 706 q 434 694 392 706 q 510 653 476 682 l 585 728 l 604 711 l 528 635 q 569 559 557 601 q 581 472 581 517 q 569 385 581 428 q 528 310 557 343 l 604 233 l 585 217 l 510 292 q 435 251 478 263 q 347 239 392 239 q 260 251 303 239 q 185 292 217 263 l 110 217 m 347 264 q 424 274 386 264 q 492 310 463 285 l 490 311 l 508 329 l 510 329 q 544 396 533 358 q 554 472 554 433 q 544 549 554 511 q 510 615 533 586 l 508 615 l 490 633 l 492 635 q 424 670 463 660 q 347 681 386 681 q 270 670 308 681 q 203 635 232 660 l 204 633 l 186 615 l 185 615 q 151 549 161 586 q 140 472 140 511 q 151 396 140 433 q 185 329 161 358 l 186 329 l 204 311 l 203 310 q 270 274 232 285 q 347 264 308 264 z "},"":{"ha":694,"x_min":93,"x_max":601,"o":"m 333 0 l 333 192 l 100 192 l 100 217 l 333 217 l 333 396 l 100 396 l 100 421 l 328 421 l 93 1021 l 122 1021 l 347 444 l 572 1021 l 601 1021 l 367 421 l 594 421 l 594 396 l 361 396 l 361 217 l 594 217 l 594 192 l 361 192 l 361 0 l 333 0 z "},"":{"ha":694,"x_min":333,"x_max":361,"o":"m 333 536 l 333 1143 l 361 1143 l 361 536 l 333 536 m 333 -199 l 333 408 l 361 408 l 361 -199 l 333 -199 z "},"":{"ha":694,"x_min":97,"x_max":597,"o":"m 346 -210 q 281 -204 313 -210 q 219 -185 249 -199 q 167 -148 190 -171 q 128 -97 143 -125 q 105 -37 113 -68 q 97 28 97 -6 l 97 31 l 124 31 l 124 28 q 139 -58 124 -15 q 185 -130 154 -100 q 260 -172 217 -160 q 346 -185 303 -185 q 406 -178 376 -185 q 462 -157 436 -172 q 508 -119 488 -142 q 542 -68 529 -96 q 561 -11 554 -40 q 568 49 568 18 q 560 103 568 76 q 537 152 553 129 q 499 191 521 175 q 451 218 476 207 q 399 236 426 229 q 346 249 372 243 l 344 249 q 285 262 314 254 q 228 283 256 269 q 176 315 200 296 q 134 358 151 333 q 108 413 117 383 q 99 474 99 443 q 108 542 99 508 q 132 608 117 576 q 172 664 147 639 q 226 706 196 689 q 174 737 199 718 q 133 781 150 756 q 108 835 117 806 q 99 894 99 864 q 107 961 99 928 q 130 1025 115 994 q 167 1081 144 1056 q 219 1124 189 1107 q 282 1147 249 1140 q 349 1154 315 1154 q 414 1149 382 1154 q 475 1129 446 1143 q 528 1092 504 1115 q 567 1041 551 1069 q 590 981 582 1013 q 597 917 597 950 l 597 914 l 571 914 l 571 917 q 556 1002 571 960 q 509 1074 540 1044 q 435 1117 478 1104 q 349 1129 392 1129 q 288 1123 318 1129 q 233 1101 258 1117 q 186 1063 207 1086 q 153 1013 165 1040 q 133 956 140 985 q 126 896 126 926 q 134 842 126 868 q 158 792 142 815 q 196 753 174 769 q 243 726 218 738 q 295 708 268 715 q 349 696 322 701 l 350 696 q 410 683 381 690 q 467 662 439 675 q 519 630 494 649 q 560 586 543 611 q 587 531 578 561 q 596 471 596 501 q 587 402 596 436 q 563 337 578 368 q 523 281 547 306 q 468 239 499 256 q 520 208 496 226 q 561 164 544 189 q 587 110 578 139 q 596 50 596 81 q 588 -17 596 17 q 565 -81 579 -50 q 528 -137 550 -111 q 476 -179 506 -162 q 413 -203 446 -196 q 346 -210 379 -210 m 433 251 q 491 287 465 264 q 533 340 517 310 q 560 403 550 369 q 569 469 569 436 q 556 538 569 504 q 517 595 542 571 q 461 635 493 619 q 396 659 429 650 q 328 675 363 668 q 261 693 294 682 q 203 658 229 681 q 161 605 178 635 q 135 542 144 575 q 125 475 125 508 q 139 407 125 440 q 177 349 153 374 q 233 310 201 325 q 299 285 265 294 q 366 269 332 276 q 433 251 400 263 z "},"":{"ha":694,"x_min":172,"x_max":524,"o":"m 486 894 q 472 897 479 894 q 459 903 464 899 q 452 916 454 908 q 450 931 450 924 q 452 945 450 938 q 459 958 454 953 q 472 965 464 963 q 486 968 479 968 q 501 965 493 968 q 513 958 508 963 q 521 945 518 953 q 524 931 524 938 q 521 916 524 924 q 513 903 518 908 q 501 897 508 899 q 486 894 493 894 m 208 894 q 194 897 201 894 q 181 903 186 899 q 174 916 176 908 q 172 931 172 924 q 174 945 172 938 q 181 958 176 953 q 194 965 186 963 q 208 968 201 968 q 223 965 215 968 q 235 958 231 963 q 243 945 240 953 q 246 931 246 938 q 243 916 246 924 q 235 903 240 908 q 223 897 231 899 q 208 894 215 894 z "},"":{"ha":694,"x_min":149,"x_max":538,"o":"m 338 440 q 271 447 304 440 q 209 471 238 453 q 165 519 181 489 q 149 583 149 550 q 158 632 149 608 q 184 672 167 656 q 224 700 201 689 q 269 717 246 711 q 317 726 293 724 q 367 728 342 728 l 511 728 l 511 785 q 500 848 511 817 q 465 900 489 879 q 409 929 440 921 q 346 938 378 938 q 290 933 318 938 q 239 915 263 928 q 199 879 215 903 q 182 828 182 856 l 154 828 q 174 889 156 860 q 219 934 192 918 q 280 956 247 950 q 346 963 313 963 q 395 958 371 963 q 442 944 419 954 q 484 918 465 935 q 515 880 503 901 q 533 834 528 858 q 538 785 538 810 l 538 449 l 511 449 l 511 540 q 482 495 500 515 q 440 463 464 475 q 390 445 417 450 q 338 440 364 440 m 343 465 q 408 474 375 465 q 465 506 440 483 q 500 559 489 528 q 511 624 511 590 l 511 703 l 367 703 q 325 701 346 703 q 283 694 304 699 q 243 682 263 690 q 208 660 224 674 q 183 626 192 646 q 175 586 175 607 q 190 531 175 557 q 231 490 206 506 q 285 470 256 475 q 343 465 314 465 m 157 290 l 157 315 l 538 315 l 538 290 l 157 290 z "},"":{"ha":694,"x_min":63,"x_max":594,"o":"m 569 132 q 522 228 549 181 q 464 318 496 275 q 394 399 432 361 q 310 467 356 436 l 310 478 q 394 546 356 508 q 464 626 432 583 q 522 717 496 669 q 569 813 549 764 l 594 803 q 548 709 574 754 q 492 621 522 664 q 425 540 461 578 q 346 472 389 503 q 425 404 389 442 q 492 324 461 367 q 548 235 522 281 q 594 142 574 190 l 569 132 m 322 132 q 275 228 301 181 q 217 318 249 275 q 147 399 185 361 q 63 467 108 436 l 63 478 q 147 546 108 508 q 217 626 185 583 q 275 717 249 669 q 322 813 301 764 l 347 803 q 301 709 326 754 q 244 621 275 664 q 178 540 214 578 q 99 472 142 503 q 178 404 142 442 q 244 324 214 367 q 301 235 275 281 q 347 142 326 190 l 322 132 z "},"":{"ha":694,"x_min":100,"x_max":594,"o":"m 594 200 l 568 200 l 568 460 l 100 460 l 100 485 l 594 485 l 594 200 z "},"":{"ha":694,"x_min":100,"x_max":594,"o":"m 594 460 l 100 460 l 100 485 l 594 485 l 594 460 z "},"":{"ha":694,"x_min":68,"x_max":626,"o":"m 228 714 l 228 1122 l 361 1122 q 406 1115 383 1122 q 443 1091 428 1107 q 465 1053 458 1075 q 471 1007 471 1031 q 465 965 471 986 q 446 928 460 944 q 413 902 432 911 q 371 893 393 893 l 479 714 l 450 714 l 342 892 l 254 892 l 254 714 l 228 714 m 361 917 q 395 923 378 917 q 424 942 413 929 q 440 973 435 956 q 444 1007 444 990 q 440 1042 444 1025 q 424 1073 435 1060 q 395 1092 413 1086 q 361 1099 378 1099 l 254 1099 l 254 917 l 361 917 m 347 639 q 272 645 310 639 q 201 668 235 651 q 141 712 168 685 q 97 772 114 739 q 74 843 81 806 q 68 918 68 881 q 74 993 68 956 q 97 1064 81 1031 q 141 1124 114 1097 q 201 1168 168 1151 q 272 1191 235 1185 q 347 1197 310 1197 q 422 1191 385 1197 q 493 1168 460 1185 q 553 1124 526 1151 q 597 1064 581 1097 q 620 993 614 1031 q 626 918 626 956 q 620 843 626 881 q 597 772 614 806 q 553 712 581 739 q 493 668 526 685 q 422 645 460 651 q 347 639 385 639 m 347 663 q 415 669 382 663 q 479 690 449 675 q 534 731 510 706 q 574 786 558 756 q 594 850 589 817 q 600 918 600 883 q 594 986 600 953 q 574 1050 589 1019 q 534 1106 558 1081 q 479 1146 510 1131 q 415 1167 449 1161 q 347 1174 382 1174 q 279 1167 313 1174 q 215 1146 246 1161 q 160 1106 185 1131 q 121 1050 136 1081 q 100 986 106 1019 q 94 918 94 953 q 100 850 94 883 q 121 786 106 817 q 160 731 136 756 q 215 690 185 706 q 279 669 246 675 q 347 663 313 663 z "},"":{"ha":694,"x_min":100,"x_max":594,"o":"m 594 918 l 100 918 l 100 943 l 594 943 l 594 918 z "},"":{"ha":694,"x_min":231,"x_max":464,"o":"m 347 800 q 301 807 324 800 q 261 831 278 814 q 238 870 244 847 q 231 917 231 893 q 238 963 231 940 q 261 1003 244 986 q 301 1026 278 1019 q 347 1033 324 1033 q 394 1026 371 1033 q 433 1003 417 1019 q 457 963 450 986 q 464 917 464 940 q 457 870 464 893 q 433 831 450 847 q 394 807 417 814 q 347 800 371 800 m 347 826 q 383 831 365 826 q 414 849 401 836 q 432 881 426 863 q 438 917 438 899 q 432 952 438 935 q 414 983 426 969 q 383 1001 401 996 q 347 1007 365 1007 q 311 1001 329 1007 q 281 983 293 996 q 263 952 268 969 q 257 917 257 935 q 263 881 257 899 q 281 849 268 863 q 311 831 293 836 q 347 826 329 826 z "},"":{"ha":694,"x_min":100,"x_max":594,"o":"m 333 215 l 333 460 l 100 460 l 100 485 l 333 485 l 333 729 l 361 729 l 361 485 l 594 485 l 594 460 l 361 460 l 361 215 l 333 215 m 100 0 l 100 25 l 594 25 l 594 0 l 100 0 z "},"":{"ha":694,"x_min":154,"x_max":542,"o":"m 157 449 l 157 450 q 159 519 157 485 q 172 587 161 554 q 202 649 183 619 q 245 702 221 678 q 299 746 269 726 q 358 782 328 765 q 417 818 388 799 q 468 864 446 838 q 503 924 490 890 q 515 992 515 957 q 504 1055 515 1024 q 469 1108 493 1086 q 413 1138 444 1129 q 349 1146 381 1146 q 288 1139 318 1146 q 233 1114 257 1132 q 195 1067 208 1096 q 182 1008 182 1039 l 182 1003 l 154 1003 l 154 1008 q 170 1078 154 1044 q 214 1133 186 1111 q 277 1163 242 1154 q 349 1171 313 1171 q 423 1161 386 1171 q 488 1126 460 1151 q 529 1065 517 1101 q 542 992 542 1029 q 532 926 542 958 q 503 866 522 893 q 457 818 483 839 q 402 779 431 797 q 345 744 374 761 q 290 707 317 728 q 243 660 264 686 q 208 603 222 633 q 190 540 194 574 q 183 474 185 507 l 538 474 l 538 449 l 157 449 z "},"":{"ha":694,"x_min":147,"x_max":554,"o":"m 350 440 q 276 449 313 440 q 210 479 240 457 q 164 535 181 501 q 147 607 147 569 l 147 610 l 174 610 l 174 607 q 188 546 174 575 q 229 498 203 517 q 287 472 256 479 q 350 465 318 465 q 417 475 383 465 q 476 507 451 485 q 514 562 501 529 q 526 629 526 594 q 519 681 526 656 q 497 730 513 707 q 461 769 482 753 q 415 795 440 786 q 363 807 389 804 q 310 810 336 810 l 310 833 q 358 835 333 833 q 406 846 383 838 q 449 869 429 854 q 483 906 469 885 q 504 950 497 926 q 511 999 511 974 q 499 1059 511 1029 q 465 1109 488 1089 q 411 1138 442 1129 q 350 1146 381 1146 q 290 1139 319 1146 q 238 1113 261 1132 q 201 1066 214 1094 q 189 1007 189 1038 l 189 1003 l 163 1003 l 163 1008 q 177 1076 163 1043 q 219 1132 192 1110 q 281 1163 246 1154 q 350 1171 315 1171 q 422 1161 386 1171 q 484 1128 457 1151 q 524 1069 511 1104 q 538 999 538 1035 q 529 941 538 969 q 503 888 521 913 q 461 847 486 864 q 408 822 436 831 q 468 795 440 814 q 515 750 496 776 q 544 692 533 724 q 554 628 554 661 q 540 551 554 589 q 496 488 525 514 q 428 451 467 463 q 350 440 389 440 z "},"":{"ha":694,"x_min":321,"x_max":525,"o":"m 342 781 l 321 792 l 500 1082 l 525 1068 l 342 781 z "},"":{"ha":694,"x_min":100,"x_max":594,"o":"m 100 -299 l 100 722 l 126 722 l 126 278 q 131 213 126 246 q 147 150 135 181 q 178 93 158 119 q 224 48 197 67 q 283 22 250 29 q 347 14 315 14 q 412 22 379 14 q 471 48 444 29 q 517 93 497 67 q 548 150 536 119 q 564 213 560 181 q 568 278 568 246 l 568 722 l 594 722 l 594 0 l 568 0 l 568 149 q 535 83 556 114 q 483 29 514 51 q 417 -2 453 7 q 343 -11 381 -11 q 275 -3 308 -11 q 213 22 242 4 q 162 67 183 40 q 126 125 140 94 l 126 -299 l 100 -299 z "},"":{"ha":694,"x_min":100,"x_max":594,"o":"m 340 0 l 340 499 q 274 505 307 499 q 211 528 240 511 q 160 572 182 546 q 124 628 138 597 q 105 692 110 658 q 100 760 100 726 q 105 826 100 793 q 124 891 110 860 q 160 948 138 922 q 211 990 182 974 q 274 1014 240 1007 q 340 1021 307 1021 l 594 1021 l 594 0 l 568 0 l 568 996 l 367 996 l 367 0 l 340 0 z "},"":{"ha":694,"x_min":299,"x_max":397,"o":"m 347 424 q 328 426 338 424 q 311 436 318 429 q 301 453 304 443 q 299 472 299 463 q 301 492 299 482 q 311 508 304 501 q 328 519 318 515 q 347 522 338 522 q 367 519 357 522 q 383 508 376 515 q 394 492 390 501 q 397 472 397 482 q 394 453 397 463 q 383 436 390 443 q 367 426 376 429 q 347 424 357 424 z "},"":{"ha":694,"x_min":208,"x_max":497,"o":"m 208 -306 l 208 -281 l 347 -281 q 389 -277 368 -281 q 428 -265 410 -274 q 459 -237 447 -256 q 471 -197 471 -218 q 459 -158 471 -176 q 428 -131 447 -140 q 389 -117 410 -121 q 347 -114 368 -114 l 333 -114 l 333 0 l 361 0 l 361 -90 q 409 -96 385 -90 q 453 -115 433 -101 q 485 -151 474 -129 q 497 -197 497 -174 q 484 -247 497 -224 q 448 -284 471 -271 q 399 -301 425 -297 q 347 -306 374 -306 l 208 -306 z "},"":{"ha":694,"x_min":167,"x_max":390,"o":"m 363 449 l 363 1133 l 181 1019 l 167 1040 l 363 1164 l 390 1164 l 390 449 l 363 449 z "},"":{"ha":694,"x_min":149,"x_max":546,"o":"m 347 440 q 294 445 321 440 q 243 463 267 450 q 201 494 219 475 q 170 538 182 514 q 153 590 158 563 q 149 643 149 617 l 149 760 q 153 813 149 786 q 170 865 158 840 q 201 908 182 889 q 243 940 219 928 q 294 958 267 953 q 347 963 321 963 q 401 958 374 963 q 451 940 428 953 q 494 908 475 928 q 524 865 513 889 q 541 813 536 840 q 546 760 546 786 l 546 643 q 541 590 546 617 q 524 538 536 563 q 494 494 513 514 q 451 463 475 475 q 401 445 428 450 q 347 440 374 440 m 347 465 q 394 469 371 465 q 438 485 417 474 q 475 513 458 496 q 501 552 492 531 q 515 597 511 574 q 519 643 519 619 l 519 760 q 515 806 519 783 q 501 851 511 829 q 475 890 492 872 q 438 918 458 907 q 394 933 417 929 q 347 938 371 938 q 301 933 324 938 q 257 918 278 929 q 219 890 236 907 q 193 851 203 872 q 179 806 183 829 q 175 760 175 783 l 175 643 q 179 597 175 619 q 193 552 183 574 q 219 513 203 531 q 257 485 236 496 q 301 469 278 474 q 347 465 324 465 m 157 290 l 157 315 l 538 315 l 538 290 l 157 290 z "},"":{"ha":694,"x_min":100,"x_max":632,"o":"m 372 132 l 347 142 q 394 235 368 190 q 450 324 419 281 q 517 404 481 367 q 596 472 553 442 q 517 540 553 503 q 450 621 481 578 q 394 709 419 664 q 347 803 368 754 l 372 813 q 419 717 393 764 q 478 626 446 669 q 548 546 510 583 q 632 478 586 508 l 632 467 q 548 399 586 436 q 478 318 510 361 q 419 228 446 275 q 372 132 393 181 m 125 132 l 100 142 q 147 235 121 190 q 203 324 172 281 q 269 404 233 367 q 349 472 306 442 q 269 540 306 503 q 203 621 233 578 q 147 709 172 664 q 100 803 121 754 l 125 813 q 172 717 146 764 q 231 626 199 669 q 301 546 263 583 q 385 478 339 508 l 385 467 q 301 399 339 436 q 231 318 263 361 q 172 228 199 275 q 125 132 146 181 z "},"":{"ha":694,"x_min":100,"x_max":594,"o":"m 594 463 l 100 463 l 100 482 l 594 482 l 594 463 m 358 617 l 358 1151 l 218 1063 l 206 1081 l 358 1178 l 383 1178 l 383 617 l 358 617 m 414 -233 l 414 -74 l 178 -74 l 178 -50 l 413 328 l 440 328 l 207 -50 l 414 -50 l 414 121 l 439 121 l 439 -50 l 511 -50 l 511 -74 l 439 -74 l 439 -233 l 414 -233 z "},"":{"ha":694,"x_min":100,"x_max":594,"o":"m 594 463 l 100 463 l 100 482 l 594 482 l 594 463 m 358 617 l 358 1151 l 218 1063 l 206 1081 l 358 1178 l 383 1178 l 383 617 l 358 617 m 185 -233 l 185 -232 q 187 -176 185 -204 q 198 -122 189 -149 q 223 -72 207 -94 q 260 -30 239 -49 q 306 3 282 -11 q 356 29 331 17 q 406 56 381 42 q 449 90 431 69 q 479 138 468 111 q 490 192 490 164 q 480 243 490 218 q 449 284 469 268 q 401 306 428 300 q 349 311 375 311 q 299 306 324 311 q 254 288 275 301 q 220 253 233 275 q 207 206 207 231 l 207 203 l 183 203 l 183 207 q 197 263 183 236 q 236 306 211 290 q 290 328 261 322 q 349 335 319 335 q 410 327 379 335 q 466 301 442 319 q 502 252 490 282 q 514 192 514 222 q 501 126 514 158 q 463 71 488 94 q 409 31 439 47 q 349 0 379 15 q 292 -35 319 -15 q 246 -83 265 -56 q 218 -144 226 -111 q 210 -211 210 -176 l 511 -211 l 511 -233 l 185 -233 z "},"":{"ha":694,"x_min":100,"x_max":594,"o":"m 594 463 l 100 463 l 100 482 l 594 482 l 594 463 m 350 611 q 289 617 319 611 q 233 639 258 622 q 192 683 208 656 q 176 740 176 710 l 176 743 l 201 743 l 201 742 q 215 692 201 715 q 251 656 229 669 q 298 638 272 643 q 350 633 324 633 q 405 640 378 633 q 453 663 432 646 q 487 705 475 679 q 499 758 499 731 q 483 822 499 792 q 441 869 468 851 q 381 893 414 888 q 315 899 347 899 l 315 921 q 376 925 346 921 q 431 946 406 929 q 472 990 457 963 q 488 1047 488 1018 q 476 1096 488 1072 q 445 1135 465 1119 q 400 1156 425 1150 q 350 1161 375 1161 q 302 1156 326 1161 q 258 1138 278 1151 q 226 1102 238 1125 q 214 1056 214 1079 l 214 1053 l 189 1053 l 189 1057 q 203 1112 189 1085 q 240 1156 217 1139 q 292 1178 264 1172 q 350 1185 321 1185 q 410 1178 381 1185 q 463 1152 439 1171 q 499 1106 486 1133 q 511 1049 511 1078 q 503 1002 511 1025 q 482 961 496 979 q 448 930 468 943 q 406 910 428 917 q 453 889 431 903 q 491 855 475 875 q 515 810 507 835 q 524 758 524 785 q 510 696 524 726 q 472 646 497 665 q 414 619 446 626 q 350 611 382 611 m 414 -233 l 414 -74 l 178 -74 l 178 -50 l 413 328 l 440 328 l 207 -50 l 414 -50 l 414 121 l 439 121 l 439 -50 l 511 -50 l 511 -74 l 439 -74 l 439 -233 l 414 -233 z "},"":{"ha":694,"x_min":100,"x_max":597,"o":"m 347 638 q 328 640 338 638 q 312 650 318 643 q 303 667 306 657 q 300 686 300 676 q 303 704 300 694 q 312 721 306 714 q 328 731 318 728 q 347 733 338 733 q 367 731 357 733 q 383 721 376 728 q 392 704 389 714 q 396 686 396 694 q 392 667 396 676 q 383 650 389 657 q 367 640 376 643 q 347 638 357 638 m 349 -310 q 284 -304 317 -310 q 222 -284 251 -299 q 169 -247 193 -269 q 131 -195 146 -224 q 108 -135 115 -167 q 100 -71 100 -103 q 110 -2 100 -36 q 136 63 119 32 q 176 119 153 93 q 224 171 199 146 q 272 222 249 196 q 310 280 294 249 q 329 346 325 311 q 333 415 333 381 l 361 415 q 357 346 361 381 q 340 279 353 311 q 305 219 326 247 q 259 165 283 190 q 210 115 235 140 q 167 61 186 90 q 138 -2 149 32 q 126 -71 126 -36 q 142 -156 126 -114 q 188 -228 157 -199 q 263 -272 219 -258 q 349 -285 306 -285 q 434 -273 392 -285 q 508 -232 476 -261 q 555 -162 539 -203 q 571 -78 571 -121 l 571 -69 l 597 -69 l 597 -78 q 590 -142 597 -110 q 566 -201 582 -174 q 526 -251 550 -229 q 474 -286 503 -272 q 413 -305 444 -300 q 349 -310 381 -310 z "},"":{"ha":694,"x_min":81,"x_max":614,"o":"m 81 0 l 332 1021 l 363 1021 l 614 0 l 586 0 l 503 336 l 192 336 l 108 0 l 81 0 m 497 361 l 418 681 q 383 827 400 754 q 347 972 365 900 q 312 827 329 900 q 276 681 294 754 l 197 361 l 497 361 m 351 1125 l 214 1318 l 238 1335 l 371 1139 l 351 1125 z "},"":{"ha":694,"x_min":81,"x_max":614,"o":"m 81 0 l 332 1021 l 363 1021 l 614 0 l 586 0 l 503 336 l 192 336 l 108 0 l 81 0 m 497 361 l 418 681 q 383 827 400 754 q 347 972 365 900 q 312 827 329 900 q 276 681 294 754 l 197 361 l 497 361 m 343 1125 l 324 1139 l 457 1335 l 481 1318 l 343 1125 z "},"":{"ha":694,"x_min":81,"x_max":614,"o":"m 81 0 l 332 1021 l 363 1021 l 614 0 l 586 0 l 503 336 l 192 336 l 108 0 l 81 0 m 497 361 l 418 681 q 383 827 400 754 q 347 972 365 900 q 312 827 329 900 q 276 681 294 754 l 197 361 l 497 361 m 213 1128 l 190 1142 l 329 1335 l 365 1335 l 504 1142 l 482 1128 l 347 1310 l 213 1128 z "},"":{"ha":694,"x_min":81,"x_max":614,"o":"m 81 0 l 332 1021 l 363 1021 l 614 0 l 586 0 l 503 336 l 192 336 l 108 0 l 81 0 m 497 361 l 418 681 q 383 827 400 754 q 347 972 365 900 q 312 827 329 900 q 276 681 294 754 l 197 361 l 497 361 m 431 1129 q 415 1132 422 1129 q 400 1139 407 1135 q 388 1149 393 1143 q 377 1160 382 1154 q 368 1173 372 1167 q 360 1185 364 1179 q 351 1199 356 1192 q 343 1214 347 1207 q 335 1228 339 1221 q 326 1242 331 1235 q 318 1257 322 1250 q 310 1270 314 1264 q 301 1283 306 1276 q 290 1294 296 1289 q 278 1305 285 1300 q 264 1310 271 1310 q 251 1306 257 1310 q 242 1299 246 1303 q 233 1290 238 1296 q 224 1278 229 1285 q 216 1269 218 1272 q 211 1261 214 1265 q 206 1252 208 1257 q 201 1242 204 1247 q 195 1232 199 1238 q 189 1221 192 1226 q 183 1209 186 1215 q 177 1196 181 1203 q 171 1181 174 1189 q 165 1166 168 1174 q 158 1150 161 1158 q 151 1133 154 1142 l 126 1142 q 138 1172 132 1158 q 150 1199 144 1186 q 161 1223 156 1211 q 172 1244 167 1235 q 182 1263 176 1254 q 192 1280 188 1272 q 205 1297 197 1288 q 222 1315 213 1307 q 241 1328 231 1322 q 264 1335 251 1335 q 280 1332 272 1335 q 294 1325 288 1329 q 307 1315 301 1321 q 317 1303 313 1310 q 326 1291 322 1297 q 335 1278 331 1285 q 343 1265 339 1272 q 351 1250 347 1257 q 360 1236 356 1243 q 368 1222 364 1229 q 376 1207 372 1214 q 385 1194 381 1200 q 394 1181 389 1188 q 404 1169 399 1175 q 417 1159 410 1164 q 431 1154 424 1154 q 443 1158 438 1154 q 453 1165 449 1161 q 461 1174 457 1168 q 471 1185 465 1179 q 478 1195 476 1192 q 483 1203 481 1199 q 488 1212 486 1207 q 493 1222 490 1217 q 499 1232 496 1226 q 506 1243 503 1238 q 511 1255 508 1249 q 517 1268 514 1261 q 524 1283 521 1275 q 530 1298 526 1290 q 537 1314 533 1306 q 543 1331 540 1322 l 568 1322 q 556 1292 563 1306 q 544 1265 550 1278 q 533 1241 539 1253 q 523 1219 528 1229 q 513 1201 518 1210 q 502 1184 507 1192 q 490 1167 497 1176 q 473 1149 482 1157 q 453 1135 464 1142 q 431 1129 443 1129 z "},"":{"ha":694,"x_min":81,"x_max":614,"o":"m 81 0 l 332 1021 l 363 1021 l 614 0 l 586 0 l 503 336 l 192 336 l 108 0 l 81 0 m 497 361 l 418 681 q 383 827 400 754 q 347 972 365 900 q 312 827 329 900 q 276 681 294 754 l 197 361 l 497 361 m 486 1193 q 472 1195 479 1193 q 459 1202 464 1197 q 452 1215 454 1207 q 450 1229 450 1222 q 452 1244 450 1236 q 459 1256 454 1251 q 472 1264 464 1261 q 486 1267 479 1267 q 501 1264 493 1267 q 513 1256 508 1261 q 521 1244 518 1251 q 524 1229 524 1236 q 521 1215 524 1222 q 513 1202 518 1207 q 501 1195 508 1197 q 486 1193 493 1193 m 208 1193 q 194 1195 201 1193 q 181 1202 186 1197 q 174 1215 176 1207 q 172 1229 172 1222 q 174 1244 172 1236 q 181 1256 176 1251 q 194 1264 186 1261 q 208 1267 201 1267 q 223 1264 215 1267 q 235 1256 231 1261 q 243 1244 240 1251 q 246 1229 246 1236 q 243 1215 246 1222 q 235 1202 240 1207 q 223 1195 231 1197 q 208 1193 215 1193 z "},"":{"ha":694,"x_min":81,"x_max":614,"o":"m 81 0 l 332 1021 l 363 1021 l 614 0 l 586 0 l 503 336 l 192 336 l 108 0 l 81 0 m 497 361 l 418 681 q 383 827 400 754 q 347 972 365 900 q 312 827 329 900 q 276 681 294 754 l 197 361 l 497 361 m 347 1131 q 308 1137 328 1131 q 275 1157 289 1143 q 255 1190 261 1171 q 249 1229 249 1210 q 255 1268 249 1249 q 275 1301 261 1288 q 308 1322 289 1315 q 347 1328 328 1328 q 386 1322 367 1328 q 419 1301 406 1315 q 440 1268 433 1288 q 446 1229 446 1249 q 440 1190 446 1210 q 419 1157 433 1171 q 386 1137 406 1143 q 347 1131 367 1131 m 347 1153 q 378 1158 363 1153 q 403 1173 393 1163 q 419 1199 414 1183 q 424 1229 424 1214 q 419 1260 424 1244 q 403 1285 414 1275 q 378 1301 393 1296 q 347 1306 363 1306 q 317 1301 332 1306 q 291 1285 301 1296 q 276 1260 281 1275 q 271 1229 271 1244 q 276 1199 271 1214 q 291 1173 281 1183 q 317 1158 301 1163 q 347 1153 332 1153 z "},"":{"ha":694,"x_min":81,"x_max":594,"o":"m 81 0 l 326 1021 l 594 1021 l 594 996 l 368 996 l 368 543 l 589 543 l 589 518 l 368 518 l 368 25 l 594 25 l 594 0 l 340 0 l 340 336 l 189 336 l 108 0 l 81 0 m 196 361 l 340 361 l 340 961 q 307 822 324 892 q 272 681 290 751 l 196 361 z "},"":{"ha":694,"x_min":89,"x_max":597,"o":"m 343 -11 q 272 -3 307 -11 q 206 22 236 4 q 151 69 175 40 q 114 131 128 97 q 94 199 100 164 q 89 271 89 235 l 89 750 q 94 822 89 786 q 114 890 100 857 q 151 952 128 924 q 206 999 175 981 q 272 1024 236 1017 q 343 1032 307 1032 q 409 1026 376 1032 q 471 1007 442 1021 q 524 971 500 993 q 565 920 549 949 q 590 860 582 892 q 597 794 597 828 l 597 792 l 571 792 l 571 794 q 554 881 571 839 q 506 952 538 922 q 431 994 474 982 q 343 1007 388 1007 q 279 1000 311 1007 q 219 976 247 993 q 171 933 192 958 q 138 877 150 907 q 120 815 125 847 q 115 750 115 782 l 115 271 q 120 206 115 239 q 138 144 125 174 q 171 88 150 114 q 219 45 192 63 q 279 21 247 28 q 343 14 311 14 q 431 26 388 14 q 506 69 474 39 q 554 140 538 99 q 571 226 571 182 l 571 229 l 597 229 l 597 226 q 590 161 597 193 q 565 101 582 129 q 524 50 549 72 q 471 14 500 28 q 409 -6 442 0 q 343 -11 376 -11 m 208 -306 l 208 -281 l 347 -281 q 389 -277 368 -281 q 428 -265 410 -274 q 459 -237 447 -256 q 471 -197 471 -218 q 459 -158 471 -176 q 428 -131 447 -140 q 389 -117 410 -121 q 347 -114 368 -114 l 333 -114 l 333 14 l 361 14 l 361 -90 q 409 -96 385 -90 q 453 -115 433 -101 q 485 -151 474 -129 q 497 -197 497 -174 q 484 -247 497 -224 q 448 -284 471 -271 q 399 -301 425 -297 q 347 -306 374 -306 l 208 -306 z "},"":{"ha":694,"x_min":111,"x_max":594,"o":"m 111 0 l 111 1021 l 594 1021 l 594 996 l 138 996 l 138 543 l 521 543 l 521 518 l 138 518 l 138 25 l 594 25 l 594 0 l 111 0 m 351 1125 l 214 1318 l 238 1335 l 371 1139 l 351 1125 z "},"":{"ha":694,"x_min":111,"x_max":594,"o":"m 111 0 l 111 1021 l 594 1021 l 594 996 l 138 996 l 138 543 l 521 543 l 521 518 l 138 518 l 138 25 l 594 25 l 594 0 l 111 0 m 343 1125 l 324 1139 l 457 1335 l 481 1318 l 343 1125 z "},"":{"ha":694,"x_min":111,"x_max":594,"o":"m 111 0 l 111 1021 l 594 1021 l 594 996 l 138 996 l 138 543 l 521 543 l 521 518 l 138 518 l 138 25 l 594 25 l 594 0 l 111 0 m 213 1128 l 190 1142 l 329 1335 l 365 1335 l 504 1142 l 482 1128 l 347 1310 l 213 1128 z "},"":{"ha":694,"x_min":111,"x_max":594,"o":"m 111 0 l 111 1021 l 594 1021 l 594 996 l 138 996 l 138 543 l 521 543 l 521 518 l 138 518 l 138 25 l 594 25 l 594 0 l 111 0 m 486 1193 q 472 1195 479 1193 q 459 1202 464 1197 q 452 1215 454 1207 q 450 1229 450 1222 q 452 1244 450 1236 q 459 1256 454 1251 q 472 1264 464 1261 q 486 1267 479 1267 q 501 1264 493 1267 q 513 1256 508 1261 q 521 1244 518 1251 q 524 1229 524 1236 q 521 1215 524 1222 q 513 1202 518 1207 q 501 1195 508 1197 q 486 1193 493 1193 m 208 1193 q 194 1195 201 1193 q 181 1202 186 1197 q 174 1215 176 1207 q 172 1229 172 1222 q 174 1244 172 1236 q 181 1256 176 1251 q 194 1264 186 1261 q 208 1267 201 1267 q 223 1264 215 1267 q 235 1256 231 1261 q 243 1244 240 1251 q 246 1229 246 1236 q 243 1215 246 1222 q 235 1202 240 1207 q 223 1195 231 1197 q 208 1193 215 1193 z "},"":{"ha":694,"x_min":104,"x_max":590,"o":"m 104 0 l 104 25 l 333 25 l 333 996 l 104 996 l 104 1021 l 590 1021 l 590 996 l 361 996 l 361 25 l 590 25 l 590 0 l 104 0 m 351 1125 l 214 1318 l 238 1335 l 371 1139 l 351 1125 z "},"":{"ha":694,"x_min":104,"x_max":590,"o":"m 104 0 l 104 25 l 333 25 l 333 996 l 104 996 l 104 1021 l 590 1021 l 590 996 l 361 996 l 361 25 l 590 25 l 590 0 l 104 0 m 343 1125 l 324 1139 l 457 1335 l 481 1318 l 343 1125 z "},"":{"ha":694,"x_min":104,"x_max":590,"o":"m 104 0 l 104 25 l 333 25 l 333 996 l 104 996 l 104 1021 l 590 1021 l 590 996 l 361 996 l 361 25 l 590 25 l 590 0 l 104 0 m 213 1128 l 190 1142 l 329 1335 l 365 1335 l 504 1142 l 482 1128 l 347 1310 l 213 1128 z "},"":{"ha":694,"x_min":104,"x_max":590,"o":"m 104 0 l 104 25 l 333 25 l 333 996 l 104 996 l 104 1021 l 590 1021 l 590 996 l 361 996 l 361 25 l 590 25 l 590 0 l 104 0 m 486 1193 q 472 1195 479 1193 q 459 1202 464 1197 q 452 1215 454 1207 q 450 1229 450 1222 q 452 1244 450 1236 q 459 1256 454 1251 q 472 1264 464 1261 q 486 1267 479 1267 q 501 1264 493 1267 q 513 1256 508 1261 q 521 1244 518 1251 q 524 1229 524 1236 q 521 1215 524 1222 q 513 1202 518 1207 q 501 1195 508 1197 q 486 1193 493 1193 m 208 1193 q 194 1195 201 1193 q 181 1202 186 1197 q 174 1215 176 1207 q 172 1229 172 1222 q 174 1244 172 1236 q 181 1256 176 1251 q 194 1264 186 1261 q 208 1267 201 1267 q 223 1264 215 1267 q 235 1256 231 1261 q 243 1244 240 1251 q 246 1229 246 1236 q 243 1215 246 1222 q 235 1202 240 1207 q 223 1195 231 1197 q 208 1193 215 1193 z "},"":{"ha":694,"x_min":17,"x_max":606,"o":"m 297 0 l 100 0 l 100 499 l 17 499 l 17 522 l 100 522 l 100 1021 l 297 1021 q 378 1014 338 1021 q 455 990 418 1007 q 522 944 492 972 q 572 881 553 917 q 598 804 590 844 q 606 724 606 764 l 606 299 q 598 217 606 257 q 572 140 590 176 q 522 76 553 104 q 455 31 492 49 q 378 7 418 14 q 297 0 338 0 m 126 25 l 296 25 q 371 31 333 25 q 442 53 408 38 q 503 95 475 69 q 548 154 531 121 q 572 224 565 188 q 579 299 579 261 l 579 724 q 572 797 579 760 q 548 867 565 833 q 503 926 531 900 q 442 967 475 951 q 371 990 408 983 q 296 996 333 996 l 126 996 l 126 522 l 300 522 l 300 499 l 126 499 l 126 25 z "},"":{"ha":694,"x_min":100,"x_max":594,"o":"m 100 0 l 100 1021 l 139 1021 l 568 38 l 568 1021 l 594 1021 l 594 0 l 556 0 l 126 983 l 126 0 l 100 0 m 431 1129 q 415 1132 422 1129 q 400 1139 407 1135 q 388 1149 393 1143 q 377 1160 382 1154 q 368 1173 372 1167 q 360 1185 364 1179 q 351 1199 356 1192 q 343 1214 347 1207 q 335 1228 339 1221 q 326 1242 331 1235 q 318 1257 322 1250 q 310 1270 314 1264 q 301 1283 306 1276 q 290 1294 296 1289 q 278 1305 285 1300 q 264 1310 271 1310 q 251 1306 257 1310 q 242 1299 246 1303 q 233 1290 238 1296 q 224 1278 229 1285 q 216 1269 218 1272 q 211 1261 214 1265 q 206 1252 208 1257 q 201 1242 204 1247 q 195 1232 199 1238 q 189 1221 192 1226 q 183 1209 186 1215 q 177 1196 181 1203 q 171 1181 174 1189 q 165 1166 168 1174 q 158 1150 161 1158 q 151 1133 154 1142 l 126 1142 q 138 1172 132 1158 q 150 1199 144 1186 q 161 1223 156 1211 q 172 1244 167 1235 q 182 1263 176 1254 q 192 1280 188 1272 q 205 1297 197 1288 q 222 1315 213 1307 q 241 1328 231 1322 q 264 1335 251 1335 q 280 1332 272 1335 q 294 1325 288 1329 q 307 1315 301 1321 q 317 1303 313 1310 q 326 1291 322 1297 q 335 1278 331 1285 q 343 1265 339 1272 q 351 1250 347 1257 q 360 1236 356 1243 q 368 1222 364 1229 q 376 1207 372 1214 q 385 1194 381 1200 q 394 1181 389 1188 q 404 1169 399 1175 q 417 1159 410 1164 q 431 1154 424 1154 q 443 1158 438 1154 q 453 1165 449 1161 q 461 1174 457 1168 q 471 1185 465 1179 q 478 1195 476 1192 q 483 1203 481 1199 q 488 1212 486 1207 q 493 1222 490 1217 q 499 1232 496 1226 q 506 1243 503 1238 q 511 1255 508 1249 q 517 1268 514 1261 q 524 1283 521 1275 q 530 1298 526 1290 q 537 1314 533 1306 q 543 1331 540 1322 l 568 1322 q 556 1292 563 1306 q 544 1265 550 1278 q 533 1241 539 1253 q 523 1219 528 1229 q 513 1201 518 1210 q 502 1184 507 1192 q 490 1167 497 1176 q 473 1149 482 1157 q 453 1135 464 1142 q 431 1129 443 1129 z "},"":{"ha":694,"x_min":89,"x_max":606,"o":"m 347 -11 q 275 -3 311 -11 q 208 22 239 4 q 153 68 176 40 q 115 129 129 96 q 94 199 100 163 q 89 271 89 235 l 89 750 q 94 822 89 786 q 115 892 100 858 q 153 953 129 925 q 208 999 176 981 q 275 1024 239 1017 q 347 1032 311 1032 q 419 1024 383 1032 q 487 999 456 1017 q 542 953 518 981 q 580 892 565 925 q 600 822 594 858 q 606 750 606 786 l 606 271 q 600 199 606 235 q 580 129 594 163 q 542 68 565 96 q 487 22 518 40 q 419 -3 456 4 q 347 -11 383 -11 m 347 14 q 413 21 381 14 q 473 44 444 28 q 522 87 501 61 q 556 142 543 113 q 574 205 569 172 q 579 271 579 238 l 579 750 q 574 816 579 783 q 556 878 569 849 q 522 934 543 908 q 473 976 501 960 q 413 1000 444 993 q 347 1007 381 1007 q 282 1000 314 1007 q 222 976 250 993 q 172 934 193 960 q 138 878 151 908 q 120 816 125 849 q 115 750 115 783 l 115 271 q 120 205 115 238 q 138 142 125 172 q 172 87 151 113 q 222 44 193 61 q 282 21 250 28 q 347 14 314 14 m 351 1125 l 214 1318 l 238 1335 l 371 1139 l 351 1125 z "},"":{"ha":694,"x_min":89,"x_max":606,"o":"m 347 -11 q 275 -3 311 -11 q 208 22 239 4 q 153 68 176 40 q 115 129 129 96 q 94 199 100 163 q 89 271 89 235 l 89 750 q 94 822 89 786 q 115 892 100 858 q 153 953 129 925 q 208 999 176 981 q 275 1024 239 1017 q 347 1032 311 1032 q 419 1024 383 1032 q 487 999 456 1017 q 542 953 518 981 q 580 892 565 925 q 600 822 594 858 q 606 750 606 786 l 606 271 q 600 199 606 235 q 580 129 594 163 q 542 68 565 96 q 487 22 518 40 q 419 -3 456 4 q 347 -11 383 -11 m 347 14 q 413 21 381 14 q 473 44 444 28 q 522 87 501 61 q 556 142 543 113 q 574 205 569 172 q 579 271 579 238 l 579 750 q 574 816 579 783 q 556 878 569 849 q 522 934 543 908 q 473 976 501 960 q 413 1000 444 993 q 347 1007 381 1007 q 282 1000 314 1007 q 222 976 250 993 q 172 934 193 960 q 138 878 151 908 q 120 816 125 849 q 115 750 115 783 l 115 271 q 120 205 115 238 q 138 142 125 172 q 172 87 151 113 q 222 44 193 61 q 282 21 250 28 q 347 14 314 14 m 343 1125 l 324 1139 l 457 1335 l 481 1318 l 343 1125 z "},"":{"ha":694,"x_min":89,"x_max":606,"o":"m 347 -11 q 275 -3 311 -11 q 208 22 239 4 q 153 68 176 40 q 115 129 129 96 q 94 199 100 163 q 89 271 89 235 l 89 750 q 94 822 89 786 q 115 892 100 858 q 153 953 129 925 q 208 999 176 981 q 275 1024 239 1017 q 347 1032 311 1032 q 419 1024 383 1032 q 487 999 456 1017 q 542 953 518 981 q 580 892 565 925 q 600 822 594 858 q 606 750 606 786 l 606 271 q 600 199 606 235 q 580 129 594 163 q 542 68 565 96 q 487 22 518 40 q 419 -3 456 4 q 347 -11 383 -11 m 347 14 q 413 21 381 14 q 473 44 444 28 q 522 87 501 61 q 556 142 543 113 q 574 205 569 172 q 579 271 579 238 l 579 750 q 574 816 579 783 q 556 878 569 849 q 522 934 543 908 q 473 976 501 960 q 413 1000 444 993 q 347 1007 381 1007 q 282 1000 314 1007 q 222 976 250 993 q 172 934 193 960 q 138 878 151 908 q 120 816 125 849 q 115 750 115 783 l 115 271 q 120 205 115 238 q 138 142 125 172 q 172 87 151 113 q 222 44 193 61 q 282 21 250 28 q 347 14 314 14 m 213 1128 l 190 1142 l 329 1335 l 365 1335 l 504 1142 l 482 1128 l 347 1310 l 213 1128 z "},"":{"ha":694,"x_min":89,"x_max":606,"o":"m 347 -11 q 275 -3 311 -11 q 208 22 239 4 q 153 68 176 40 q 115 129 129 96 q 94 199 100 163 q 89 271 89 235 l 89 750 q 94 822 89 786 q 115 892 100 858 q 153 953 129 925 q 208 999 176 981 q 275 1024 239 1017 q 347 1032 311 1032 q 419 1024 383 1032 q 487 999 456 1017 q 542 953 518 981 q 580 892 565 925 q 600 822 594 858 q 606 750 606 786 l 606 271 q 600 199 606 235 q 580 129 594 163 q 542 68 565 96 q 487 22 518 40 q 419 -3 456 4 q 347 -11 383 -11 m 347 14 q 413 21 381 14 q 473 44 444 28 q 522 87 501 61 q 556 142 543 113 q 574 205 569 172 q 579 271 579 238 l 579 750 q 574 816 579 783 q 556 878 569 849 q 522 934 543 908 q 473 976 501 960 q 413 1000 444 993 q 347 1007 381 1007 q 282 1000 314 1007 q 222 976 250 993 q 172 934 193 960 q 138 878 151 908 q 120 816 125 849 q 115 750 115 783 l 115 271 q 120 205 115 238 q 138 142 125 172 q 172 87 151 113 q 222 44 193 61 q 282 21 250 28 q 347 14 314 14 m 431 1129 q 415 1132 422 1129 q 400 1139 407 1135 q 388 1149 393 1143 q 377 1160 382 1154 q 368 1173 372 1167 q 360 1185 364 1179 q 351 1199 356 1192 q 343 1214 347 1207 q 335 1228 339 1221 q 326 1242 331 1235 q 318 1257 322 1250 q 310 1270 314 1264 q 301 1283 306 1276 q 290 1294 296 1289 q 278 1305 285 1300 q 264 1310 271 1310 q 251 1306 257 1310 q 242 1299 246 1303 q 233 1290 238 1296 q 224 1278 229 1285 q 216 1269 218 1272 q 211 1261 214 1265 q 206 1252 208 1257 q 201 1242 204 1247 q 195 1232 199 1238 q 189 1221 192 1226 q 183 1209 186 1215 q 177 1196 181 1203 q 171 1181 174 1189 q 165 1166 168 1174 q 158 1150 161 1158 q 151 1133 154 1142 l 126 1142 q 138 1172 132 1158 q 150 1199 144 1186 q 161 1223 156 1211 q 172 1244 167 1235 q 182 1263 176 1254 q 192 1280 188 1272 q 205 1297 197 1288 q 222 1315 213 1307 q 241 1328 231 1322 q 264 1335 251 1335 q 280 1332 272 1335 q 294 1325 288 1329 q 307 1315 301 1321 q 317 1303 313 1310 q 326 1291 322 1297 q 335 1278 331 1285 q 343 1265 339 1272 q 351 1250 347 1257 q 360 1236 356 1243 q 368 1222 364 1229 q 376 1207 372 1214 q 385 1194 381 1200 q 394 1181 389 1188 q 404 1169 399 1175 q 417 1159 410 1164 q 431 1154 424 1154 q 443 1158 438 1154 q 453 1165 449 1161 q 461 1174 457 1168 q 471 1185 465 1179 q 478 1195 476 1192 q 483 1203 481 1199 q 488 1212 486 1207 q 493 1222 490 1217 q 499 1232 496 1226 q 506 1243 503 1238 q 511 1255 508 1249 q 517 1268 514 1261 q 524 1283 521 1275 q 530 1298 526 1290 q 537 1314 533 1306 q 543 1331 540 1322 l 568 1322 q 556 1292 563 1306 q 544 1265 550 1278 q 533 1241 539 1253 q 523 1219 528 1229 q 513 1201 518 1210 q 502 1184 507 1192 q 490 1167 497 1176 q 473 1149 482 1157 q 453 1135 464 1142 q 431 1129 443 1129 z "},"":{"ha":694,"x_min":89,"x_max":606,"o":"m 347 -11 q 275 -3 311 -11 q 208 22 239 4 q 153 68 176 40 q 115 129 129 96 q 94 199 100 163 q 89 271 89 235 l 89 750 q 94 822 89 786 q 115 892 100 858 q 153 953 129 925 q 208 999 176 981 q 275 1024 239 1017 q 347 1032 311 1032 q 419 1024 383 1032 q 487 999 456 1017 q 542 953 518 981 q 580 892 565 925 q 600 822 594 858 q 606 750 606 786 l 606 271 q 600 199 606 235 q 580 129 594 163 q 542 68 565 96 q 487 22 518 40 q 419 -3 456 4 q 347 -11 383 -11 m 347 14 q 413 21 381 14 q 473 44 444 28 q 522 87 501 61 q 556 142 543 113 q 574 205 569 172 q 579 271 579 238 l 579 750 q 574 816 579 783 q 556 878 569 849 q 522 934 543 908 q 473 976 501 960 q 413 1000 444 993 q 347 1007 381 1007 q 282 1000 314 1007 q 222 976 250 993 q 172 934 193 960 q 138 878 151 908 q 120 816 125 849 q 115 750 115 783 l 115 271 q 120 205 115 238 q 138 142 125 172 q 172 87 151 113 q 222 44 193 61 q 282 21 250 28 q 347 14 314 14 m 486 1193 q 472 1195 479 1193 q 459 1202 464 1197 q 452 1215 454 1207 q 450 1229 450 1222 q 452 1244 450 1236 q 459 1256 454 1251 q 472 1264 464 1261 q 486 1267 479 1267 q 501 1264 493 1267 q 513 1256 508 1261 q 521 1244 518 1251 q 524 1229 524 1236 q 521 1215 524 1222 q 513 1202 518 1207 q 501 1195 508 1197 q 486 1193 493 1193 m 208 1193 q 194 1195 201 1193 q 181 1202 186 1197 q 174 1215 176 1207 q 172 1229 172 1222 q 174 1244 172 1236 q 181 1256 176 1251 q 194 1264 186 1261 q 208 1267 201 1267 q 223 1264 215 1267 q 235 1256 231 1261 q 243 1244 240 1251 q 246 1229 246 1236 q 243 1215 246 1222 q 235 1202 240 1207 q 223 1195 231 1197 q 208 1193 215 1193 z "},"":{"ha":694,"x_min":65,"x_max":629,"o":"m 85 192 l 65 208 l 329 472 l 65 736 l 85 753 l 347 490 l 610 753 l 629 736 l 365 472 l 629 208 l 610 192 l 347 454 l 85 192 z "},"":{"ha":694,"x_min":89,"x_max":606,"o":"m 114 -56 l 89 -46 l 143 79 q 117 122 128 99 q 100 170 107 146 q 91 220 93 194 q 89 271 89 246 l 89 750 q 94 822 89 786 q 115 892 100 858 q 153 953 129 925 q 208 999 176 981 q 275 1024 239 1017 q 347 1032 311 1032 q 397 1028 372 1032 q 447 1017 422 1025 q 492 996 471 1010 q 532 964 514 982 l 581 1076 l 606 1067 l 551 942 q 577 899 567 922 q 594 851 588 875 q 603 801 601 826 q 606 750 606 775 l 606 271 q 600 199 606 235 q 580 129 594 163 q 542 68 565 96 q 487 22 518 40 q 419 -3 456 4 q 347 -11 383 -11 q 297 -8 322 -11 q 248 3 272 -4 q 202 25 224 11 q 163 57 181 39 l 114 -56 m 157 108 l 519 938 q 484 969 504 956 q 442 992 464 983 q 395 1003 419 1000 q 347 1007 371 1007 q 282 1000 314 1007 q 222 976 250 993 q 172 934 193 960 q 138 878 151 908 q 120 816 125 849 q 115 750 115 783 l 115 271 q 117 228 115 250 q 124 186 119 207 q 137 146 129 165 q 157 108 144 126 m 347 14 q 413 21 381 14 q 473 44 444 28 q 522 87 501 61 q 556 142 543 113 q 574 205 569 172 q 579 271 579 238 l 579 750 q 577 792 579 771 q 570 835 575 814 q 558 875 565 856 q 538 913 550 894 l 175 83 q 210 51 190 65 q 253 29 231 38 q 299 17 275 21 q 347 14 324 14 z "},"":{"ha":694,"x_min":100,"x_max":594,"o":"m 347 -11 q 276 -3 311 -11 q 212 23 242 4 q 159 70 182 42 q 123 132 136 99 q 105 200 110 165 q 100 271 100 235 l 100 1021 l 126 1021 l 126 271 q 131 207 126 239 q 147 145 136 175 q 178 90 158 115 q 225 46 199 64 q 283 21 251 28 q 347 14 315 14 q 411 21 379 14 q 469 46 443 28 q 516 90 496 64 q 547 145 536 115 q 563 207 558 175 q 568 271 568 239 l 568 1021 l 594 1021 l 594 271 q 590 200 594 235 q 572 132 585 165 q 535 70 558 99 q 483 23 513 42 q 418 -3 453 4 q 347 -11 383 -11 m 351 1125 l 214 1318 l 238 1335 l 371 1139 l 351 1125 z "},"":{"ha":694,"x_min":100,"x_max":594,"o":"m 347 -11 q 276 -3 311 -11 q 212 23 242 4 q 159 70 182 42 q 123 132 136 99 q 105 200 110 165 q 100 271 100 235 l 100 1021 l 126 1021 l 126 271 q 131 207 126 239 q 147 145 136 175 q 178 90 158 115 q 225 46 199 64 q 283 21 251 28 q 347 14 315 14 q 411 21 379 14 q 469 46 443 28 q 516 90 496 64 q 547 145 536 115 q 563 207 558 175 q 568 271 568 239 l 568 1021 l 594 1021 l 594 271 q 590 200 594 235 q 572 132 585 165 q 535 70 558 99 q 483 23 513 42 q 418 -3 453 4 q 347 -11 383 -11 m 343 1125 l 324 1139 l 457 1335 l 481 1318 l 343 1125 z "},"":{"ha":694,"x_min":100,"x_max":594,"o":"m 347 -11 q 276 -3 311 -11 q 212 23 242 4 q 159 70 182 42 q 123 132 136 99 q 105 200 110 165 q 100 271 100 235 l 100 1021 l 126 1021 l 126 271 q 131 207 126 239 q 147 145 136 175 q 178 90 158 115 q 225 46 199 64 q 283 21 251 28 q 347 14 315 14 q 411 21 379 14 q 469 46 443 28 q 516 90 496 64 q 547 145 536 115 q 563 207 558 175 q 568 271 568 239 l 568 1021 l 594 1021 l 594 271 q 590 200 594 235 q 572 132 585 165 q 535 70 558 99 q 483 23 513 42 q 418 -3 453 4 q 347 -11 383 -11 m 213 1128 l 190 1142 l 329 1335 l 365 1335 l 504 1142 l 482 1128 l 347 1310 l 213 1128 z "},"":{"ha":694,"x_min":100,"x_max":594,"o":"m 347 -11 q 276 -3 311 -11 q 212 23 242 4 q 159 70 182 42 q 123 132 136 99 q 105 200 110 165 q 100 271 100 235 l 100 1021 l 126 1021 l 126 271 q 131 207 126 239 q 147 145 136 175 q 178 90 158 115 q 225 46 199 64 q 283 21 251 28 q 347 14 315 14 q 411 21 379 14 q 469 46 443 28 q 516 90 496 64 q 547 145 536 115 q 563 207 558 175 q 568 271 568 239 l 568 1021 l 594 1021 l 594 271 q 590 200 594 235 q 572 132 585 165 q 535 70 558 99 q 483 23 513 42 q 418 -3 453 4 q 347 -11 383 -11 m 486 1193 q 472 1195 479 1193 q 459 1202 464 1197 q 452 1215 454 1207 q 450 1229 450 1222 q 452 1244 450 1236 q 459 1256 454 1251 q 472 1264 464 1261 q 486 1267 479 1267 q 501 1264 493 1267 q 513 1256 508 1261 q 521 1244 518 1251 q 524 1229 524 1236 q 521 1215 524 1222 q 513 1202 518 1207 q 501 1195 508 1197 q 486 1193 493 1193 m 208 1193 q 194 1195 201 1193 q 181 1202 186 1197 q 174 1215 176 1207 q 172 1229 172 1222 q 174 1244 172 1236 q 181 1256 176 1251 q 194 1264 186 1261 q 208 1267 201 1267 q 223 1264 215 1267 q 235 1256 231 1261 q 243 1244 240 1251 q 246 1229 246 1236 q 243 1215 246 1222 q 235 1202 240 1207 q 223 1195 231 1197 q 208 1193 215 1193 z "},"":{"ha":694,"x_min":93,"x_max":601,"o":"m 333 0 l 333 407 l 93 1021 l 122 1021 l 347 444 l 572 1021 l 601 1021 l 361 407 l 361 0 l 333 0 m 343 1125 l 324 1139 l 457 1335 l 481 1318 l 343 1125 z "},"":{"ha":694,"x_min":125,"x_max":606,"o":"m 125 0 l 125 1021 l 151 1021 l 151 826 l 278 826 q 364 819 321 826 q 446 794 407 813 q 517 746 485 776 q 569 677 549 715 q 598 597 590 639 q 606 511 606 554 q 598 424 606 467 q 569 344 590 382 q 517 275 549 306 q 446 226 485 244 q 364 201 407 208 q 278 194 321 194 l 151 194 l 151 0 l 125 0 m 151 219 l 278 219 q 357 226 318 219 q 432 249 396 232 q 497 294 468 267 q 545 357 526 322 q 572 431 564 392 q 579 511 579 471 q 572 590 579 550 q 545 664 564 629 q 497 726 526 699 q 432 772 468 754 q 357 795 396 789 q 278 801 318 801 l 151 801 l 151 219 z "},"":{"ha":694,"x_min":100,"x_max":606,"o":"m 100 0 l 100 722 q 104 795 100 758 q 119 867 108 832 q 151 934 131 903 q 199 988 171 965 q 264 1022 228 1011 q 336 1032 300 1032 q 402 1025 369 1032 q 463 1001 435 1018 q 512 958 490 983 q 547 903 533 933 q 566 840 560 872 q 572 775 572 808 q 563 695 572 735 q 532 620 553 656 q 481 558 511 585 q 413 515 450 531 q 493 483 454 506 q 558 426 532 461 q 594 349 583 392 q 606 261 606 306 q 599 189 606 225 q 574 122 592 153 q 528 66 556 90 q 468 26 501 42 q 399 6 435 11 q 326 0 363 0 l 249 0 l 249 25 l 326 25 q 392 30 360 25 q 455 49 425 35 q 509 85 485 63 q 549 135 533 107 q 572 197 565 164 q 579 261 579 229 q 572 327 579 294 q 549 388 565 360 q 509 439 533 417 q 455 474 485 461 q 392 492 425 488 q 326 497 360 497 l 326 524 q 387 533 357 524 q 442 560 417 543 q 488 602 468 578 q 520 655 507 626 q 540 713 533 683 q 546 775 546 743 q 540 833 546 804 q 523 890 535 863 q 492 940 511 917 q 449 978 474 963 q 394 1001 424 994 q 336 1007 365 1007 q 271 997 303 1007 q 213 966 239 988 q 171 915 188 944 q 144 854 154 886 q 130 789 133 822 q 126 722 126 756 l 126 0 l 100 0 z "},"":{"ha":694,"x_min":89,"x_max":594,"o":"m 336 -11 q 276 -8 306 -11 q 217 6 246 -4 q 164 35 189 17 q 122 77 139 53 q 97 131 104 101 q 89 192 89 161 q 99 256 89 225 q 131 313 108 288 q 182 353 153 338 q 242 378 211 369 q 306 390 274 388 q 372 393 339 393 l 568 393 l 568 479 q 563 539 568 508 q 544 597 557 569 q 510 647 532 624 q 462 683 489 669 q 405 703 435 697 q 344 708 375 708 q 294 706 319 708 q 243 694 268 703 q 196 672 218 686 q 158 637 174 657 q 133 592 142 617 q 124 542 125 568 l 97 542 q 107 599 97 571 q 135 651 117 628 q 177 690 153 674 q 229 717 201 707 q 286 730 257 726 q 344 733 315 733 q 413 727 379 733 q 476 706 446 721 q 530 665 506 690 q 569 610 554 640 q 589 546 583 579 q 594 479 594 513 l 594 0 l 568 0 l 568 135 q 531 71 554 100 q 477 23 508 42 q 410 -3 446 4 q 336 -11 374 -11 m 340 14 q 403 19 372 14 q 460 40 433 25 q 509 78 488 56 q 544 129 531 101 q 563 188 557 157 q 568 250 568 219 l 568 368 l 372 368 q 314 366 343 368 q 256 356 285 364 q 201 335 228 349 q 155 300 175 321 q 125 251 135 279 q 115 193 115 222 q 123 140 115 167 q 147 92 131 114 q 185 54 163 69 q 234 30 208 39 q 287 17 260 21 q 340 14 314 14 m 351 826 l 214 1019 l 238 1036 l 371 840 l 351 826 z "},"":{"ha":694,"x_min":89,"x_max":594,"o":"m 336 -11 q 276 -8 306 -11 q 217 6 246 -4 q 164 35 189 17 q 122 77 139 53 q 97 131 104 101 q 89 192 89 161 q 99 256 89 225 q 131 313 108 288 q 182 353 153 338 q 242 378 211 369 q 306 390 274 388 q 372 393 339 393 l 568 393 l 568 479 q 563 539 568 508 q 544 597 557 569 q 510 647 532 624 q 462 683 489 669 q 405 703 435 697 q 344 708 375 708 q 294 706 319 708 q 243 694 268 703 q 196 672 218 686 q 158 637 174 657 q 133 592 142 617 q 124 542 125 568 l 97 542 q 107 599 97 571 q 135 651 117 628 q 177 690 153 674 q 229 717 201 707 q 286 730 257 726 q 344 733 315 733 q 413 727 379 733 q 476 706 446 721 q 530 665 506 690 q 569 610 554 640 q 589 546 583 579 q 594 479 594 513 l 594 0 l 568 0 l 568 135 q 531 71 554 100 q 477 23 508 42 q 410 -3 446 4 q 336 -11 374 -11 m 340 14 q 403 19 372 14 q 460 40 433 25 q 509 78 488 56 q 544 129 531 101 q 563 188 557 157 q 568 250 568 219 l 568 368 l 372 368 q 314 366 343 368 q 256 356 285 364 q 201 335 228 349 q 155 300 175 321 q 125 251 135 279 q 115 193 115 222 q 123 140 115 167 q 147 92 131 114 q 185 54 163 69 q 234 30 208 39 q 287 17 260 21 q 340 14 314 14 m 343 826 l 324 840 l 457 1036 l 481 1019 l 343 826 z "},"":{"ha":694,"x_min":89,"x_max":594,"o":"m 336 -11 q 276 -8 306 -11 q 217 6 246 -4 q 164 35 189 17 q 122 77 139 53 q 97 131 104 101 q 89 192 89 161 q 99 256 89 225 q 131 313 108 288 q 182 353 153 338 q 242 378 211 369 q 306 390 274 388 q 372 393 339 393 l 568 393 l 568 479 q 563 539 568 508 q 544 597 557 569 q 510 647 532 624 q 462 683 489 669 q 405 703 435 697 q 344 708 375 708 q 294 706 319 708 q 243 694 268 703 q 196 672 218 686 q 158 637 174 657 q 133 592 142 617 q 124 542 125 568 l 97 542 q 107 599 97 571 q 135 651 117 628 q 177 690 153 674 q 229 717 201 707 q 286 730 257 726 q 344 733 315 733 q 413 727 379 733 q 476 706 446 721 q 530 665 506 690 q 569 610 554 640 q 589 546 583 579 q 594 479 594 513 l 594 0 l 568 0 l 568 135 q 531 71 554 100 q 477 23 508 42 q 410 -3 446 4 q 336 -11 374 -11 m 340 14 q 403 19 372 14 q 460 40 433 25 q 509 78 488 56 q 544 129 531 101 q 563 188 557 157 q 568 250 568 219 l 568 368 l 372 368 q 314 366 343 368 q 256 356 285 364 q 201 335 228 349 q 155 300 175 321 q 125 251 135 279 q 115 193 115 222 q 123 140 115 167 q 147 92 131 114 q 185 54 163 69 q 234 30 208 39 q 287 17 260 21 q 340 14 314 14 m 213 829 l 190 843 l 329 1036 l 365 1036 l 504 843 l 482 829 l 347 1011 l 213 829 z "},"":{"ha":694,"x_min":89,"x_max":594,"o":"m 336 -11 q 276 -8 306 -11 q 217 6 246 -4 q 164 35 189 17 q 122 77 139 53 q 97 131 104 101 q 89 192 89 161 q 99 256 89 225 q 131 313 108 288 q 182 353 153 338 q 242 378 211 369 q 306 390 274 388 q 372 393 339 393 l 568 393 l 568 479 q 563 539 568 508 q 544 597 557 569 q 510 647 532 624 q 462 683 489 669 q 405 703 435 697 q 344 708 375 708 q 294 706 319 708 q 243 694 268 703 q 196 672 218 686 q 158 637 174 657 q 133 592 142 617 q 124 542 125 568 l 97 542 q 107 599 97 571 q 135 651 117 628 q 177 690 153 674 q 229 717 201 707 q 286 730 257 726 q 344 733 315 733 q 413 727 379 733 q 476 706 446 721 q 530 665 506 690 q 569 610 554 640 q 589 546 583 579 q 594 479 594 513 l 594 0 l 568 0 l 568 135 q 531 71 554 100 q 477 23 508 42 q 410 -3 446 4 q 336 -11 374 -11 m 340 14 q 403 19 372 14 q 460 40 433 25 q 509 78 488 56 q 544 129 531 101 q 563 188 557 157 q 568 250 568 219 l 568 368 l 372 368 q 314 366 343 368 q 256 356 285 364 q 201 335 228 349 q 155 300 175 321 q 125 251 135 279 q 115 193 115 222 q 123 140 115 167 q 147 92 131 114 q 185 54 163 69 q 234 30 208 39 q 287 17 260 21 q 340 14 314 14 m 431 831 q 415 833 422 831 q 400 840 407 836 q 388 850 393 844 q 377 862 382 856 q 368 874 372 868 q 360 887 364 881 q 351 901 356 893 q 343 915 347 908 q 335 929 339 922 q 326 944 331 936 q 318 958 322 951 q 310 972 314 965 q 301 984 306 978 q 290 996 296 990 q 278 1006 285 1001 q 264 1011 271 1011 q 251 1008 257 1011 q 242 1001 246 1004 q 233 992 238 997 q 224 980 229 986 q 216 970 218 974 q 211 963 214 967 q 206 953 208 958 q 201 944 204 949 q 195 933 199 939 q 189 922 192 928 q 183 910 186 917 q 177 897 181 904 q 171 883 174 890 q 165 867 168 875 q 158 851 161 860 q 151 835 154 843 l 126 843 q 138 874 132 860 q 150 900 144 888 q 161 924 156 913 q 172 946 167 936 q 182 965 176 956 q 192 981 188 974 q 205 999 197 989 q 222 1016 213 1008 q 241 1030 231 1024 q 264 1036 251 1036 q 280 1033 272 1036 q 294 1026 288 1031 q 307 1017 301 1022 q 317 1005 313 1011 q 326 992 322 999 q 335 980 331 986 q 343 966 339 974 q 351 951 347 958 q 360 938 356 944 q 368 923 364 931 q 376 908 372 915 q 385 895 381 901 q 394 883 389 889 q 404 871 399 876 q 417 860 410 865 q 431 856 424 856 q 443 859 438 856 q 453 866 449 863 q 461 875 457 869 q 471 887 465 881 q 478 897 476 893 q 483 904 481 900 q 488 913 486 908 q 493 923 490 918 q 499 933 496 928 q 506 944 503 939 q 511 956 508 950 q 517 969 514 963 q 524 984 521 976 q 530 999 526 992 q 537 1015 533 1007 q 543 1032 540 1024 l 568 1024 q 556 993 563 1007 q 544 967 550 979 q 533 942 539 954 q 523 921 528 931 q 513 902 518 911 q 502 885 507 893 q 490 868 497 878 q 473 851 482 858 q 453 837 464 843 q 431 831 443 831 z "},"":{"ha":694,"x_min":89,"x_max":594,"o":"m 336 -11 q 276 -8 306 -11 q 217 6 246 -4 q 164 35 189 17 q 122 77 139 53 q 97 131 104 101 q 89 192 89 161 q 99 256 89 225 q 131 313 108 288 q 182 353 153 338 q 242 378 211 369 q 306 390 274 388 q 372 393 339 393 l 568 393 l 568 479 q 563 539 568 508 q 544 597 557 569 q 510 647 532 624 q 462 683 489 669 q 405 703 435 697 q 344 708 375 708 q 294 706 319 708 q 243 694 268 703 q 196 672 218 686 q 158 637 174 657 q 133 592 142 617 q 124 542 125 568 l 97 542 q 107 599 97 571 q 135 651 117 628 q 177 690 153 674 q 229 717 201 707 q 286 730 257 726 q 344 733 315 733 q 413 727 379 733 q 476 706 446 721 q 530 665 506 690 q 569 610 554 640 q 589 546 583 579 q 594 479 594 513 l 594 0 l 568 0 l 568 135 q 531 71 554 100 q 477 23 508 42 q 410 -3 446 4 q 336 -11 374 -11 m 340 14 q 403 19 372 14 q 460 40 433 25 q 509 78 488 56 q 544 129 531 101 q 563 188 557 157 q 568 250 568 219 l 568 368 l 372 368 q 314 366 343 368 q 256 356 285 364 q 201 335 228 349 q 155 300 175 321 q 125 251 135 279 q 115 193 115 222 q 123 140 115 167 q 147 92 131 114 q 185 54 163 69 q 234 30 208 39 q 287 17 260 21 q 340 14 314 14 m 486 894 q 472 897 479 894 q 459 903 464 899 q 452 916 454 908 q 450 931 450 924 q 452 945 450 938 q 459 958 454 953 q 472 965 464 963 q 486 968 479 968 q 501 965 493 968 q 513 958 508 963 q 521 945 518 953 q 524 931 524 938 q 521 916 524 924 q 513 903 518 908 q 501 897 508 899 q 486 894 493 894 m 208 894 q 194 897 201 894 q 181 903 186 899 q 174 916 176 908 q 172 931 172 924 q 174 945 172 938 q 181 958 176 953 q 194 965 186 963 q 208 968 201 968 q 223 965 215 968 q 235 958 231 963 q 243 945 240 953 q 246 931 246 938 q 243 916 246 924 q 235 903 240 908 q 223 897 231 899 q 208 894 215 894 z "},"":{"ha":694,"x_min":89,"x_max":594,"o":"m 336 -11 q 276 -8 306 -11 q 217 6 246 -4 q 164 35 189 17 q 122 77 139 53 q 97 131 104 101 q 89 192 89 161 q 99 256 89 225 q 131 313 108 288 q 182 353 153 338 q 242 378 211 369 q 306 390 274 388 q 372 393 339 393 l 568 393 l 568 479 q 563 539 568 508 q 544 597 557 569 q 510 647 532 624 q 462 683 489 669 q 405 703 435 697 q 344 708 375 708 q 294 706 319 708 q 243 694 268 703 q 196 672 218 686 q 158 637 174 657 q 133 592 142 617 q 124 542 125 568 l 97 542 q 107 599 97 571 q 135 651 117 628 q 177 690 153 674 q 229 717 201 707 q 286 730 257 726 q 344 733 315 733 q 413 727 379 733 q 476 706 446 721 q 530 665 506 690 q 569 610 554 640 q 589 546 583 579 q 594 479 594 513 l 594 0 l 568 0 l 568 135 q 531 71 554 100 q 477 23 508 42 q 410 -3 446 4 q 336 -11 374 -11 m 340 14 q 403 19 372 14 q 460 40 433 25 q 509 78 488 56 q 544 129 531 101 q 563 188 557 157 q 568 250 568 219 l 568 368 l 372 368 q 314 366 343 368 q 256 356 285 364 q 201 335 228 349 q 155 300 175 321 q 125 251 135 279 q 115 193 115 222 q 123 140 115 167 q 147 92 131 114 q 185 54 163 69 q 234 30 208 39 q 287 17 260 21 q 340 14 314 14 m 347 832 q 308 838 328 832 q 275 858 289 844 q 255 892 261 872 q 249 931 249 911 q 255 969 249 950 q 275 1003 261 989 q 308 1023 289 1017 q 347 1029 328 1029 q 386 1023 367 1029 q 419 1003 406 1017 q 440 969 433 989 q 446 931 446 950 q 440 892 446 911 q 419 858 433 872 q 386 838 406 844 q 347 832 367 832 m 347 854 q 378 859 363 854 q 403 874 393 864 q 419 900 414 885 q 424 931 424 915 q 419 961 424 946 q 403 987 414 976 q 378 1002 393 997 q 347 1007 363 1007 q 317 1002 332 1007 q 291 987 301 997 q 276 961 281 976 q 271 931 271 946 q 276 900 271 915 q 291 874 281 885 q 317 859 301 864 q 347 854 332 854 z "},"":{"ha":694,"x_min":89,"x_max":606,"o":"m 225 -11 q 180 -3 201 -11 q 142 22 158 6 q 115 58 125 38 q 99 101 106 79 q 91 147 93 124 q 89 193 89 169 q 92 240 89 217 q 101 287 94 264 q 122 331 108 310 q 153 366 135 351 q 196 387 172 381 q 243 393 219 393 l 333 393 l 333 561 q 329 612 333 586 q 313 660 325 638 q 277 695 300 682 q 229 708 254 708 q 194 702 211 708 q 165 683 178 696 q 145 653 153 669 q 133 620 138 638 q 126 585 128 603 q 124 550 124 568 l 124 542 l 97 542 l 97 551 q 100 593 97 572 q 109 634 103 614 q 126 673 115 654 q 151 706 136 692 q 188 726 167 719 q 229 733 208 733 q 269 728 250 733 q 305 710 289 722 q 332 680 321 697 q 350 643 343 663 q 367 678 357 661 q 394 709 378 696 q 430 728 410 722 q 469 733 450 733 q 513 726 492 733 q 551 703 535 718 q 578 668 568 688 q 595 627 589 649 q 603 583 601 606 q 606 538 606 560 l 606 349 l 361 349 l 361 185 q 363 147 361 165 q 368 110 364 128 q 381 74 372 92 q 401 42 389 57 q 432 21 414 28 q 468 14 450 14 q 503 20 486 14 q 533 40 521 26 q 554 69 546 53 q 567 102 563 85 q 574 138 572 119 q 576 174 576 156 l 576 181 l 603 181 l 603 172 q 600 130 603 151 q 591 88 597 108 q 574 49 585 68 q 547 17 563 31 q 510 -4 531 3 q 468 -11 489 -11 q 426 -4 447 -11 q 390 17 406 3 q 363 49 374 31 q 346 89 353 68 q 328 50 339 68 q 303 17 318 32 q 267 -4 288 3 q 225 -11 246 -11 m 579 374 l 579 538 q 577 576 579 557 q 571 613 575 594 q 558 649 567 632 q 538 681 550 667 q 507 701 525 694 q 469 708 489 708 q 433 701 451 708 q 402 681 415 694 q 381 649 389 667 q 369 613 374 632 q 363 576 364 594 q 361 538 361 557 l 361 374 l 579 374 m 225 14 q 263 22 244 14 q 294 46 282 31 q 315 80 307 61 q 326 118 322 99 q 332 157 331 138 q 333 197 333 176 l 333 369 l 243 369 q 203 363 224 369 q 168 344 183 357 q 142 313 153 331 q 126 275 132 294 q 117 235 119 256 q 115 194 115 214 q 117 154 115 174 q 124 116 119 135 q 135 78 128 97 q 156 45 143 60 q 187 22 168 31 q 225 14 206 14 z "},"":{"ha":694,"x_min":89,"x_max":597,"o":"m 343 -11 q 271 -3 307 -11 q 204 24 235 4 q 150 72 174 43 q 113 135 126 101 q 94 205 99 168 q 89 278 89 242 l 89 444 q 94 517 89 481 q 113 588 99 554 q 150 650 126 621 q 204 699 174 679 q 271 726 235 718 q 343 733 307 733 q 409 728 376 733 q 471 708 442 722 q 525 672 500 694 q 566 621 550 650 q 590 560 582 592 q 597 494 597 528 l 597 493 l 571 493 l 571 494 q 554 581 571 539 q 506 653 538 624 q 431 696 474 683 q 343 708 388 708 q 278 701 311 708 q 218 676 246 693 q 169 631 190 658 q 137 574 149 604 q 120 510 125 543 q 115 444 115 478 l 115 278 q 120 212 115 244 q 137 149 125 179 q 169 91 149 118 q 218 47 190 64 q 278 22 246 29 q 343 14 311 14 q 431 26 388 14 q 506 69 474 39 q 554 141 538 99 q 571 228 571 183 l 571 229 l 597 229 l 597 228 q 590 163 597 194 q 566 101 582 131 q 525 50 550 72 q 471 14 500 28 q 409 -6 442 0 q 343 -11 376 -11 m 208 -306 l 208 -281 l 347 -281 q 389 -277 368 -281 q 428 -265 410 -274 q 459 -237 447 -256 q 471 -197 471 -218 q 459 -158 471 -176 q 428 -131 447 -140 q 389 -117 410 -121 q 347 -114 368 -114 l 333 -114 l 333 14 l 361 14 l 361 -90 q 409 -96 385 -90 q 453 -115 433 -101 q 485 -151 474 -129 q 497 -197 497 -174 q 484 -247 497 -224 q 448 -284 471 -271 q 399 -301 425 -297 q 347 -306 374 -306 l 208 -306 z "},"":{"ha":694,"x_min":89,"x_max":606,"o":"m 349 -11 q 275 -3 311 -11 q 207 23 239 4 q 151 71 175 42 q 114 134 128 100 q 94 205 100 168 q 89 278 89 242 l 89 444 q 94 517 89 481 q 114 588 100 554 q 151 651 128 622 q 206 699 175 679 q 274 726 238 718 q 347 733 311 733 q 420 726 383 733 q 488 699 457 718 q 543 651 519 679 q 581 588 567 622 q 600 517 594 554 q 606 444 606 481 l 606 349 l 115 349 l 115 278 q 120 211 115 244 q 138 147 125 178 q 172 90 150 117 q 221 46 193 64 q 282 21 249 28 q 349 14 315 14 q 401 17 375 14 q 451 28 426 19 q 499 50 476 36 q 539 84 522 64 q 565 129 556 104 q 576 181 575 154 l 603 181 q 591 123 601 151 q 562 72 581 94 q 518 32 543 49 q 465 6 493 15 q 408 -8 438 -4 q 349 -11 378 -11 m 115 374 l 579 374 l 579 444 q 574 511 579 478 q 557 575 569 544 q 524 632 544 606 q 474 676 503 658 q 413 701 446 694 q 347 708 381 708 q 281 701 314 708 q 220 676 249 694 q 171 632 192 658 q 138 575 150 606 q 120 511 125 544 q 115 444 115 478 l 115 374 m 351 826 l 214 1019 l 238 1036 l 371 840 l 351 826 z "},"":{"ha":694,"x_min":89,"x_max":606,"o":"m 349 -11 q 275 -3 311 -11 q 207 23 239 4 q 151 71 175 42 q 114 134 128 100 q 94 205 100 168 q 89 278 89 242 l 89 444 q 94 517 89 481 q 114 588 100 554 q 151 651 128 622 q 206 699 175 679 q 274 726 238 718 q 347 733 311 733 q 420 726 383 733 q 488 699 457 718 q 543 651 519 679 q 581 588 567 622 q 600 517 594 554 q 606 444 606 481 l 606 349 l 115 349 l 115 278 q 120 211 115 244 q 138 147 125 178 q 172 90 150 117 q 221 46 193 64 q 282 21 249 28 q 349 14 315 14 q 401 17 375 14 q 451 28 426 19 q 499 50 476 36 q 539 84 522 64 q 565 129 556 104 q 576 181 575 154 l 603 181 q 591 123 601 151 q 562 72 581 94 q 518 32 543 49 q 465 6 493 15 q 408 -8 438 -4 q 349 -11 378 -11 m 115 374 l 579 374 l 579 444 q 574 511 579 478 q 557 575 569 544 q 524 632 544 606 q 474 676 503 658 q 413 701 446 694 q 347 708 381 708 q 281 701 314 708 q 220 676 249 694 q 171 632 192 658 q 138 575 150 606 q 120 511 125 544 q 115 444 115 478 l 115 374 m 343 826 l 324 840 l 457 1036 l 481 1019 l 343 826 z "},"":{"ha":694,"x_min":89,"x_max":606,"o":"m 349 -11 q 275 -3 311 -11 q 207 23 239 4 q 151 71 175 42 q 114 134 128 100 q 94 205 100 168 q 89 278 89 242 l 89 444 q 94 517 89 481 q 114 588 100 554 q 151 651 128 622 q 206 699 175 679 q 274 726 238 718 q 347 733 311 733 q 420 726 383 733 q 488 699 457 718 q 543 651 519 679 q 581 588 567 622 q 600 517 594 554 q 606 444 606 481 l 606 349 l 115 349 l 115 278 q 120 211 115 244 q 138 147 125 178 q 172 90 150 117 q 221 46 193 64 q 282 21 249 28 q 349 14 315 14 q 401 17 375 14 q 451 28 426 19 q 499 50 476 36 q 539 84 522 64 q 565 129 556 104 q 576 181 575 154 l 603 181 q 591 123 601 151 q 562 72 581 94 q 518 32 543 49 q 465 6 493 15 q 408 -8 438 -4 q 349 -11 378 -11 m 115 374 l 579 374 l 579 444 q 574 511 579 478 q 557 575 569 544 q 524 632 544 606 q 474 676 503 658 q 413 701 446 694 q 347 708 381 708 q 281 701 314 708 q 220 676 249 694 q 171 632 192 658 q 138 575 150 606 q 120 511 125 544 q 115 444 115 478 l 115 374 m 213 829 l 190 843 l 329 1036 l 365 1036 l 504 843 l 482 829 l 347 1011 l 213 829 z "},"":{"ha":694,"x_min":89,"x_max":606,"o":"m 349 -11 q 275 -3 311 -11 q 207 23 239 4 q 151 71 175 42 q 114 134 128 100 q 94 205 100 168 q 89 278 89 242 l 89 444 q 94 517 89 481 q 114 588 100 554 q 151 651 128 622 q 206 699 175 679 q 274 726 238 718 q 347 733 311 733 q 420 726 383 733 q 488 699 457 718 q 543 651 519 679 q 581 588 567 622 q 600 517 594 554 q 606 444 606 481 l 606 349 l 115 349 l 115 278 q 120 211 115 244 q 138 147 125 178 q 172 90 150 117 q 221 46 193 64 q 282 21 249 28 q 349 14 315 14 q 401 17 375 14 q 451 28 426 19 q 499 50 476 36 q 539 84 522 64 q 565 129 556 104 q 576 181 575 154 l 603 181 q 591 123 601 151 q 562 72 581 94 q 518 32 543 49 q 465 6 493 15 q 408 -8 438 -4 q 349 -11 378 -11 m 115 374 l 579 374 l 579 444 q 574 511 579 478 q 557 575 569 544 q 524 632 544 606 q 474 676 503 658 q 413 701 446 694 q 347 708 381 708 q 281 701 314 708 q 220 676 249 694 q 171 632 192 658 q 138 575 150 606 q 120 511 125 544 q 115 444 115 478 l 115 374 m 486 894 q 472 897 479 894 q 459 903 464 899 q 452 916 454 908 q 450 931 450 924 q 452 945 450 938 q 459 958 454 953 q 472 965 464 963 q 486 968 479 968 q 501 965 493 968 q 513 958 508 963 q 521 945 518 953 q 524 931 524 938 q 521 916 524 924 q 513 903 518 908 q 501 897 508 899 q 486 894 493 894 m 208 894 q 194 897 201 894 q 181 903 186 899 q 174 916 176 908 q 172 931 172 924 q 174 945 172 938 q 181 958 176 953 q 194 965 186 963 q 208 968 201 968 q 223 965 215 968 q 235 958 231 963 q 243 945 240 953 q 246 931 246 938 q 243 916 246 924 q 235 903 240 908 q 223 897 231 899 q 208 894 215 894 z "},"":{"ha":694,"x_min":104,"x_max":590,"o":"m 104 0 l 104 25 l 343 25 l 343 697 l 124 697 l 124 722 l 371 722 l 371 25 l 590 25 l 590 0 l 104 0 m 358 826 l 221 1019 l 244 1036 l 378 840 l 358 826 z "},"":{"ha":694,"x_min":104,"x_max":590,"o":"m 104 0 l 104 25 l 343 25 l 343 697 l 124 697 l 124 722 l 371 722 l 371 25 l 590 25 l 590 0 l 104 0 m 350 826 l 331 840 l 464 1036 l 488 1019 l 350 826 z "},"":{"ha":694,"x_min":104,"x_max":590,"o":"m 104 0 l 104 25 l 343 25 l 343 697 l 124 697 l 124 722 l 371 722 l 371 25 l 590 25 l 590 0 l 104 0 m 219 829 l 197 843 l 336 1036 l 372 1036 l 511 843 l 489 829 l 354 1011 l 219 829 z "},"":{"ha":694,"x_min":104,"x_max":590,"o":"m 104 0 l 104 25 l 343 25 l 343 697 l 124 697 l 124 722 l 371 722 l 371 25 l 590 25 l 590 0 l 104 0 m 486 894 q 472 897 479 894 q 459 903 464 899 q 452 916 454 908 q 450 931 450 924 q 452 945 450 938 q 459 958 454 953 q 472 965 464 963 q 486 968 479 968 q 501 965 493 968 q 513 958 508 963 q 521 945 518 953 q 524 931 524 938 q 521 916 524 924 q 513 903 518 908 q 501 897 508 899 q 486 894 493 894 m 208 894 q 194 897 201 894 q 181 903 186 899 q 174 916 176 908 q 172 931 172 924 q 174 945 172 938 q 181 958 176 953 q 194 965 186 963 q 208 968 201 968 q 223 965 215 968 q 235 958 231 963 q 243 945 240 953 q 246 931 246 938 q 243 916 246 924 q 235 903 240 908 q 223 897 231 899 q 208 894 215 894 z "},"":{"ha":694,"x_min":89,"x_max":606,"o":"m 347 -11 q 270 -1 308 -11 q 201 31 232 8 q 147 85 169 53 q 112 154 125 118 q 94 229 99 190 q 89 307 89 268 q 94 383 89 344 q 111 458 99 421 q 145 526 124 494 q 198 581 167 558 q 267 614 229 604 q 343 624 304 624 q 419 614 382 624 q 488 581 457 604 q 541 524 519 557 q 575 456 563 492 q 537 626 568 543 q 453 781 506 710 l 153 696 l 146 719 l 436 801 q 372 870 407 839 q 296 926 336 901 q 212 969 256 951 q 122 996 168 986 l 128 1021 q 224 991 176 1010 q 314 945 271 972 q 395 884 357 918 q 464 810 433 850 l 567 839 l 574 815 l 481 789 q 540 688 515 740 q 581 578 565 635 q 601 462 597 521 q 606 344 606 403 l 606 307 q 601 229 606 268 q 583 154 596 190 q 547 85 569 118 q 494 31 525 53 q 424 -1 463 8 q 347 -11 386 -11 m 347 14 q 417 23 382 14 q 480 53 451 32 q 528 105 508 75 q 559 168 547 135 q 575 236 571 201 q 579 306 579 271 q 575 376 579 342 q 559 444 571 411 q 528 508 547 478 q 480 559 508 538 q 417 590 451 581 q 347 599 382 599 q 278 590 313 599 q 215 559 243 581 q 167 508 186 538 q 135 444 147 478 q 119 376 124 411 q 115 307 115 342 q 119 236 115 271 q 135 168 124 201 q 167 105 147 135 q 215 53 186 75 q 278 23 243 32 q 347 14 313 14 z "},"":{"ha":694,"x_min":100,"x_max":594,"o":"m 100 0 l 100 722 l 126 722 l 126 574 q 160 640 139 608 q 211 693 181 671 q 278 724 242 715 q 351 733 314 733 q 423 725 388 733 q 488 697 458 717 q 538 647 517 676 q 572 585 560 618 q 590 516 585 551 q 594 444 594 481 l 594 0 l 568 0 l 568 444 q 564 509 568 476 q 548 572 560 542 q 517 629 536 603 q 471 674 497 656 q 412 701 444 693 q 347 708 379 708 q 283 701 315 708 q 224 674 250 693 q 178 629 197 656 q 147 572 158 603 q 131 509 135 542 q 126 444 126 476 l 126 0 l 100 0 m 431 831 q 415 833 422 831 q 400 840 407 836 q 388 850 393 844 q 377 862 382 856 q 368 874 372 868 q 360 887 364 881 q 351 901 356 893 q 343 915 347 908 q 335 929 339 922 q 326 944 331 936 q 318 958 322 951 q 310 972 314 965 q 301 984 306 978 q 290 996 296 990 q 278 1006 285 1001 q 264 1011 271 1011 q 251 1008 257 1011 q 242 1001 246 1004 q 233 992 238 997 q 224 980 229 986 q 216 970 218 974 q 211 963 214 967 q 206 953 208 958 q 201 944 204 949 q 195 933 199 939 q 189 922 192 928 q 183 910 186 917 q 177 897 181 904 q 171 883 174 890 q 165 867 168 875 q 158 851 161 860 q 151 835 154 843 l 126 843 q 138 874 132 860 q 150 900 144 888 q 161 924 156 913 q 172 946 167 936 q 182 965 176 956 q 192 981 188 974 q 205 999 197 989 q 222 1016 213 1008 q 241 1030 231 1024 q 264 1036 251 1036 q 280 1033 272 1036 q 294 1026 288 1031 q 307 1017 301 1022 q 317 1005 313 1011 q 326 992 322 999 q 335 980 331 986 q 343 966 339 974 q 351 951 347 958 q 360 938 356 944 q 368 923 364 931 q 376 908 372 915 q 385 895 381 901 q 394 883 389 889 q 404 871 399 876 q 417 860 410 865 q 431 856 424 856 q 443 859 438 856 q 453 866 449 863 q 461 875 457 869 q 471 887 465 881 q 478 897 476 893 q 483 904 481 900 q 488 913 486 908 q 493 923 490 918 q 499 933 496 928 q 506 944 503 939 q 511 956 508 950 q 517 969 514 963 q 524 984 521 976 q 530 999 526 992 q 537 1015 533 1007 q 543 1032 540 1024 l 568 1024 q 556 993 563 1007 q 544 967 550 979 q 533 942 539 954 q 523 921 528 931 q 513 902 518 911 q 502 885 507 893 q 490 868 497 878 q 473 851 482 858 q 453 837 464 843 q 431 831 443 831 z "},"":{"ha":694,"x_min":89,"x_max":606,"o":"m 347 -11 q 274 -3 311 -11 q 206 24 238 4 q 151 72 175 43 q 114 134 128 100 q 94 205 100 168 q 89 278 89 242 l 89 444 q 94 517 89 481 q 114 588 100 554 q 151 651 128 622 q 206 699 175 679 q 274 726 238 718 q 347 733 311 733 q 420 726 383 733 q 488 699 457 718 q 543 651 519 679 q 581 588 567 622 q 600 517 594 554 q 606 444 606 481 l 606 278 q 600 205 606 242 q 581 134 594 168 q 543 72 567 100 q 488 24 519 43 q 420 -3 457 4 q 347 -11 383 -11 m 347 14 q 413 21 381 14 q 474 46 446 28 q 524 90 503 64 q 557 147 544 117 q 574 211 569 178 q 579 278 579 244 l 579 444 q 574 511 579 478 q 557 575 569 544 q 524 632 544 606 q 474 676 503 658 q 413 701 446 694 q 347 708 381 708 q 281 701 314 708 q 220 676 249 694 q 171 632 192 658 q 138 575 150 606 q 120 511 125 544 q 115 444 115 478 l 115 278 q 120 211 115 244 q 138 147 125 178 q 171 90 150 117 q 220 46 192 64 q 281 21 249 28 q 347 14 314 14 m 351 826 l 214 1019 l 238 1036 l 371 840 l 351 826 z "},"":{"ha":694,"x_min":89,"x_max":606,"o":"m 347 -11 q 274 -3 311 -11 q 206 24 238 4 q 151 72 175 43 q 114 134 128 100 q 94 205 100 168 q 89 278 89 242 l 89 444 q 94 517 89 481 q 114 588 100 554 q 151 651 128 622 q 206 699 175 679 q 274 726 238 718 q 347 733 311 733 q 420 726 383 733 q 488 699 457 718 q 543 651 519 679 q 581 588 567 622 q 600 517 594 554 q 606 444 606 481 l 606 278 q 600 205 606 242 q 581 134 594 168 q 543 72 567 100 q 488 24 519 43 q 420 -3 457 4 q 347 -11 383 -11 m 347 14 q 413 21 381 14 q 474 46 446 28 q 524 90 503 64 q 557 147 544 117 q 574 211 569 178 q 579 278 579 244 l 579 444 q 574 511 579 478 q 557 575 569 544 q 524 632 544 606 q 474 676 503 658 q 413 701 446 694 q 347 708 381 708 q 281 701 314 708 q 220 676 249 694 q 171 632 192 658 q 138 575 150 606 q 120 511 125 544 q 115 444 115 478 l 115 278 q 120 211 115 244 q 138 147 125 178 q 171 90 150 117 q 220 46 192 64 q 281 21 249 28 q 347 14 314 14 m 343 826 l 324 840 l 457 1036 l 481 1019 l 343 826 z "},"":{"ha":694,"x_min":89,"x_max":606,"o":"m 347 -11 q 274 -3 311 -11 q 206 24 238 4 q 151 72 175 43 q 114 134 128 100 q 94 205 100 168 q 89 278 89 242 l 89 444 q 94 517 89 481 q 114 588 100 554 q 151 651 128 622 q 206 699 175 679 q 274 726 238 718 q 347 733 311 733 q 420 726 383 733 q 488 699 457 718 q 543 651 519 679 q 581 588 567 622 q 600 517 594 554 q 606 444 606 481 l 606 278 q 600 205 606 242 q 581 134 594 168 q 543 72 567 100 q 488 24 519 43 q 420 -3 457 4 q 347 -11 383 -11 m 347 14 q 413 21 381 14 q 474 46 446 28 q 524 90 503 64 q 557 147 544 117 q 574 211 569 178 q 579 278 579 244 l 579 444 q 574 511 579 478 q 557 575 569 544 q 524 632 544 606 q 474 676 503 658 q 413 701 446 694 q 347 708 381 708 q 281 701 314 708 q 220 676 249 694 q 171 632 192 658 q 138 575 150 606 q 120 511 125 544 q 115 444 115 478 l 115 278 q 120 211 115 244 q 138 147 125 178 q 171 90 150 117 q 220 46 192 64 q 281 21 249 28 q 347 14 314 14 m 213 829 l 190 843 l 329 1036 l 365 1036 l 504 843 l 482 829 l 347 1011 l 213 829 z "},"":{"ha":694,"x_min":89,"x_max":606,"o":"m 347 -11 q 274 -3 311 -11 q 206 24 238 4 q 151 72 175 43 q 114 134 128 100 q 94 205 100 168 q 89 278 89 242 l 89 444 q 94 517 89 481 q 114 588 100 554 q 151 651 128 622 q 206 699 175 679 q 274 726 238 718 q 347 733 311 733 q 420 726 383 733 q 488 699 457 718 q 543 651 519 679 q 581 588 567 622 q 600 517 594 554 q 606 444 606 481 l 606 278 q 600 205 606 242 q 581 134 594 168 q 543 72 567 100 q 488 24 519 43 q 420 -3 457 4 q 347 -11 383 -11 m 347 14 q 413 21 381 14 q 474 46 446 28 q 524 90 503 64 q 557 147 544 117 q 574 211 569 178 q 579 278 579 244 l 579 444 q 574 511 579 478 q 557 575 569 544 q 524 632 544 606 q 474 676 503 658 q 413 701 446 694 q 347 708 381 708 q 281 701 314 708 q 220 676 249 694 q 171 632 192 658 q 138 575 150 606 q 120 511 125 544 q 115 444 115 478 l 115 278 q 120 211 115 244 q 138 147 125 178 q 171 90 150 117 q 220 46 192 64 q 281 21 249 28 q 347 14 314 14 m 431 831 q 415 833 422 831 q 400 840 407 836 q 388 850 393 844 q 377 862 382 856 q 368 874 372 868 q 360 887 364 881 q 351 901 356 893 q 343 915 347 908 q 335 929 339 922 q 326 944 331 936 q 318 958 322 951 q 310 972 314 965 q 301 984 306 978 q 290 996 296 990 q 278 1006 285 1001 q 264 1011 271 1011 q 251 1008 257 1011 q 242 1001 246 1004 q 233 992 238 997 q 224 980 229 986 q 216 970 218 974 q 211 963 214 967 q 206 953 208 958 q 201 944 204 949 q 195 933 199 939 q 189 922 192 928 q 183 910 186 917 q 177 897 181 904 q 171 883 174 890 q 165 867 168 875 q 158 851 161 860 q 151 835 154 843 l 126 843 q 138 874 132 860 q 150 900 144 888 q 161 924 156 913 q 172 946 167 936 q 182 965 176 956 q 192 981 188 974 q 205 999 197 989 q 222 1016 213 1008 q 241 1030 231 1024 q 264 1036 251 1036 q 280 1033 272 1036 q 294 1026 288 1031 q 307 1017 301 1022 q 317 1005 313 1011 q 326 992 322 999 q 335 980 331 986 q 343 966 339 974 q 351 951 347 958 q 360 938 356 944 q 368 923 364 931 q 376 908 372 915 q 385 895 381 901 q 394 883 389 889 q 404 871 399 876 q 417 860 410 865 q 431 856 424 856 q 443 859 438 856 q 453 866 449 863 q 461 875 457 869 q 471 887 465 881 q 478 897 476 893 q 483 904 481 900 q 488 913 486 908 q 493 923 490 918 q 499 933 496 928 q 506 944 503 939 q 511 956 508 950 q 517 969 514 963 q 524 984 521 976 q 530 999 526 992 q 537 1015 533 1007 q 543 1032 540 1024 l 568 1024 q 556 993 563 1007 q 544 967 550 979 q 533 942 539 954 q 523 921 528 931 q 513 902 518 911 q 502 885 507 893 q 490 868 497 878 q 473 851 482 858 q 453 837 464 843 q 431 831 443 831 z "},"":{"ha":694,"x_min":89,"x_max":606,"o":"m 347 -11 q 274 -3 311 -11 q 206 24 238 4 q 151 72 175 43 q 114 134 128 100 q 94 205 100 168 q 89 278 89 242 l 89 444 q 94 517 89 481 q 114 588 100 554 q 151 651 128 622 q 206 699 175 679 q 274 726 238 718 q 347 733 311 733 q 420 726 383 733 q 488 699 457 718 q 543 651 519 679 q 581 588 567 622 q 600 517 594 554 q 606 444 606 481 l 606 278 q 600 205 606 242 q 581 134 594 168 q 543 72 567 100 q 488 24 519 43 q 420 -3 457 4 q 347 -11 383 -11 m 347 14 q 413 21 381 14 q 474 46 446 28 q 524 90 503 64 q 557 147 544 117 q 574 211 569 178 q 579 278 579 244 l 579 444 q 574 511 579 478 q 557 575 569 544 q 524 632 544 606 q 474 676 503 658 q 413 701 446 694 q 347 708 381 708 q 281 701 314 708 q 220 676 249 694 q 171 632 192 658 q 138 575 150 606 q 120 511 125 544 q 115 444 115 478 l 115 278 q 120 211 115 244 q 138 147 125 178 q 171 90 150 117 q 220 46 192 64 q 281 21 249 28 q 347 14 314 14 m 486 894 q 472 897 479 894 q 459 903 464 899 q 452 916 454 908 q 450 931 450 924 q 452 945 450 938 q 459 958 454 953 q 472 965 464 963 q 486 968 479 968 q 501 965 493 968 q 513 958 508 963 q 521 945 518 953 q 524 931 524 938 q 521 916 524 924 q 513 903 518 908 q 501 897 508 899 q 486 894 493 894 m 208 894 q 194 897 201 894 q 181 903 186 899 q 174 916 176 908 q 172 931 172 924 q 174 945 172 938 q 181 958 176 953 q 194 965 186 963 q 208 968 201 968 q 223 965 215 968 q 235 958 231 963 q 243 945 240 953 q 246 931 246 938 q 243 916 246 924 q 235 903 240 908 q 223 897 231 899 q 208 894 215 894 z "},"":{"ha":694,"x_min":100,"x_max":594,"o":"m 347 672 q 328 675 338 672 q 313 685 319 678 q 303 701 306 692 q 300 719 300 710 q 303 738 300 729 q 313 754 306 747 q 328 764 319 761 q 347 767 338 767 q 366 764 357 767 q 382 754 375 761 q 392 738 389 747 q 394 719 394 729 q 392 701 394 710 q 382 685 389 692 q 366 675 375 678 q 347 672 357 672 m 594 460 l 100 460 l 100 485 l 594 485 l 594 460 m 347 178 q 328 181 338 178 q 313 190 319 183 q 303 206 306 197 q 300 225 300 215 q 303 244 300 235 q 313 260 306 253 q 328 269 319 267 q 347 272 338 272 q 366 269 357 272 q 382 260 375 267 q 392 244 389 253 q 394 225 394 235 q 392 206 394 215 q 382 190 389 197 q 366 181 375 183 q 347 178 357 178 z "},"":{"ha":694,"x_min":89,"x_max":606,"o":"m 113 -43 l 90 -29 l 151 71 q 122 117 135 92 q 102 168 110 142 q 92 222 94 194 q 89 278 89 250 l 89 444 q 94 517 89 481 q 114 588 100 554 q 151 651 128 622 q 206 699 175 679 q 274 726 238 718 q 347 733 311 733 q 442 719 396 733 q 524 671 489 704 l 582 765 l 604 751 l 543 651 q 572 606 560 631 q 592 554 585 581 q 603 500 600 528 q 606 444 606 472 l 606 278 q 600 205 606 242 q 581 134 594 168 q 543 72 567 100 q 488 24 519 43 q 420 -3 457 4 q 347 -11 383 -11 q 252 3 299 -11 q 171 51 206 18 l 113 -43 m 167 94 l 510 649 q 435 694 478 679 q 347 708 392 708 q 281 701 314 708 q 220 676 249 694 q 171 632 192 658 q 138 575 150 606 q 120 511 125 544 q 115 444 115 478 l 115 278 q 117 230 115 254 q 126 182 119 206 q 142 136 132 158 q 167 94 153 114 m 347 14 q 413 21 381 14 q 474 46 446 28 q 524 90 503 64 q 557 147 544 117 q 574 211 569 178 q 579 278 579 244 l 579 444 q 577 492 579 468 q 569 540 575 517 q 552 586 563 564 q 528 628 542 608 l 185 74 q 260 28 217 43 q 347 14 303 14 z "},"":{"ha":694,"x_min":100,"x_max":594,"o":"m 343 -11 q 272 -3 307 -11 q 207 26 236 6 q 156 75 178 46 q 122 138 135 104 q 105 206 110 171 q 100 278 100 242 l 100 722 l 126 722 l 126 278 q 131 213 126 246 q 147 150 135 181 q 178 93 158 119 q 224 48 197 67 q 283 22 250 29 q 347 14 315 14 q 412 22 379 14 q 471 48 444 29 q 517 93 497 67 q 548 150 536 119 q 564 213 560 181 q 568 278 568 246 l 568 722 l 594 722 l 594 0 l 568 0 l 568 149 q 535 83 556 114 q 483 29 514 51 q 417 -2 453 7 q 343 -11 381 -11 m 351 826 l 214 1019 l 238 1036 l 371 840 l 351 826 z "},"":{"ha":694,"x_min":100,"x_max":594,"o":"m 343 -11 q 272 -3 307 -11 q 207 26 236 6 q 156 75 178 46 q 122 138 135 104 q 105 206 110 171 q 100 278 100 242 l 100 722 l 126 722 l 126 278 q 131 213 126 246 q 147 150 135 181 q 178 93 158 119 q 224 48 197 67 q 283 22 250 29 q 347 14 315 14 q 412 22 379 14 q 471 48 444 29 q 517 93 497 67 q 548 150 536 119 q 564 213 560 181 q 568 278 568 246 l 568 722 l 594 722 l 594 0 l 568 0 l 568 149 q 535 83 556 114 q 483 29 514 51 q 417 -2 453 7 q 343 -11 381 -11 m 343 826 l 324 840 l 457 1036 l 481 1019 l 343 826 z "},"":{"ha":694,"x_min":100,"x_max":594,"o":"m 343 -11 q 272 -3 307 -11 q 207 26 236 6 q 156 75 178 46 q 122 138 135 104 q 105 206 110 171 q 100 278 100 242 l 100 722 l 126 722 l 126 278 q 131 213 126 246 q 147 150 135 181 q 178 93 158 119 q 224 48 197 67 q 283 22 250 29 q 347 14 315 14 q 412 22 379 14 q 471 48 444 29 q 517 93 497 67 q 548 150 536 119 q 564 213 560 181 q 568 278 568 246 l 568 722 l 594 722 l 594 0 l 568 0 l 568 149 q 535 83 556 114 q 483 29 514 51 q 417 -2 453 7 q 343 -11 381 -11 m 213 829 l 190 843 l 329 1036 l 365 1036 l 504 843 l 482 829 l 347 1011 l 213 829 z "},"":{"ha":694,"x_min":100,"x_max":594,"o":"m 343 -11 q 272 -3 307 -11 q 207 26 236 6 q 156 75 178 46 q 122 138 135 104 q 105 206 110 171 q 100 278 100 242 l 100 722 l 126 722 l 126 278 q 131 213 126 246 q 147 150 135 181 q 178 93 158 119 q 224 48 197 67 q 283 22 250 29 q 347 14 315 14 q 412 22 379 14 q 471 48 444 29 q 517 93 497 67 q 548 150 536 119 q 564 213 560 181 q 568 278 568 246 l 568 722 l 594 722 l 594 0 l 568 0 l 568 149 q 535 83 556 114 q 483 29 514 51 q 417 -2 453 7 q 343 -11 381 -11 m 486 894 q 472 897 479 894 q 459 903 464 899 q 452 916 454 908 q 450 931 450 924 q 452 945 450 938 q 459 958 454 953 q 472 965 464 963 q 486 968 479 968 q 501 965 493 968 q 513 958 508 963 q 521 945 518 953 q 524 931 524 938 q 521 916 524 924 q 513 903 518 908 q 501 897 508 899 q 486 894 493 894 m 208 894 q 194 897 201 894 q 181 903 186 899 q 174 916 176 908 q 172 931 172 924 q 174 945 172 938 q 181 958 176 953 q 194 965 186 963 q 208 968 201 968 q 223 965 215 968 q 235 958 231 963 q 243 945 240 953 q 246 931 246 938 q 243 916 246 924 q 235 903 240 908 q 223 897 231 899 q 208 894 215 894 z "},"":{"ha":694,"x_min":81,"x_max":614,"o":"m 254 -299 q 270 -251 263 -275 q 286 -201 278 -226 l 332 -62 l 81 722 l 108 722 l 346 -19 l 586 722 l 614 722 l 282 -299 l 254 -299 m 343 826 l 324 840 l 457 1036 l 481 1019 l 343 826 z "},"":{"ha":694,"x_min":100,"x_max":606,"o":"m 100 -299 l 100 1021 l 126 1021 l 126 572 q 161 640 139 608 q 214 693 183 671 q 282 724 244 715 q 357 733 319 733 q 429 725 393 733 q 495 697 465 717 q 547 649 525 678 q 583 586 569 619 q 601 517 596 553 q 606 444 606 481 l 606 278 q 601 206 606 242 q 583 136 596 169 q 547 74 569 103 q 495 25 525 44 q 429 -3 465 6 q 357 -11 393 -11 q 282 -2 319 -11 q 214 29 244 7 q 161 83 183 51 q 126 150 139 114 l 126 -299 l 100 -299 m 353 14 q 418 22 386 14 q 478 47 450 29 q 526 92 506 65 q 558 149 546 118 q 574 212 569 179 q 579 278 579 244 l 579 444 q 574 510 579 478 q 558 574 569 543 q 526 631 546 604 q 478 675 506 657 q 418 701 450 693 q 353 708 386 708 q 288 701 319 708 q 228 675 256 693 q 180 631 200 657 q 148 574 160 604 q 131 510 136 543 q 126 444 126 478 l 126 278 q 131 212 126 244 q 148 149 136 179 q 180 92 160 118 q 228 47 200 65 q 288 22 256 29 q 353 14 319 14 z "},"":{"ha":694,"x_min":81,"x_max":614,"o":"m 254 -299 q 270 -251 263 -275 q 286 -201 278 -226 l 332 -62 l 81 722 l 108 722 l 346 -19 l 586 722 l 614 722 l 282 -299 l 254 -299 m 486 894 q 472 897 479 894 q 459 903 464 899 q 452 916 454 908 q 450 931 450 924 q 452 945 450 938 q 459 958 454 953 q 472 965 464 963 q 486 968 479 968 q 501 965 493 968 q 513 958 508 963 q 521 945 518 953 q 524 931 524 938 q 521 916 524 924 q 513 903 518 908 q 501 897 508 899 q 486 894 493 894 m 208 894 q 194 897 201 894 q 181 903 186 899 q 174 916 176 908 q 172 931 172 924 q 174 945 172 938 q 181 958 176 953 q 194 965 186 963 q 208 968 201 968 q 223 965 215 968 q 235 958 231 963 q 243 945 240 953 q 246 931 246 938 q 243 916 246 924 q 235 903 240 908 q 223 897 231 899 q 208 894 215 894 z "},"":{"ha":694,"x_min":81,"x_max":614,"o":"m 81 0 l 332 1021 l 363 1021 l 614 0 l 586 0 l 503 336 l 192 336 l 108 0 l 81 0 m 497 361 l 418 681 q 383 827 400 754 q 347 972 365 900 q 312 827 329 900 q 276 681 294 754 l 197 361 l 497 361 m 556 1217 l 139 1217 l 139 1242 l 556 1242 l 556 1217 z "},"":{"ha":694,"x_min":89,"x_max":594,"o":"m 336 -11 q 276 -8 306 -11 q 217 6 246 -4 q 164 35 189 17 q 122 77 139 53 q 97 131 104 101 q 89 192 89 161 q 99 256 89 225 q 131 313 108 288 q 182 353 153 338 q 242 378 211 369 q 306 390 274 388 q 372 393 339 393 l 568 393 l 568 479 q 563 539 568 508 q 544 597 557 569 q 510 647 532 624 q 462 683 489 669 q 405 703 435 697 q 344 708 375 708 q 294 706 319 708 q 243 694 268 703 q 196 672 218 686 q 158 637 174 657 q 133 592 142 617 q 124 542 125 568 l 97 542 q 107 599 97 571 q 135 651 117 628 q 177 690 153 674 q 229 717 201 707 q 286 730 257 726 q 344 733 315 733 q 413 727 379 733 q 476 706 446 721 q 530 665 506 690 q 569 610 554 640 q 589 546 583 579 q 594 479 594 513 l 594 0 l 568 0 l 568 135 q 531 71 554 100 q 477 23 508 42 q 410 -3 446 4 q 336 -11 374 -11 m 340 14 q 403 19 372 14 q 460 40 433 25 q 509 78 488 56 q 544 129 531 101 q 563 188 557 157 q 568 250 568 219 l 568 368 l 372 368 q 314 366 343 368 q 256 356 285 364 q 201 335 228 349 q 155 300 175 321 q 125 251 135 279 q 115 193 115 222 q 123 140 115 167 q 147 92 131 114 q 185 54 163 69 q 234 30 208 39 q 287 17 260 21 q 340 14 314 14 m 556 918 l 139 918 l 139 943 l 556 943 l 556 918 z "},"":{"ha":694,"x_min":81,"x_max":614,"o":"m 81 0 l 332 1021 l 363 1021 l 614 0 l 586 0 l 503 336 l 192 336 l 108 0 l 81 0 m 497 361 l 418 681 q 383 827 400 754 q 347 972 365 900 q 312 827 329 900 q 276 681 294 754 l 197 361 l 497 361 m 347 1132 q 273 1145 310 1132 q 212 1186 236 1158 q 177 1251 188 1214 q 167 1326 167 1289 l 194 1326 q 202 1262 194 1294 q 231 1205 210 1229 q 284 1169 253 1181 q 347 1157 315 1157 q 410 1169 379 1157 q 463 1205 442 1181 q 492 1262 485 1229 q 500 1326 500 1294 l 528 1326 q 517 1251 528 1289 q 483 1186 507 1214 q 422 1145 458 1158 q 347 1132 385 1132 z "},"":{"ha":694,"x_min":89,"x_max":594,"o":"m 336 -11 q 276 -8 306 -11 q 217 6 246 -4 q 164 35 189 17 q 122 77 139 53 q 97 131 104 101 q 89 192 89 161 q 99 256 89 225 q 131 313 108 288 q 182 353 153 338 q 242 378 211 369 q 306 390 274 388 q 372 393 339 393 l 568 393 l 568 479 q 563 539 568 508 q 544 597 557 569 q 510 647 532 624 q 462 683 489 669 q 405 703 435 697 q 344 708 375 708 q 294 706 319 708 q 243 694 268 703 q 196 672 218 686 q 158 637 174 657 q 133 592 142 617 q 124 542 125 568 l 97 542 q 107 599 97 571 q 135 651 117 628 q 177 690 153 674 q 229 717 201 707 q 286 730 257 726 q 344 733 315 733 q 413 727 379 733 q 476 706 446 721 q 530 665 506 690 q 569 610 554 640 q 589 546 583 579 q 594 479 594 513 l 594 0 l 568 0 l 568 135 q 531 71 554 100 q 477 23 508 42 q 410 -3 446 4 q 336 -11 374 -11 m 340 14 q 403 19 372 14 q 460 40 433 25 q 509 78 488 56 q 544 129 531 101 q 563 188 557 157 q 568 250 568 219 l 568 368 l 372 368 q 314 366 343 368 q 256 356 285 364 q 201 335 228 349 q 155 300 175 321 q 125 251 135 279 q 115 193 115 222 q 123 140 115 167 q 147 92 131 114 q 185 54 163 69 q 234 30 208 39 q 287 17 260 21 q 340 14 314 14 m 347 833 q 273 847 310 833 q 212 888 236 860 q 177 953 188 915 q 167 1028 167 990 l 194 1028 q 202 963 194 996 q 231 906 210 931 q 284 870 253 882 q 347 858 315 858 q 410 870 379 858 q 463 906 442 882 q 492 963 485 931 q 500 1028 500 996 l 528 1028 q 517 953 528 990 q 483 888 507 915 q 422 847 458 860 q 347 833 385 833 z "},"":{"ha":694,"x_min":81,"x_max":614,"o":"m 81 0 l 332 1021 l 363 1021 l 614 0 l 586 0 l 503 336 l 192 336 l 108 0 l 81 0 m 497 361 l 418 681 q 383 827 400 754 q 347 972 365 900 q 312 827 329 900 q 276 681 294 754 l 197 361 l 497 361 m 564 -310 q 520 -304 542 -310 q 481 -285 499 -299 q 455 -249 464 -271 q 446 -206 446 -228 q 461 -138 446 -171 q 498 -78 476 -106 q 544 -25 519 -50 q 594 24 568 0 l 594 0 q 556 -47 575 -24 q 518 -94 536 -69 q 487 -147 500 -119 q 474 -206 474 -175 q 480 -239 474 -222 q 500 -266 486 -256 q 531 -281 514 -276 q 567 -285 549 -285 q 589 -283 578 -285 q 613 -279 600 -282 l 613 -304 q 588 -308 600 -307 q 564 -310 576 -310 z "},"":{"ha":694,"x_min":89,"x_max":613,"o":"m 336 -11 q 276 -8 306 -11 q 217 6 246 -4 q 164 35 189 17 q 122 77 139 53 q 97 131 104 101 q 89 192 89 161 q 99 256 89 225 q 131 313 108 288 q 182 353 153 338 q 242 378 211 369 q 306 390 274 388 q 372 393 339 393 l 568 393 l 568 479 q 563 539 568 508 q 544 597 557 569 q 510 647 532 624 q 462 683 489 669 q 405 703 435 697 q 344 708 375 708 q 294 706 319 708 q 243 694 268 703 q 196 672 218 686 q 158 637 174 657 q 133 592 142 617 q 124 542 125 568 l 97 542 q 107 599 97 571 q 135 651 117 628 q 177 690 153 674 q 229 717 201 707 q 286 730 257 726 q 344 733 315 733 q 413 727 379 733 q 476 706 446 721 q 530 665 506 690 q 569 610 554 640 q 589 546 583 579 q 594 479 594 513 l 594 0 l 568 0 l 568 135 q 531 71 554 100 q 477 23 508 42 q 410 -3 446 4 q 336 -11 374 -11 m 340 14 q 403 19 372 14 q 460 40 433 25 q 509 78 488 56 q 544 129 531 101 q 563 188 557 157 q 568 250 568 219 l 568 368 l 372 368 q 314 366 343 368 q 256 356 285 364 q 201 335 228 349 q 155 300 175 321 q 125 251 135 279 q 115 193 115 222 q 123 140 115 167 q 147 92 131 114 q 185 54 163 69 q 234 30 208 39 q 287 17 260 21 q 340 14 314 14 m 564 -310 q 520 -304 542 -310 q 481 -285 499 -299 q 455 -249 464 -271 q 446 -206 446 -228 q 461 -138 446 -171 q 498 -78 476 -106 q 544 -25 519 -50 q 594 24 568 0 l 594 0 q 556 -47 575 -24 q 518 -94 536 -69 q 487 -147 500 -119 q 474 -206 474 -175 q 480 -239 474 -222 q 500 -266 486 -256 q 531 -281 514 -276 q 567 -285 549 -285 q 589 -283 578 -285 q 613 -279 600 -282 l 613 -304 q 588 -308 600 -307 q 564 -310 576 -310 z "},"":{"ha":694,"x_min":89,"x_max":597,"o":"m 343 -11 q 272 -3 307 -11 q 206 22 236 4 q 151 69 175 40 q 114 131 128 97 q 94 199 100 164 q 89 271 89 235 l 89 750 q 94 822 89 786 q 114 890 100 857 q 151 952 128 924 q 206 999 175 981 q 272 1024 236 1017 q 343 1032 307 1032 q 409 1026 376 1032 q 471 1007 442 1021 q 524 971 500 993 q 565 920 549 949 q 590 860 582 892 q 597 794 597 828 l 597 792 l 571 792 l 571 794 q 554 881 571 839 q 506 952 538 922 q 431 994 474 982 q 343 1007 388 1007 q 279 1000 311 1007 q 219 976 247 993 q 171 933 192 958 q 138 877 150 907 q 120 815 125 847 q 115 750 115 782 l 115 271 q 120 206 115 239 q 138 144 125 174 q 171 88 150 114 q 219 45 192 63 q 279 21 247 28 q 343 14 311 14 q 431 26 388 14 q 506 69 474 39 q 554 140 538 99 q 571 226 571 182 l 571 229 l 597 229 l 597 226 q 590 161 597 193 q 565 101 582 129 q 524 50 549 72 q 471 14 500 28 q 409 -6 442 0 q 343 -11 376 -11 m 343 1125 l 324 1139 l 457 1335 l 481 1318 l 343 1125 z "},"":{"ha":694,"x_min":89,"x_max":597,"o":"m 343 -11 q 271 -3 307 -11 q 204 24 235 4 q 150 72 174 43 q 113 135 126 101 q 94 205 99 168 q 89 278 89 242 l 89 444 q 94 517 89 481 q 113 588 99 554 q 150 650 126 621 q 204 699 174 679 q 271 726 235 718 q 343 733 307 733 q 409 728 376 733 q 471 708 442 722 q 525 672 500 694 q 566 621 550 650 q 590 560 582 592 q 597 494 597 528 l 597 493 l 571 493 l 571 494 q 554 581 571 539 q 506 653 538 624 q 431 696 474 683 q 343 708 388 708 q 278 701 311 708 q 218 676 246 693 q 169 631 190 658 q 137 574 149 604 q 120 510 125 543 q 115 444 115 478 l 115 278 q 120 212 115 244 q 137 149 125 179 q 169 91 149 118 q 218 47 190 64 q 278 22 246 29 q 343 14 311 14 q 431 26 388 14 q 506 69 474 39 q 554 141 538 99 q 571 228 571 183 l 571 229 l 597 229 l 597 228 q 590 163 597 194 q 566 101 582 131 q 525 50 550 72 q 471 14 500 28 q 409 -6 442 0 q 343 -11 376 -11 m 343 826 l 324 840 l 457 1036 l 481 1019 l 343 826 z "},"":{"ha":694,"x_min":89,"x_max":597,"o":"m 343 -11 q 272 -3 307 -11 q 206 22 236 4 q 151 69 175 40 q 114 131 128 97 q 94 199 100 164 q 89 271 89 235 l 89 750 q 94 822 89 786 q 114 890 100 857 q 151 952 128 924 q 206 999 175 981 q 272 1024 236 1017 q 343 1032 307 1032 q 409 1026 376 1032 q 471 1007 442 1021 q 524 971 500 993 q 565 920 549 949 q 590 860 582 892 q 597 794 597 828 l 597 792 l 571 792 l 571 794 q 554 881 571 839 q 506 952 538 922 q 431 994 474 982 q 343 1007 388 1007 q 279 1000 311 1007 q 219 976 247 993 q 171 933 192 958 q 138 877 150 907 q 120 815 125 847 q 115 750 115 782 l 115 271 q 120 206 115 239 q 138 144 125 174 q 171 88 150 114 q 219 45 192 63 q 279 21 247 28 q 343 14 311 14 q 431 26 388 14 q 506 69 474 39 q 554 140 538 99 q 571 226 571 182 l 571 229 l 597 229 l 597 226 q 590 161 597 193 q 565 101 582 129 q 524 50 549 72 q 471 14 500 28 q 409 -6 442 0 q 343 -11 376 -11 m 213 1128 l 190 1142 l 329 1335 l 365 1335 l 504 1142 l 482 1128 l 347 1310 l 213 1128 z "},"":{"ha":694,"x_min":89,"x_max":597,"o":"m 343 -11 q 271 -3 307 -11 q 204 24 235 4 q 150 72 174 43 q 113 135 126 101 q 94 205 99 168 q 89 278 89 242 l 89 444 q 94 517 89 481 q 113 588 99 554 q 150 650 126 621 q 204 699 174 679 q 271 726 235 718 q 343 733 307 733 q 409 728 376 733 q 471 708 442 722 q 525 672 500 694 q 566 621 550 650 q 590 560 582 592 q 597 494 597 528 l 597 493 l 571 493 l 571 494 q 554 581 571 539 q 506 653 538 624 q 431 696 474 683 q 343 708 388 708 q 278 701 311 708 q 218 676 246 693 q 169 631 190 658 q 137 574 149 604 q 120 510 125 543 q 115 444 115 478 l 115 278 q 120 212 115 244 q 137 149 125 179 q 169 91 149 118 q 218 47 190 64 q 278 22 246 29 q 343 14 311 14 q 431 26 388 14 q 506 69 474 39 q 554 141 538 99 q 571 228 571 183 l 571 229 l 597 229 l 597 228 q 590 163 597 194 q 566 101 582 131 q 525 50 550 72 q 471 14 500 28 q 409 -6 442 0 q 343 -11 376 -11 m 213 829 l 190 843 l 329 1036 l 365 1036 l 504 843 l 482 829 l 347 1011 l 213 829 z "},"":{"ha":694,"x_min":89,"x_max":597,"o":"m 343 -11 q 272 -3 307 -11 q 206 22 236 4 q 151 69 175 40 q 114 131 128 97 q 94 199 100 164 q 89 271 89 235 l 89 750 q 94 822 89 786 q 114 890 100 857 q 151 952 128 924 q 206 999 175 981 q 272 1024 236 1017 q 343 1032 307 1032 q 409 1026 376 1032 q 471 1007 442 1021 q 524 971 500 993 q 565 920 549 949 q 590 860 582 892 q 597 794 597 828 l 597 792 l 571 792 l 571 794 q 554 881 571 839 q 506 952 538 922 q 431 994 474 982 q 343 1007 388 1007 q 279 1000 311 1007 q 219 976 247 993 q 171 933 192 958 q 138 877 150 907 q 120 815 125 847 q 115 750 115 782 l 115 271 q 120 206 115 239 q 138 144 125 174 q 171 88 150 114 q 219 45 192 63 q 279 21 247 28 q 343 14 311 14 q 431 26 388 14 q 506 69 474 39 q 554 140 538 99 q 571 226 571 182 l 571 229 l 597 229 l 597 226 q 590 161 597 193 q 565 101 582 129 q 524 50 549 72 q 471 14 500 28 q 409 -6 442 0 q 343 -11 376 -11 m 347 1193 q 333 1195 340 1193 q 320 1202 325 1197 q 313 1215 315 1207 q 311 1229 311 1222 q 313 1244 311 1236 q 320 1256 315 1251 q 333 1264 325 1261 q 347 1267 340 1267 q 362 1264 354 1267 q 374 1256 369 1261 q 382 1244 379 1251 q 385 1229 385 1236 q 382 1215 385 1222 q 374 1202 379 1207 q 362 1195 369 1197 q 347 1193 354 1193 z "},"":{"ha":694,"x_min":89,"x_max":597,"o":"m 343 -11 q 271 -3 307 -11 q 204 24 235 4 q 150 72 174 43 q 113 135 126 101 q 94 205 99 168 q 89 278 89 242 l 89 444 q 94 517 89 481 q 113 588 99 554 q 150 650 126 621 q 204 699 174 679 q 271 726 235 718 q 343 733 307 733 q 409 728 376 733 q 471 708 442 722 q 525 672 500 694 q 566 621 550 650 q 590 560 582 592 q 597 494 597 528 l 597 493 l 571 493 l 571 494 q 554 581 571 539 q 506 653 538 624 q 431 696 474 683 q 343 708 388 708 q 278 701 311 708 q 218 676 246 693 q 169 631 190 658 q 137 574 149 604 q 120 510 125 543 q 115 444 115 478 l 115 278 q 120 212 115 244 q 137 149 125 179 q 169 91 149 118 q 218 47 190 64 q 278 22 246 29 q 343 14 311 14 q 431 26 388 14 q 506 69 474 39 q 554 141 538 99 q 571 228 571 183 l 571 229 l 597 229 l 597 228 q 590 163 597 194 q 566 101 582 131 q 525 50 550 72 q 471 14 500 28 q 409 -6 442 0 q 343 -11 376 -11 m 347 894 q 333 897 340 894 q 320 903 325 899 q 313 916 315 908 q 311 931 311 924 q 313 945 311 938 q 320 958 315 953 q 333 965 325 963 q 347 968 340 968 q 362 965 354 968 q 374 958 369 963 q 382 945 379 953 q 385 931 385 938 q 382 916 385 924 q 374 903 379 908 q 362 897 369 899 q 347 894 354 894 z "},"":{"ha":694,"x_min":89,"x_max":597,"o":"m 343 -11 q 272 -3 307 -11 q 206 22 236 4 q 151 69 175 40 q 114 131 128 97 q 94 199 100 164 q 89 271 89 235 l 89 750 q 94 822 89 786 q 114 890 100 857 q 151 952 128 924 q 206 999 175 981 q 272 1024 236 1017 q 343 1032 307 1032 q 409 1026 376 1032 q 471 1007 442 1021 q 524 971 500 993 q 565 920 549 949 q 590 860 582 892 q 597 794 597 828 l 597 792 l 571 792 l 571 794 q 554 881 571 839 q 506 952 538 922 q 431 994 474 982 q 343 1007 388 1007 q 279 1000 311 1007 q 219 976 247 993 q 171 933 192 958 q 138 877 150 907 q 120 815 125 847 q 115 750 115 782 l 115 271 q 120 206 115 239 q 138 144 125 174 q 171 88 150 114 q 219 45 192 63 q 279 21 247 28 q 343 14 311 14 q 431 26 388 14 q 506 69 474 39 q 554 140 538 99 q 571 226 571 182 l 571 229 l 597 229 l 597 226 q 590 161 597 193 q 565 101 582 129 q 524 50 549 72 q 471 14 500 28 q 409 -6 442 0 q 343 -11 376 -11 m 329 1132 l 190 1325 l 213 1339 l 347 1157 l 482 1339 l 504 1325 l 365 1132 l 329 1132 z "},"":{"ha":694,"x_min":89,"x_max":597,"o":"m 343 -11 q 271 -3 307 -11 q 204 24 235 4 q 150 72 174 43 q 113 135 126 101 q 94 205 99 168 q 89 278 89 242 l 89 444 q 94 517 89 481 q 113 588 99 554 q 150 650 126 621 q 204 699 174 679 q 271 726 235 718 q 343 733 307 733 q 409 728 376 733 q 471 708 442 722 q 525 672 500 694 q 566 621 550 650 q 590 560 582 592 q 597 494 597 528 l 597 493 l 571 493 l 571 494 q 554 581 571 539 q 506 653 538 624 q 431 696 474 683 q 343 708 388 708 q 278 701 311 708 q 218 676 246 693 q 169 631 190 658 q 137 574 149 604 q 120 510 125 543 q 115 444 115 478 l 115 278 q 120 212 115 244 q 137 149 125 179 q 169 91 149 118 q 218 47 190 64 q 278 22 246 29 q 343 14 311 14 q 431 26 388 14 q 506 69 474 39 q 554 141 538 99 q 571 228 571 183 l 571 229 l 597 229 l 597 228 q 590 163 597 194 q 566 101 582 131 q 525 50 550 72 q 471 14 500 28 q 409 -6 442 0 q 343 -11 376 -11 m 329 833 l 190 1026 l 213 1040 l 347 858 l 482 1040 l 504 1026 l 365 833 l 329 833 z "},"":{"ha":694,"x_min":100,"x_max":606,"o":"m 297 0 l 100 0 l 100 1021 l 297 1021 q 378 1014 338 1021 q 455 990 418 1007 q 522 944 492 972 q 572 881 553 917 q 598 804 590 844 q 606 724 606 764 l 606 299 q 598 217 606 257 q 572 140 590 176 q 522 76 553 104 q 455 31 492 49 q 378 7 418 14 q 297 0 338 0 m 126 25 l 296 25 q 371 31 333 25 q 442 53 408 38 q 503 95 475 69 q 548 154 531 121 q 572 224 565 188 q 579 299 579 261 l 579 724 q 572 797 579 760 q 548 867 565 833 q 503 926 531 900 q 442 967 475 951 q 371 990 408 983 q 296 996 333 996 l 126 996 l 126 25 m 329 1132 l 190 1325 l 213 1339 l 347 1157 l 482 1339 l 504 1325 l 365 1132 l 329 1132 z "},"":{"ha":694,"x_min":89,"x_max":656,"o":"m 619 824 l 597 833 q 622 903 614 867 q 632 978 629 940 q 628 977 629 978 q 625 976 626 976 q 613 978 619 976 q 602 985 607 981 q 596 995 597 989 q 594 1008 594 1001 q 596 1020 594 1014 q 602 1031 597 1026 q 613 1037 607 1035 q 625 1039 619 1039 q 637 1037 631 1039 q 648 1031 643 1035 q 654 1020 653 1026 q 656 1008 656 1014 q 648 914 656 961 q 619 824 640 867 m 319 -11 q 252 -3 286 -11 q 190 24 218 6 q 142 71 163 43 q 110 131 122 99 q 93 197 97 163 q 89 264 89 231 l 89 458 q 93 526 89 492 q 110 592 97 560 q 142 651 122 624 q 190 698 163 679 q 252 725 218 717 q 319 733 286 733 q 389 725 354 733 q 452 696 424 717 q 501 646 481 675 q 533 583 521 617 l 533 1021 l 560 1021 l 560 0 l 533 0 l 533 139 q 501 76 521 106 q 452 26 481 47 q 389 -3 424 6 q 319 -11 354 -11 m 324 14 q 385 22 356 14 q 441 47 415 29 q 485 89 467 64 q 514 143 503 114 q 529 203 525 172 q 533 264 533 233 l 533 458 q 529 519 533 489 q 514 579 525 550 q 485 633 503 608 q 441 676 467 658 q 385 701 415 693 q 325 708 356 708 q 263 701 293 708 q 208 676 233 693 q 164 633 182 658 q 135 579 146 608 q 119 519 124 550 q 115 458 115 489 l 115 264 q 119 203 115 233 q 135 143 124 172 q 164 89 146 114 q 208 47 182 64 q 263 22 233 29 q 324 14 293 14 z "},"":{"ha":694,"x_min":17,"x_max":606,"o":"m 297 0 l 100 0 l 100 499 l 17 499 l 17 522 l 100 522 l 100 1021 l 297 1021 q 378 1014 338 1021 q 455 990 418 1007 q 522 944 492 972 q 572 881 553 917 q 598 804 590 844 q 606 724 606 764 l 606 299 q 598 217 606 257 q 572 140 590 176 q 522 76 553 104 q 455 31 492 49 q 378 7 418 14 q 297 0 338 0 m 126 25 l 296 25 q 371 31 333 25 q 442 53 408 38 q 503 95 475 69 q 548 154 531 121 q 572 224 565 188 q 579 299 579 261 l 579 724 q 572 797 579 760 q 548 867 565 833 q 503 926 531 900 q 442 967 475 951 q 371 990 408 983 q 296 996 333 996 l 126 996 l 126 522 l 300 522 l 300 499 l 126 499 l 126 25 z "},"":{"ha":694,"x_min":89,"x_max":678,"o":"m 338 -11 q 265 -3 301 -11 q 199 25 229 6 q 147 74 169 44 q 112 136 125 103 q 94 206 99 169 q 89 278 89 242 l 89 444 q 94 517 89 481 q 112 586 99 553 q 147 649 125 619 q 199 697 169 678 q 265 725 229 717 q 338 733 301 733 q 413 724 375 733 q 481 693 450 715 q 533 640 511 671 q 568 572 556 608 l 568 860 l 394 860 l 394 883 l 568 883 l 568 1021 l 594 1021 l 594 883 l 678 883 l 678 860 l 594 860 l 594 0 l 568 0 l 568 150 q 533 83 556 114 q 481 29 511 51 q 413 -2 450 7 q 338 -11 375 -11 m 342 14 q 407 22 375 14 q 467 47 439 29 q 515 92 494 65 q 547 149 535 118 q 563 212 558 179 q 568 278 568 244 l 568 444 q 563 510 568 478 q 547 574 558 543 q 515 631 535 604 q 467 675 494 657 q 407 701 439 693 q 342 708 375 708 q 276 701 308 708 q 217 675 244 693 q 169 631 189 657 q 137 574 149 604 q 120 510 125 543 q 115 444 115 478 l 115 278 q 120 212 115 244 q 137 149 125 179 q 169 92 149 118 q 217 47 189 65 q 276 22 244 29 q 342 14 308 14 z "},"":{"ha":694,"x_min":111,"x_max":594,"o":"m 111 0 l 111 1021 l 594 1021 l 594 996 l 138 996 l 138 543 l 521 543 l 521 518 l 138 518 l 138 25 l 594 25 l 594 0 l 111 0 m 556 1217 l 139 1217 l 139 1242 l 556 1242 l 556 1217 z "},"":{"ha":694,"x_min":89,"x_max":606,"o":"m 349 -11 q 275 -3 311 -11 q 207 23 239 4 q 151 71 175 42 q 114 134 128 100 q 94 205 100 168 q 89 278 89 242 l 89 444 q 94 517 89 481 q 114 588 100 554 q 151 651 128 622 q 206 699 175 679 q 274 726 238 718 q 347 733 311 733 q 420 726 383 733 q 488 699 457 718 q 543 651 519 679 q 581 588 567 622 q 600 517 594 554 q 606 444 606 481 l 606 349 l 115 349 l 115 278 q 120 211 115 244 q 138 147 125 178 q 172 90 150 117 q 221 46 193 64 q 282 21 249 28 q 349 14 315 14 q 401 17 375 14 q 451 28 426 19 q 499 50 476 36 q 539 84 522 64 q 565 129 556 104 q 576 181 575 154 l 603 181 q 591 123 601 151 q 562 72 581 94 q 518 32 543 49 q 465 6 493 15 q 408 -8 438 -4 q 349 -11 378 -11 m 115 374 l 579 374 l 579 444 q 574 511 579 478 q 557 575 569 544 q 524 632 544 606 q 474 676 503 658 q 413 701 446 694 q 347 708 381 708 q 281 701 314 708 q 220 676 249 694 q 171 632 192 658 q 138 575 150 606 q 120 511 125 544 q 115 444 115 478 l 115 374 m 556 918 l 139 918 l 139 943 l 556 943 l 556 918 z "},"":{"ha":694,"x_min":111,"x_max":594,"o":"m 111 0 l 111 1021 l 594 1021 l 594 996 l 138 996 l 138 543 l 521 543 l 521 518 l 138 518 l 138 25 l 594 25 l 594 0 l 111 0 m 347 1132 q 273 1145 310 1132 q 212 1186 236 1158 q 177 1251 188 1214 q 167 1326 167 1289 l 194 1326 q 202 1262 194 1294 q 231 1205 210 1229 q 284 1169 253 1181 q 347 1157 315 1157 q 410 1169 379 1157 q 463 1205 442 1181 q 492 1262 485 1229 q 500 1326 500 1294 l 528 1326 q 517 1251 528 1289 q 483 1186 507 1214 q 422 1145 458 1158 q 347 1132 385 1132 z "},"":{"ha":694,"x_min":89,"x_max":606,"o":"m 349 -11 q 275 -3 311 -11 q 207 23 239 4 q 151 71 175 42 q 114 134 128 100 q 94 205 100 168 q 89 278 89 242 l 89 444 q 94 517 89 481 q 114 588 100 554 q 151 651 128 622 q 206 699 175 679 q 274 726 238 718 q 347 733 311 733 q 420 726 383 733 q 488 699 457 718 q 543 651 519 679 q 581 588 567 622 q 600 517 594 554 q 606 444 606 481 l 606 349 l 115 349 l 115 278 q 120 211 115 244 q 138 147 125 178 q 172 90 150 117 q 221 46 193 64 q 282 21 249 28 q 349 14 315 14 q 401 17 375 14 q 451 28 426 19 q 499 50 476 36 q 539 84 522 64 q 565 129 556 104 q 576 181 575 154 l 603 181 q 591 123 601 151 q 562 72 581 94 q 518 32 543 49 q 465 6 493 15 q 408 -8 438 -4 q 349 -11 378 -11 m 115 374 l 579 374 l 579 444 q 574 511 579 478 q 557 575 569 544 q 524 632 544 606 q 474 676 503 658 q 413 701 446 694 q 347 708 381 708 q 281 701 314 708 q 220 676 249 694 q 171 632 192 658 q 138 575 150 606 q 120 511 125 544 q 115 444 115 478 l 115 374 m 347 833 q 273 847 310 833 q 212 888 236 860 q 177 953 188 915 q 167 1028 167 990 l 194 1028 q 202 963 194 996 q 231 906 210 931 q 284 870 253 882 q 347 858 315 858 q 410 870 379 858 q 463 906 442 882 q 492 963 485 931 q 500 1028 500 996 l 528 1028 q 517 953 528 990 q 483 888 507 915 q 422 847 458 860 q 347 833 385 833 z "},"":{"ha":694,"x_min":111,"x_max":594,"o":"m 111 0 l 111 1021 l 594 1021 l 594 996 l 138 996 l 138 543 l 521 543 l 521 518 l 138 518 l 138 25 l 594 25 l 594 0 l 111 0 m 347 1193 q 333 1195 340 1193 q 320 1202 325 1197 q 313 1215 315 1207 q 311 1229 311 1222 q 313 1244 311 1236 q 320 1256 315 1251 q 333 1264 325 1261 q 347 1267 340 1267 q 362 1264 354 1267 q 374 1256 369 1261 q 382 1244 379 1251 q 385 1229 385 1236 q 382 1215 385 1222 q 374 1202 379 1207 q 362 1195 369 1197 q 347 1193 354 1193 z "},"":{"ha":694,"x_min":89,"x_max":606,"o":"m 349 -11 q 275 -3 311 -11 q 207 23 239 4 q 151 71 175 42 q 114 134 128 100 q 94 205 100 168 q 89 278 89 242 l 89 444 q 94 517 89 481 q 114 588 100 554 q 151 651 128 622 q 206 699 175 679 q 274 726 238 718 q 347 733 311 733 q 420 726 383 733 q 488 699 457 718 q 543 651 519 679 q 581 588 567 622 q 600 517 594 554 q 606 444 606 481 l 606 349 l 115 349 l 115 278 q 120 211 115 244 q 138 147 125 178 q 172 90 150 117 q 221 46 193 64 q 282 21 249 28 q 349 14 315 14 q 401 17 375 14 q 451 28 426 19 q 499 50 476 36 q 539 84 522 64 q 565 129 556 104 q 576 181 575 154 l 603 181 q 591 123 601 151 q 562 72 581 94 q 518 32 543 49 q 465 6 493 15 q 408 -8 438 -4 q 349 -11 378 -11 m 115 374 l 579 374 l 579 444 q 574 511 579 478 q 557 575 569 544 q 524 632 544 606 q 474 676 503 658 q 413 701 446 694 q 347 708 381 708 q 281 701 314 708 q 220 676 249 694 q 171 632 192 658 q 138 575 150 606 q 120 511 125 544 q 115 444 115 478 l 115 374 m 347 894 q 333 897 340 894 q 320 903 325 899 q 313 916 315 908 q 311 931 311 924 q 313 945 311 938 q 320 958 315 953 q 333 965 325 963 q 347 968 340 968 q 362 965 354 968 q 374 958 369 963 q 382 945 379 953 q 385 931 385 938 q 382 916 385 924 q 374 903 379 908 q 362 897 369 899 q 347 894 354 894 z "},"":{"ha":694,"x_min":111,"x_max":613,"o":"m 111 0 l 111 1021 l 594 1021 l 594 996 l 138 996 l 138 543 l 521 543 l 521 518 l 138 518 l 138 25 l 594 25 l 594 0 l 111 0 m 564 -310 q 520 -304 542 -310 q 481 -285 499 -299 q 455 -249 464 -271 q 446 -206 446 -228 q 461 -138 446 -171 q 498 -78 476 -106 q 544 -25 519 -50 q 594 24 568 0 l 594 0 q 556 -47 575 -24 q 518 -94 536 -69 q 487 -147 500 -119 q 474 -206 474 -175 q 480 -239 474 -222 q 500 -266 486 -256 q 531 -281 514 -276 q 567 -285 549 -285 q 589 -283 578 -285 q 613 -279 600 -282 l 613 -304 q 588 -308 600 -307 q 564 -310 576 -310 z "},"":{"ha":694,"x_min":89,"x_max":606,"o":"m 560 -310 q 517 -303 539 -310 q 479 -283 496 -297 q 453 -249 463 -269 q 444 -206 444 -228 q 451 -158 444 -182 q 468 -111 458 -133 q 490 -67 478 -89 q 514 -24 501 -46 q 538 19 526 -3 q 557 64 549 42 q 513 28 538 43 q 460 4 488 13 q 405 -8 433 -4 q 349 -11 376 -11 q 275 -3 311 -11 q 207 23 239 4 q 151 71 175 42 q 114 134 128 100 q 94 205 100 168 q 89 278 89 242 l 89 444 q 94 517 89 481 q 114 588 100 554 q 151 651 128 622 q 206 699 175 679 q 274 726 238 718 q 347 733 311 733 q 420 726 383 733 q 488 699 457 718 q 543 651 519 679 q 581 588 567 622 q 600 517 594 554 q 606 444 606 481 l 606 349 l 115 349 l 115 278 q 120 211 115 244 q 138 147 125 178 q 172 90 150 117 q 221 46 193 64 q 282 21 249 28 q 349 14 315 14 q 401 17 375 14 q 451 28 426 19 q 499 50 476 36 q 539 84 522 64 q 565 129 556 104 q 576 181 575 154 l 603 181 q 599 129 603 154 q 588 79 596 104 q 570 31 581 54 q 547 -16 560 7 q 522 -61 535 -39 q 499 -107 510 -83 q 480 -155 489 -131 q 471 -206 471 -179 q 478 -238 471 -222 q 499 -265 486 -254 q 529 -280 513 -275 q 563 -285 546 -285 q 583 -283 574 -285 q 603 -279 593 -282 l 603 -304 q 582 -308 593 -307 q 560 -310 571 -310 m 115 374 l 579 374 l 579 444 q 574 511 579 478 q 557 575 569 544 q 524 632 544 606 q 474 676 503 658 q 413 701 446 694 q 347 708 381 708 q 281 701 314 708 q 220 676 249 694 q 171 632 192 658 q 138 575 150 606 q 120 511 125 544 q 115 444 115 478 l 115 374 z "},"":{"ha":694,"x_min":111,"x_max":594,"o":"m 111 0 l 111 1021 l 594 1021 l 594 996 l 138 996 l 138 543 l 521 543 l 521 518 l 138 518 l 138 25 l 594 25 l 594 0 l 111 0 m 329 1132 l 190 1325 l 213 1339 l 347 1157 l 482 1339 l 504 1325 l 365 1132 l 329 1132 z "},"":{"ha":694,"x_min":89,"x_max":606,"o":"m 349 -11 q 275 -3 311 -11 q 207 23 239 4 q 151 71 175 42 q 114 134 128 100 q 94 205 100 168 q 89 278 89 242 l 89 444 q 94 517 89 481 q 114 588 100 554 q 151 651 128 622 q 206 699 175 679 q 274 726 238 718 q 347 733 311 733 q 420 726 383 733 q 488 699 457 718 q 543 651 519 679 q 581 588 567 622 q 600 517 594 554 q 606 444 606 481 l 606 349 l 115 349 l 115 278 q 120 211 115 244 q 138 147 125 178 q 172 90 150 117 q 221 46 193 64 q 282 21 249 28 q 349 14 315 14 q 401 17 375 14 q 451 28 426 19 q 499 50 476 36 q 539 84 522 64 q 565 129 556 104 q 576 181 575 154 l 603 181 q 591 123 601 151 q 562 72 581 94 q 518 32 543 49 q 465 6 493 15 q 408 -8 438 -4 q 349 -11 378 -11 m 115 374 l 579 374 l 579 444 q 574 511 579 478 q 557 575 569 544 q 524 632 544 606 q 474 676 503 658 q 413 701 446 694 q 347 708 381 708 q 281 701 314 708 q 220 676 249 694 q 171 632 192 658 q 138 575 150 606 q 120 511 125 544 q 115 444 115 478 l 115 374 m 329 833 l 190 1026 l 213 1040 l 347 858 l 482 1040 l 504 1026 l 365 833 l 329 833 z "},"":{"ha":694,"x_min":89,"x_max":597,"o":"m 338 -11 q 266 -3 301 -11 q 201 23 231 4 q 149 70 171 42 q 113 131 126 99 q 94 199 99 164 q 89 271 89 235 l 89 750 q 94 822 89 786 q 114 890 100 857 q 151 952 128 924 q 206 999 175 981 q 272 1024 236 1017 q 343 1032 307 1032 q 409 1026 376 1032 q 471 1007 442 1021 q 524 971 500 993 q 565 920 549 949 q 590 860 582 892 q 597 794 597 828 l 597 792 l 571 792 l 571 794 q 554 881 571 839 q 506 952 538 922 q 431 994 474 982 q 343 1007 388 1007 q 279 1000 311 1007 q 219 976 247 993 q 171 933 192 958 q 138 877 150 907 q 120 815 125 847 q 115 750 115 782 l 115 271 q 120 206 115 239 q 138 144 125 174 q 170 88 150 114 q 218 45 190 63 q 278 21 246 28 q 342 14 310 14 q 406 21 374 14 q 465 45 438 28 q 513 88 493 63 q 546 144 533 114 q 563 206 558 174 q 568 271 568 239 l 568 513 l 347 513 l 347 538 l 594 538 l 594 0 l 568 0 l 568 147 q 533 81 556 113 q 481 28 511 49 q 413 -2 450 7 q 338 -11 375 -11 m 213 1128 l 190 1142 l 329 1335 l 365 1335 l 504 1142 l 482 1128 l 347 1310 l 213 1128 z "},"":{"ha":694,"x_min":89,"x_max":594,"o":"m 343 -310 q 287 -306 315 -310 q 232 -294 258 -303 q 181 -271 206 -286 q 138 -235 157 -256 q 109 -187 119 -214 q 97 -132 99 -160 l 124 -132 q 147 -201 126 -169 q 200 -252 168 -233 q 269 -278 232 -271 q 343 -285 306 -285 q 408 -277 375 -285 q 467 -251 440 -269 q 515 -207 494 -233 q 547 -150 535 -181 q 563 -87 558 -119 q 568 -21 568 -54 l 568 150 q 533 83 556 114 q 481 29 511 51 q 413 -2 450 7 q 338 -11 375 -11 q 265 -3 301 -11 q 199 25 229 6 q 147 74 169 44 q 112 136 125 103 q 94 206 99 169 q 89 278 89 242 l 89 444 q 94 517 89 481 q 112 586 99 553 q 147 649 125 619 q 199 697 169 678 q 265 725 229 717 q 338 733 301 733 q 413 724 375 733 q 481 693 450 715 q 533 640 511 671 q 568 572 556 608 l 568 722 l 594 722 l 594 -21 q 590 -93 594 -57 q 571 -163 585 -129 q 535 -226 557 -197 q 482 -274 513 -254 q 415 -301 451 -293 q 343 -310 379 -310 m 342 14 q 407 22 375 14 q 467 47 439 29 q 515 92 494 65 q 547 149 535 118 q 563 212 558 179 q 568 278 568 244 l 568 444 q 563 510 568 478 q 547 574 558 543 q 515 631 535 604 q 467 675 494 657 q 407 701 439 693 q 342 708 375 708 q 276 701 308 708 q 217 675 244 693 q 169 631 189 657 q 137 574 149 604 q 120 510 125 543 q 115 444 115 478 l 115 278 q 120 212 115 244 q 137 149 125 179 q 169 92 149 118 q 217 47 189 65 q 276 22 244 29 q 342 14 308 14 m 213 829 l 190 843 l 329 1036 l 365 1036 l 504 843 l 482 829 l 347 1011 l 213 829 z "},"":{"ha":694,"x_min":89,"x_max":597,"o":"m 338 -11 q 266 -3 301 -11 q 201 23 231 4 q 149 70 171 42 q 113 131 126 99 q 94 199 99 164 q 89 271 89 235 l 89 750 q 94 822 89 786 q 114 890 100 857 q 151 952 128 924 q 206 999 175 981 q 272 1024 236 1017 q 343 1032 307 1032 q 409 1026 376 1032 q 471 1007 442 1021 q 524 971 500 993 q 565 920 549 949 q 590 860 582 892 q 597 794 597 828 l 597 792 l 571 792 l 571 794 q 554 881 571 839 q 506 952 538 922 q 431 994 474 982 q 343 1007 388 1007 q 279 1000 311 1007 q 219 976 247 993 q 171 933 192 958 q 138 877 150 907 q 120 815 125 847 q 115 750 115 782 l 115 271 q 120 206 115 239 q 138 144 125 174 q 170 88 150 114 q 218 45 190 63 q 278 21 246 28 q 342 14 310 14 q 406 21 374 14 q 465 45 438 28 q 513 88 493 63 q 546 144 533 114 q 563 206 558 174 q 568 271 568 239 l 568 513 l 347 513 l 347 538 l 594 538 l 594 0 l 568 0 l 568 147 q 533 81 556 113 q 481 28 511 49 q 413 -2 450 7 q 338 -11 375 -11 m 347 1132 q 273 1145 310 1132 q 212 1186 236 1158 q 177 1251 188 1214 q 167 1326 167 1289 l 194 1326 q 202 1262 194 1294 q 231 1205 210 1229 q 284 1169 253 1181 q 347 1157 315 1157 q 410 1169 379 1157 q 463 1205 442 1181 q 492 1262 485 1229 q 500 1326 500 1294 l 528 1326 q 517 1251 528 1289 q 483 1186 507 1214 q 422 1145 458 1158 q 347 1132 385 1132 z "},"":{"ha":694,"x_min":89,"x_max":594,"o":"m 343 -310 q 287 -306 315 -310 q 232 -294 258 -303 q 181 -271 206 -286 q 138 -235 157 -256 q 109 -187 119 -214 q 97 -132 99 -160 l 124 -132 q 147 -201 126 -169 q 200 -252 168 -233 q 269 -278 232 -271 q 343 -285 306 -285 q 408 -277 375 -285 q 467 -251 440 -269 q 515 -207 494 -233 q 547 -150 535 -181 q 563 -87 558 -119 q 568 -21 568 -54 l 568 150 q 533 83 556 114 q 481 29 511 51 q 413 -2 450 7 q 338 -11 375 -11 q 265 -3 301 -11 q 199 25 229 6 q 147 74 169 44 q 112 136 125 103 q 94 206 99 169 q 89 278 89 242 l 89 444 q 94 517 89 481 q 112 586 99 553 q 147 649 125 619 q 199 697 169 678 q 265 725 229 717 q 338 733 301 733 q 413 724 375 733 q 481 693 450 715 q 533 640 511 671 q 568 572 556 608 l 568 722 l 594 722 l 594 -21 q 590 -93 594 -57 q 571 -163 585 -129 q 535 -226 557 -197 q 482 -274 513 -254 q 415 -301 451 -293 q 343 -310 379 -310 m 342 14 q 407 22 375 14 q 467 47 439 29 q 515 92 494 65 q 547 149 535 118 q 563 212 558 179 q 568 278 568 244 l 568 444 q 563 510 568 478 q 547 574 558 543 q 515 631 535 604 q 467 675 494 657 q 407 701 439 693 q 342 708 375 708 q 276 701 308 708 q 217 675 244 693 q 169 631 189 657 q 137 574 149 604 q 120 510 125 543 q 115 444 115 478 l 115 278 q 120 212 115 244 q 137 149 125 179 q 169 92 149 118 q 217 47 189 65 q 276 22 244 29 q 342 14 308 14 m 347 833 q 273 847 310 833 q 212 888 236 860 q 177 953 188 915 q 167 1028 167 990 l 194 1028 q 202 963 194 996 q 231 906 210 931 q 284 870 253 882 q 347 858 315 858 q 410 870 379 858 q 463 906 442 882 q 492 963 485 931 q 500 1028 500 996 l 528 1028 q 517 953 528 990 q 483 888 507 915 q 422 847 458 860 q 347 833 385 833 z "},"":{"ha":694,"x_min":89,"x_max":597,"o":"m 338 -11 q 266 -3 301 -11 q 201 23 231 4 q 149 70 171 42 q 113 131 126 99 q 94 199 99 164 q 89 271 89 235 l 89 750 q 94 822 89 786 q 114 890 100 857 q 151 952 128 924 q 206 999 175 981 q 272 1024 236 1017 q 343 1032 307 1032 q 409 1026 376 1032 q 471 1007 442 1021 q 524 971 500 993 q 565 920 549 949 q 590 860 582 892 q 597 794 597 828 l 597 792 l 571 792 l 571 794 q 554 881 571 839 q 506 952 538 922 q 431 994 474 982 q 343 1007 388 1007 q 279 1000 311 1007 q 219 976 247 993 q 171 933 192 958 q 138 877 150 907 q 120 815 125 847 q 115 750 115 782 l 115 271 q 120 206 115 239 q 138 144 125 174 q 170 88 150 114 q 218 45 190 63 q 278 21 246 28 q 342 14 310 14 q 406 21 374 14 q 465 45 438 28 q 513 88 493 63 q 546 144 533 114 q 563 206 558 174 q 568 271 568 239 l 568 513 l 347 513 l 347 538 l 594 538 l 594 0 l 568 0 l 568 147 q 533 81 556 113 q 481 28 511 49 q 413 -2 450 7 q 338 -11 375 -11 m 347 1193 q 333 1195 340 1193 q 320 1202 325 1197 q 313 1215 315 1207 q 311 1229 311 1222 q 313 1244 311 1236 q 320 1256 315 1251 q 333 1264 325 1261 q 347 1267 340 1267 q 362 1264 354 1267 q 374 1256 369 1261 q 382 1244 379 1251 q 385 1229 385 1236 q 382 1215 385 1222 q 374 1202 379 1207 q 362 1195 369 1197 q 347 1193 354 1193 z "},"":{"ha":694,"x_min":89,"x_max":594,"o":"m 343 -310 q 287 -306 315 -310 q 232 -294 258 -303 q 181 -271 206 -286 q 138 -235 157 -256 q 109 -187 119 -214 q 97 -132 99 -160 l 124 -132 q 147 -201 126 -169 q 200 -252 168 -233 q 269 -278 232 -271 q 343 -285 306 -285 q 408 -277 375 -285 q 467 -251 440 -269 q 515 -207 494 -233 q 547 -150 535 -181 q 563 -87 558 -119 q 568 -21 568 -54 l 568 150 q 533 83 556 114 q 481 29 511 51 q 413 -2 450 7 q 338 -11 375 -11 q 265 -3 301 -11 q 199 25 229 6 q 147 74 169 44 q 112 136 125 103 q 94 206 99 169 q 89 278 89 242 l 89 444 q 94 517 89 481 q 112 586 99 553 q 147 649 125 619 q 199 697 169 678 q 265 725 229 717 q 338 733 301 733 q 413 724 375 733 q 481 693 450 715 q 533 640 511 671 q 568 572 556 608 l 568 722 l 594 722 l 594 -21 q 590 -93 594 -57 q 571 -163 585 -129 q 535 -226 557 -197 q 482 -274 513 -254 q 415 -301 451 -293 q 343 -310 379 -310 m 342 14 q 407 22 375 14 q 467 47 439 29 q 515 92 494 65 q 547 149 535 118 q 563 212 558 179 q 568 278 568 244 l 568 444 q 563 510 568 478 q 547 574 558 543 q 515 631 535 604 q 467 675 494 657 q 407 701 439 693 q 342 708 375 708 q 276 701 308 708 q 217 675 244 693 q 169 631 189 657 q 137 574 149 604 q 120 510 125 543 q 115 444 115 478 l 115 278 q 120 212 115 244 q 137 149 125 179 q 169 92 149 118 q 217 47 189 65 q 276 22 244 29 q 342 14 308 14 m 347 894 q 333 897 340 894 q 320 903 325 899 q 313 916 315 908 q 311 931 311 924 q 313 945 311 938 q 320 958 315 953 q 333 965 325 963 q 347 968 340 968 q 362 965 354 968 q 374 958 369 963 q 382 945 379 953 q 385 931 385 938 q 382 916 385 924 q 374 903 379 908 q 362 897 369 899 q 347 894 354 894 z "},"":{"ha":694,"x_min":89,"x_max":597,"o":"m 338 -11 q 266 -3 301 -11 q 201 23 231 4 q 149 70 171 42 q 113 131 126 99 q 94 199 99 164 q 89 271 89 235 l 89 750 q 94 822 89 786 q 114 890 100 857 q 151 952 128 924 q 206 999 175 981 q 272 1024 236 1017 q 343 1032 307 1032 q 409 1026 376 1032 q 471 1007 442 1021 q 524 971 500 993 q 565 920 549 949 q 590 860 582 892 q 597 794 597 828 l 597 792 l 571 792 l 571 794 q 554 881 571 839 q 506 952 538 922 q 431 994 474 982 q 343 1007 388 1007 q 279 1000 311 1007 q 219 976 247 993 q 171 933 192 958 q 138 877 150 907 q 120 815 125 847 q 115 750 115 782 l 115 271 q 120 206 115 239 q 138 144 125 174 q 170 88 150 114 q 218 45 190 63 q 278 21 246 28 q 342 14 310 14 q 406 21 374 14 q 465 45 438 28 q 513 88 493 63 q 546 144 533 114 q 563 206 558 174 q 568 271 568 239 l 568 513 l 347 513 l 347 538 l 594 538 l 594 0 l 568 0 l 568 147 q 533 81 556 113 q 481 28 511 49 q 413 -2 450 7 q 338 -11 375 -11 m 342 -307 l 319 -296 q 344 -226 336 -262 q 354 -153 351 -190 l 347 -153 q 335 -151 342 -153 q 324 -145 329 -150 q 318 -134 319 -140 q 317 -122 317 -128 q 318 -110 317 -115 q 324 -99 319 -104 q 335 -93 329 -94 q 347 -92 342 -92 q 359 -93 353 -92 q 370 -99 365 -94 q 376 -110 375 -104 q 378 -122 378 -115 q 370 -217 378 -169 q 342 -307 363 -264 z "},"":{"ha":694,"x_min":89,"x_max":594,"o":"m 343 -310 q 287 -306 315 -310 q 232 -294 258 -303 q 181 -271 206 -286 q 138 -235 157 -256 q 109 -187 119 -214 q 97 -132 99 -160 l 124 -132 q 147 -201 126 -169 q 200 -252 168 -233 q 269 -278 232 -271 q 343 -285 306 -285 q 408 -277 375 -285 q 467 -251 440 -269 q 515 -207 494 -233 q 547 -150 535 -181 q 563 -87 558 -119 q 568 -21 568 -54 l 568 150 q 533 83 556 114 q 481 29 511 51 q 413 -2 450 7 q 338 -11 375 -11 q 265 -3 301 -11 q 199 25 229 6 q 147 74 169 44 q 112 136 125 103 q 94 206 99 169 q 89 278 89 242 l 89 444 q 94 517 89 481 q 112 586 99 553 q 147 649 125 619 q 199 697 169 678 q 265 725 229 717 q 338 733 301 733 q 413 724 375 733 q 481 693 450 715 q 533 640 511 671 q 568 572 556 608 l 568 722 l 594 722 l 594 -21 q 590 -93 594 -57 q 571 -163 585 -129 q 535 -226 557 -197 q 482 -274 513 -254 q 415 -301 451 -293 q 343 -310 379 -310 m 342 14 q 407 22 375 14 q 467 47 439 29 q 515 92 494 65 q 547 149 535 118 q 563 212 558 179 q 568 278 568 244 l 568 444 q 563 510 568 478 q 547 574 558 543 q 515 631 535 604 q 467 675 494 657 q 407 701 439 693 q 342 708 375 708 q 276 701 308 708 q 217 675 244 693 q 169 631 189 657 q 137 574 149 604 q 120 510 125 543 q 115 444 115 478 l 115 278 q 120 212 115 244 q 137 149 125 179 q 169 92 149 118 q 217 47 189 65 q 276 22 244 29 q 342 14 308 14 m 347 814 q 335 815 342 814 q 324 822 329 817 q 318 832 319 826 q 317 844 317 838 q 324 939 317 892 q 353 1029 332 986 l 375 1018 q 351 949 358 985 q 340 875 343 913 l 347 875 q 359 874 353 875 q 370 867 365 872 q 376 856 375 863 q 378 844 378 850 q 376 832 378 838 q 370 822 375 826 q 359 815 365 817 q 347 814 353 814 z "},"":{"ha":694,"x_min":100,"x_max":594,"o":"m 100 0 l 100 1021 l 126 1021 l 126 546 l 568 546 l 568 1021 l 594 1021 l 594 0 l 568 0 l 568 521 l 126 521 l 126 0 l 100 0 m 213 1128 l 190 1142 l 329 1335 l 365 1335 l 504 1142 l 482 1128 l 347 1310 l 213 1128 z "},"":{"ha":694,"x_min":-44,"x_max":594,"o":"m 100 0 l 100 1021 l 126 1021 l 126 574 q 160 640 139 608 q 211 693 181 671 q 278 724 242 715 q 351 733 314 733 q 423 725 388 733 q 488 697 458 717 q 538 647 517 676 q 572 585 560 618 q 590 516 585 551 q 594 444 594 481 l 594 0 l 568 0 l 568 444 q 564 509 568 476 q 548 572 560 542 q 517 629 536 603 q 471 674 497 656 q 412 701 444 693 q 347 708 379 708 q 283 701 315 708 q 224 674 250 693 q 178 629 197 656 q 147 572 158 603 q 131 509 135 542 q 126 444 126 476 l 126 0 l 100 0 m -21 1128 l -43 1142 l 96 1335 l 132 1335 l 271 1142 l 249 1128 l 114 1310 l -21 1128 z "},"":{"ha":694,"x_min":31,"x_max":664,"o":"m 100 0 l 100 771 l 31 771 l 31 796 l 100 796 l 100 1021 l 126 1021 l 126 796 l 568 796 l 568 1021 l 594 1021 l 594 796 l 664 796 l 664 771 l 594 771 l 594 0 l 568 0 l 568 521 l 126 521 l 126 0 l 100 0 m 126 546 l 568 546 l 568 771 l 126 771 l 126 546 z "},"":{"ha":694,"x_min":31,"x_max":594,"o":"m 100 0 l 100 844 l 31 844 l 31 869 l 100 869 l 100 1021 l 126 1021 l 126 869 l 347 869 l 347 844 l 126 844 l 126 574 q 160 640 139 608 q 211 693 181 671 q 278 724 242 715 q 351 733 314 733 q 423 725 388 733 q 488 697 458 717 q 538 647 517 676 q 572 585 560 618 q 590 516 585 551 q 594 444 594 481 l 594 0 l 568 0 l 568 444 q 564 509 568 476 q 548 572 560 542 q 517 629 536 603 q 471 674 497 656 q 412 701 444 693 q 347 708 379 708 q 283 701 315 708 q 224 674 250 693 q 178 629 197 656 q 147 572 158 603 q 131 509 135 542 q 126 444 126 476 l 126 0 l 100 0 z "},"":{"ha":694,"x_min":104,"x_max":590,"o":"m 104 0 l 104 25 l 333 25 l 333 996 l 104 996 l 104 1021 l 590 1021 l 590 996 l 361 996 l 361 25 l 590 25 l 590 0 l 104 0 m 431 1129 q 415 1132 422 1129 q 400 1139 407 1135 q 388 1149 393 1143 q 377 1160 382 1154 q 368 1173 372 1167 q 360 1185 364 1179 q 351 1199 356 1192 q 343 1214 347 1207 q 335 1228 339 1221 q 326 1242 331 1235 q 318 1257 322 1250 q 310 1270 314 1264 q 301 1283 306 1276 q 290 1294 296 1289 q 278 1305 285 1300 q 264 1310 271 1310 q 251 1306 257 1310 q 242 1299 246 1303 q 233 1290 238 1296 q 224 1278 229 1285 q 216 1269 218 1272 q 211 1261 214 1265 q 206 1252 208 1257 q 201 1242 204 1247 q 195 1232 199 1238 q 189 1221 192 1226 q 183 1209 186 1215 q 177 1196 181 1203 q 171 1181 174 1189 q 165 1166 168 1174 q 158 1150 161 1158 q 151 1133 154 1142 l 126 1142 q 138 1172 132 1158 q 150 1199 144 1186 q 161 1223 156 1211 q 172 1244 167 1235 q 182 1263 176 1254 q 192 1280 188 1272 q 205 1297 197 1288 q 222 1315 213 1307 q 241 1328 231 1322 q 264 1335 251 1335 q 280 1332 272 1335 q 294 1325 288 1329 q 307 1315 301 1321 q 317 1303 313 1310 q 326 1291 322 1297 q 335 1278 331 1285 q 343 1265 339 1272 q 351 1250 347 1257 q 360 1236 356 1243 q 368 1222 364 1229 q 376 1207 372 1214 q 385 1194 381 1200 q 394 1181 389 1188 q 404 1169 399 1175 q 417 1159 410 1164 q 431 1154 424 1154 q 443 1158 438 1154 q 453 1165 449 1161 q 461 1174 457 1168 q 471 1185 465 1179 q 478 1195 476 1192 q 483 1203 481 1199 q 488 1212 486 1207 q 493 1222 490 1217 q 499 1232 496 1226 q 506 1243 503 1238 q 511 1255 508 1249 q 517 1268 514 1261 q 524 1283 521 1275 q 530 1298 526 1290 q 537 1314 533 1306 q 543 1331 540 1322 l 568 1322 q 556 1292 563 1306 q 544 1265 550 1278 q 533 1241 539 1253 q 523 1219 528 1229 q 513 1201 518 1210 q 502 1184 507 1192 q 490 1167 497 1176 q 473 1149 482 1157 q 453 1135 464 1142 q 431 1129 443 1129 z "},"":{"ha":694,"x_min":104,"x_max":590,"o":"m 104 0 l 104 25 l 343 25 l 343 697 l 124 697 l 124 722 l 371 722 l 371 25 l 590 25 l 590 0 l 104 0 m 431 831 q 415 833 422 831 q 400 840 407 836 q 388 850 393 844 q 377 862 382 856 q 368 874 372 868 q 360 887 364 881 q 351 901 356 893 q 343 915 347 908 q 335 929 339 922 q 326 944 331 936 q 318 958 322 951 q 310 972 314 965 q 301 984 306 978 q 290 996 296 990 q 278 1006 285 1001 q 264 1011 271 1011 q 251 1008 257 1011 q 242 1001 246 1004 q 233 992 238 997 q 224 980 229 986 q 216 970 218 974 q 211 963 214 967 q 206 953 208 958 q 201 944 204 949 q 195 933 199 939 q 189 922 192 928 q 183 910 186 917 q 177 897 181 904 q 171 883 174 890 q 165 867 168 875 q 158 851 161 860 q 151 835 154 843 l 126 843 q 138 874 132 860 q 150 900 144 888 q 161 924 156 913 q 172 946 167 936 q 182 965 176 956 q 192 981 188 974 q 205 999 197 989 q 222 1016 213 1008 q 241 1030 231 1024 q 264 1036 251 1036 q 280 1033 272 1036 q 294 1026 288 1031 q 307 1017 301 1022 q 317 1005 313 1011 q 326 992 322 999 q 335 980 331 986 q 343 966 339 974 q 351 951 347 958 q 360 938 356 944 q 368 923 364 931 q 376 908 372 915 q 385 895 381 901 q 394 883 389 889 q 404 871 399 876 q 417 860 410 865 q 431 856 424 856 q 443 859 438 856 q 453 866 449 863 q 461 875 457 869 q 471 887 465 881 q 478 897 476 893 q 483 904 481 900 q 488 913 486 908 q 493 923 490 918 q 499 933 496 928 q 506 944 503 939 q 511 956 508 950 q 517 969 514 963 q 524 984 521 976 q 530 999 526 992 q 537 1015 533 1007 q 543 1032 540 1024 l 568 1024 q 556 993 563 1007 q 544 967 550 979 q 533 942 539 954 q 523 921 528 931 q 513 902 518 911 q 502 885 507 893 q 490 868 497 878 q 473 851 482 858 q 453 837 464 843 q 431 831 443 831 z "},"":{"ha":694,"x_min":104,"x_max":590,"o":"m 104 0 l 104 25 l 333 25 l 333 996 l 104 996 l 104 1021 l 590 1021 l 590 996 l 361 996 l 361 25 l 590 25 l 590 0 l 104 0 m 556 1217 l 139 1217 l 139 1242 l 556 1242 l 556 1217 z "},"":{"ha":694,"x_min":104,"x_max":590,"o":"m 104 0 l 104 25 l 343 25 l 343 697 l 124 697 l 124 722 l 371 722 l 371 25 l 590 25 l 590 0 l 104 0 m 556 918 l 139 918 l 139 943 l 556 943 l 556 918 z "},"":{"ha":694,"x_min":104,"x_max":590,"o":"m 104 0 l 104 25 l 333 25 l 333 996 l 104 996 l 104 1021 l 590 1021 l 590 996 l 361 996 l 361 25 l 590 25 l 590 0 l 104 0 m 347 1132 q 273 1145 310 1132 q 212 1186 236 1158 q 177 1251 188 1214 q 167 1326 167 1289 l 194 1326 q 202 1262 194 1294 q 231 1205 210 1229 q 284 1169 253 1181 q 347 1157 315 1157 q 410 1169 379 1157 q 463 1205 442 1181 q 492 1262 485 1229 q 500 1326 500 1294 l 528 1326 q 517 1251 528 1289 q 483 1186 507 1214 q 422 1145 458 1158 q 347 1132 385 1132 z "},"":{"ha":694,"x_min":104,"x_max":590,"o":"m 104 0 l 104 25 l 343 25 l 343 697 l 124 697 l 124 722 l 371 722 l 371 25 l 590 25 l 590 0 l 104 0 m 347 833 q 273 847 310 833 q 212 888 236 860 q 177 953 188 915 q 167 1028 167 990 l 194 1028 q 202 963 194 996 q 231 906 210 931 q 284 870 253 882 q 347 858 315 858 q 410 870 379 858 q 463 906 442 882 q 492 963 485 931 q 500 1028 500 996 l 528 1028 q 517 953 528 990 q 483 888 507 915 q 422 847 458 860 q 347 833 385 833 z "},"":{"ha":694,"x_min":104,"x_max":608,"o":"m 104 0 l 104 25 l 333 25 l 333 996 l 104 996 l 104 1021 l 590 1021 l 590 996 l 361 996 l 361 25 l 590 25 l 590 0 l 104 0 m 560 -310 q 516 -304 538 -310 q 477 -285 494 -299 q 451 -249 460 -271 q 442 -206 442 -228 q 457 -138 442 -171 q 494 -78 472 -106 q 540 -25 515 -50 q 590 24 564 0 l 590 0 q 551 -47 571 -24 q 514 -94 532 -69 q 483 -147 496 -119 q 469 -206 469 -175 q 476 -239 469 -222 q 496 -266 482 -256 q 527 -281 510 -276 q 563 -285 544 -285 q 585 -283 574 -285 q 608 -279 596 -282 l 608 -304 q 584 -308 596 -307 q 560 -310 572 -310 z "},"":{"ha":694,"x_min":104,"x_max":608,"o":"m 104 0 l 104 25 l 343 25 l 343 697 l 124 697 l 124 722 l 371 722 l 371 25 l 590 25 l 590 0 l 104 0 m 354 894 q 340 897 347 894 q 327 903 332 899 q 320 916 322 908 q 318 931 318 924 q 320 945 318 938 q 327 958 322 953 q 340 965 332 963 q 354 968 347 968 q 369 965 361 968 q 381 958 376 963 q 389 945 386 953 q 392 931 392 938 q 389 916 392 924 q 381 903 386 908 q 369 897 376 899 q 354 894 361 894 m 560 -310 q 516 -304 538 -310 q 477 -285 494 -299 q 451 -249 460 -271 q 442 -206 442 -228 q 457 -138 442 -171 q 494 -78 472 -106 q 540 -25 515 -50 q 590 24 564 0 l 590 0 q 551 -47 571 -24 q 514 -94 532 -69 q 483 -147 496 -119 q 469 -206 469 -175 q 476 -239 469 -222 q 496 -266 482 -256 q 527 -281 510 -276 q 563 -285 544 -285 q 585 -283 574 -285 q 608 -279 596 -282 l 608 -304 q 584 -308 596 -307 q 560 -310 572 -310 z "},"":{"ha":694,"x_min":104,"x_max":590,"o":"m 104 0 l 104 25 l 333 25 l 333 996 l 104 996 l 104 1021 l 590 1021 l 590 996 l 361 996 l 361 25 l 590 25 l 590 0 l 104 0 m 347 1193 q 333 1195 340 1193 q 320 1202 325 1197 q 313 1215 315 1207 q 311 1229 311 1222 q 313 1244 311 1236 q 320 1256 315 1251 q 333 1264 325 1261 q 347 1267 340 1267 q 362 1264 354 1267 q 374 1256 369 1261 q 382 1244 379 1251 q 385 1229 385 1236 q 382 1215 385 1222 q 374 1202 379 1207 q 362 1195 369 1197 q 347 1193 354 1193 z "},"":{"ha":694,"x_min":104,"x_max":590,"o":"m 104 0 l 104 25 l 343 25 l 343 697 l 124 697 l 124 722 l 371 722 l 371 25 l 590 25 l 590 0 l 104 0 z "},"":{"ha":694,"x_min":72,"x_max":715,"o":"m 325 -11 q 260 -6 292 -11 q 198 14 228 0 q 144 50 168 28 q 103 101 119 72 q 80 161 88 129 q 72 226 72 193 l 72 229 l 99 229 l 99 226 q 115 140 99 182 q 163 69 131 99 q 238 26 196 39 q 325 14 281 14 q 390 21 357 14 q 449 45 422 28 q 497 88 476 63 q 531 144 518 114 q 547 206 543 174 q 551 271 551 239 l 551 996 l 322 996 l 322 1021 l 578 1021 l 578 271 q 573 199 578 235 q 554 131 568 164 q 517 69 540 97 q 463 22 493 40 q 397 -3 432 4 q 325 -11 361 -11 m 424 1128 l 401 1142 l 540 1335 l 576 1335 l 715 1142 l 693 1128 l 558 1310 l 424 1128 z "},"":{"ha":694,"x_min":68,"x_max":582,"o":"m 257 -310 q 181 -296 218 -310 q 119 -253 144 -282 q 81 -187 93 -225 q 68 -111 69 -150 l 96 -111 q 106 -177 96 -144 q 138 -235 117 -210 q 192 -272 160 -260 q 257 -285 224 -285 q 312 -274 285 -285 q 358 -242 339 -262 q 390 -195 378 -221 q 410 -142 403 -169 q 419 -85 417 -114 q 421 -28 421 -57 l 421 697 l 192 697 l 192 722 l 449 722 l 449 -28 q 446 -92 449 -60 q 434 -154 443 -124 q 410 -214 425 -185 q 373 -265 396 -243 q 319 -299 350 -287 q 257 -310 289 -310 m 289 829 l 267 843 l 406 1036 l 442 1036 l 581 843 l 558 829 l 424 1011 l 289 829 z "},"":{"ha":694,"x_min":122,"x_max":590,"o":"m 560 0 l 244 540 l 149 407 l 149 0 l 122 0 l 122 1021 l 149 1021 l 149 451 l 558 1021 l 590 1021 l 261 564 l 590 0 l 560 0 m 342 -307 l 319 -296 q 344 -226 336 -262 q 354 -153 351 -190 l 347 -153 q 335 -151 342 -153 q 324 -145 329 -150 q 318 -134 319 -140 q 317 -122 317 -128 q 318 -110 317 -115 q 324 -99 319 -104 q 335 -93 329 -94 q 347 -92 342 -92 q 359 -93 353 -92 q 370 -99 365 -94 q 376 -110 375 -104 q 378 -122 378 -115 q 370 -217 378 -169 q 342 -307 363 -264 z "},"":{"ha":694,"x_min":122,"x_max":581,"o":"m 547 0 l 246 379 l 149 281 l 149 0 l 122 0 l 122 1021 l 149 1021 l 149 317 l 543 722 l 581 722 l 264 399 l 581 0 l 547 0 m 342 -307 l 319 -296 q 344 -226 336 -262 q 354 -153 351 -190 l 347 -153 q 335 -151 342 -153 q 324 -145 329 -150 q 318 -134 319 -140 q 317 -122 317 -128 q 318 -110 317 -115 q 324 -99 319 -104 q 335 -93 329 -94 q 347 -92 342 -92 q 359 -93 353 -92 q 370 -99 365 -94 q 376 -110 375 -104 q 378 -122 378 -115 q 370 -217 378 -169 q 342 -307 363 -264 z "},"":{"ha":694,"x_min":122,"x_max":581,"o":"m 547 0 l 246 379 l 149 281 l 149 0 l 122 0 l 122 722 l 149 722 l 149 317 l 543 722 l 581 722 l 264 399 l 581 0 l 547 0 z "},"":{"ha":694,"x_min":139,"x_max":603,"o":"m 150 0 l 150 1021 l 176 1021 l 176 25 l 603 25 l 603 0 l 150 0 m 160 1125 l 140 1139 l 274 1335 l 297 1318 l 160 1125 z "},"":{"ha":694,"x_min":104,"x_max":590,"o":"m 104 0 l 104 25 l 343 25 l 343 996 l 124 996 l 124 1021 l 371 1021 l 371 25 l 590 25 l 590 0 l 104 0 m 350 1125 l 331 1139 l 464 1335 l 488 1318 l 350 1125 z "},"":{"ha":694,"x_min":150,"x_max":603,"o":"m 150 0 l 150 1021 l 176 1021 l 176 25 l 603 25 l 603 0 l 150 0 m 342 -307 l 319 -296 q 344 -226 336 -262 q 354 -153 351 -190 l 347 -153 q 335 -151 342 -153 q 324 -145 329 -150 q 318 -134 319 -140 q 317 -122 317 -128 q 318 -110 317 -115 q 324 -99 319 -104 q 335 -93 329 -94 q 347 -92 342 -92 q 359 -93 353 -92 q 370 -99 365 -94 q 376 -110 375 -104 q 378 -122 378 -115 q 370 -217 378 -169 q 342 -307 363 -264 z "},"":{"ha":694,"x_min":104,"x_max":590,"o":"m 104 0 l 104 25 l 343 25 l 343 996 l 124 996 l 124 1021 l 371 1021 l 371 25 l 590 25 l 590 0 l 104 0 m 351 -307 l 329 -296 q 353 -226 346 -262 q 364 -153 361 -190 l 357 -153 q 345 -151 351 -153 q 334 -145 339 -150 q 328 -134 329 -140 q 326 -122 326 -128 q 328 -110 326 -115 q 334 -99 329 -104 q 345 -93 339 -94 q 357 -92 351 -92 q 369 -93 363 -92 q 380 -99 375 -94 q 386 -110 385 -104 q 388 -122 388 -115 q 380 -217 388 -169 q 351 -307 372 -264 z "},"":{"ha":694,"x_min":150,"x_max":603,"o":"m 528 824 l 506 833 q 530 903 522 867 q 540 978 538 940 q 536 977 538 978 q 533 976 535 976 q 522 978 528 976 q 510 985 515 981 q 504 995 506 989 q 503 1008 503 1001 q 504 1020 503 1014 q 510 1031 506 1026 q 522 1037 515 1035 q 533 1039 528 1039 q 545 1037 539 1039 q 556 1031 551 1035 q 563 1020 561 1026 q 564 1008 564 1014 q 556 914 564 961 q 528 824 549 867 m 150 0 l 150 1021 l 176 1021 l 176 25 l 603 25 l 603 0 l 150 0 z "},"":{"ha":694,"x_min":104,"x_max":590,"o":"m 482 824 l 460 833 q 484 903 476 867 q 494 978 492 940 q 490 977 492 978 q 488 976 489 976 q 476 978 482 976 q 465 985 469 981 q 458 995 460 989 q 457 1008 457 1001 q 458 1020 457 1014 q 465 1031 460 1026 q 476 1037 469 1035 q 488 1039 482 1039 q 499 1037 493 1039 q 510 1031 506 1035 q 517 1020 515 1026 q 518 1008 518 1014 q 510 914 518 961 q 482 824 503 867 m 104 0 l 104 25 l 343 25 l 343 996 l 124 996 l 124 1021 l 371 1021 l 371 25 l 590 25 l 590 0 l 104 0 z "},"":{"ha":694,"x_min":150,"x_max":603,"o":"m 150 0 l 150 1021 l 176 1021 l 176 25 l 603 25 l 603 0 l 150 0 m 428 476 q 408 479 418 476 q 392 488 399 482 q 383 504 386 494 q 381 524 381 514 q 383 543 381 533 q 392 559 386 553 q 408 569 399 565 q 428 572 418 572 q 447 569 438 572 q 463 559 457 565 q 473 543 469 553 q 476 524 476 533 q 473 504 476 514 q 463 488 469 494 q 447 479 457 482 q 428 476 438 476 z "},"":{"ha":694,"x_min":85,"x_max":607,"o":"m 86 0 l 86 25 l 325 25 l 325 996 l 106 996 l 106 1021 l 353 1021 l 353 25 l 572 25 l 572 0 l 86 0 m 558 476 q 539 479 549 476 q 523 488 529 482 q 514 504 517 494 q 511 524 511 514 q 514 543 511 533 q 523 559 517 553 q 539 569 529 565 q 558 572 549 572 q 578 569 568 572 q 594 559 588 565 q 603 543 600 553 q 607 524 607 533 q 603 504 607 514 q 594 488 600 494 q 578 479 588 482 q 558 476 568 476 z "},"":{"ha":694,"x_min":44,"x_max":603,"o":"m 150 0 l 150 461 l 56 415 l 44 436 l 150 490 l 150 1021 l 176 1021 l 176 503 l 433 631 l 444 610 l 176 475 l 176 25 l 603 25 l 603 0 l 150 0 z "},"":{"ha":694,"x_min":104,"x_max":590,"o":"m 104 0 l 104 25 l 343 25 l 343 510 l 168 422 l 157 444 l 343 538 l 343 996 l 124 996 l 124 1021 l 371 1021 l 371 551 l 546 639 l 557 617 l 371 524 l 371 25 l 590 25 l 590 0 l 104 0 z "},"":{"ha":694,"x_min":100,"x_max":594,"o":"m 100 0 l 100 1021 l 139 1021 l 568 38 l 568 1021 l 594 1021 l 594 0 l 556 0 l 126 983 l 126 0 l 100 0 m 343 1125 l 324 1139 l 457 1335 l 481 1318 l 343 1125 z "},"":{"ha":694,"x_min":100,"x_max":594,"o":"m 100 0 l 100 722 l 126 722 l 126 574 q 160 640 139 608 q 211 693 181 671 q 278 724 242 715 q 351 733 314 733 q 423 725 388 733 q 488 697 458 717 q 538 647 517 676 q 572 585 560 618 q 590 516 585 551 q 594 444 594 481 l 594 0 l 568 0 l 568 444 q 564 509 568 476 q 548 572 560 542 q 517 629 536 603 q 471 674 497 656 q 412 701 444 693 q 347 708 379 708 q 283 701 315 708 q 224 674 250 693 q 178 629 197 656 q 147 572 158 603 q 131 509 135 542 q 126 444 126 476 l 126 0 l 100 0 m 343 826 l 324 840 l 457 1036 l 481 1019 l 343 826 z "},"":{"ha":694,"x_min":100,"x_max":594,"o":"m 100 0 l 100 1021 l 139 1021 l 568 38 l 568 1021 l 594 1021 l 594 0 l 556 0 l 126 983 l 126 0 l 100 0 m 342 -307 l 319 -296 q 344 -226 336 -262 q 354 -153 351 -190 l 347 -153 q 335 -151 342 -153 q 324 -145 329 -150 q 318 -134 319 -140 q 317 -122 317 -128 q 318 -110 317 -115 q 324 -99 319 -104 q 335 -93 329 -94 q 347 -92 342 -92 q 359 -93 353 -92 q 370 -99 365 -94 q 376 -110 375 -104 q 378 -122 378 -115 q 370 -217 378 -169 q 342 -307 363 -264 z "},"":{"ha":694,"x_min":100,"x_max":594,"o":"m 100 0 l 100 722 l 126 722 l 126 574 q 160 640 139 608 q 211 693 181 671 q 278 724 242 715 q 351 733 314 733 q 423 725 388 733 q 488 697 458 717 q 538 647 517 676 q 572 585 560 618 q 590 516 585 551 q 594 444 594 481 l 594 0 l 568 0 l 568 444 q 564 509 568 476 q 548 572 560 542 q 517 629 536 603 q 471 674 497 656 q 412 701 444 693 q 347 708 379 708 q 283 701 315 708 q 224 674 250 693 q 178 629 197 656 q 147 572 158 603 q 131 509 135 542 q 126 444 126 476 l 126 0 l 100 0 m 342 -307 l 319 -296 q 344 -226 336 -262 q 354 -153 351 -190 l 347 -153 q 335 -151 342 -153 q 324 -145 329 -150 q 318 -134 319 -140 q 317 -122 317 -128 q 318 -110 317 -115 q 324 -99 319 -104 q 335 -93 329 -94 q 347 -92 342 -92 q 359 -93 353 -92 q 370 -99 365 -94 q 376 -110 375 -104 q 378 -122 378 -115 q 370 -217 378 -169 q 342 -307 363 -264 z "},"":{"ha":694,"x_min":100,"x_max":594,"o":"m 100 0 l 100 1021 l 139 1021 l 568 38 l 568 1021 l 594 1021 l 594 0 l 556 0 l 126 983 l 126 0 l 100 0 m 329 1132 l 190 1325 l 213 1339 l 347 1157 l 482 1339 l 504 1325 l 365 1132 l 329 1132 z "},"":{"ha":694,"x_min":100,"x_max":594,"o":"m 100 0 l 100 722 l 126 722 l 126 574 q 160 640 139 608 q 211 693 181 671 q 278 724 242 715 q 351 733 314 733 q 423 725 388 733 q 488 697 458 717 q 538 647 517 676 q 572 585 560 618 q 590 516 585 551 q 594 444 594 481 l 594 0 l 568 0 l 568 444 q 564 509 568 476 q 548 572 560 542 q 517 629 536 603 q 471 674 497 656 q 412 701 444 693 q 347 708 379 708 q 283 701 315 708 q 224 674 250 693 q 178 629 197 656 q 147 572 158 603 q 131 509 135 542 q 126 444 126 476 l 126 0 l 100 0 m 329 833 l 190 1026 l 213 1040 l 347 858 l 482 1040 l 504 1026 l 365 833 l 329 833 z "},"":{"ha":694,"x_min":69,"x_max":594,"o":"m 100 0 l 100 722 l 126 722 l 126 574 q 160 640 139 608 q 211 693 181 671 q 278 724 242 715 q 351 733 314 733 q 423 725 388 733 q 488 697 458 717 q 538 647 517 676 q 572 585 560 618 q 590 516 585 551 q 594 444 594 481 l 594 0 l 568 0 l 568 444 q 564 509 568 476 q 548 572 560 542 q 517 629 536 603 q 471 674 497 656 q 412 701 444 693 q 347 708 379 708 q 283 701 315 708 q 224 674 250 693 q 178 629 197 656 q 147 572 158 603 q 131 509 135 542 q 126 444 126 476 l 126 0 l 100 0 m 94 824 l 72 833 q 97 903 89 867 q 107 978 104 940 q 103 977 104 978 q 100 976 101 976 q 88 978 94 976 q 77 985 82 981 q 71 995 72 989 q 69 1008 69 1001 q 71 1020 69 1014 q 77 1031 72 1026 q 88 1037 82 1035 q 100 1039 94 1039 q 112 1037 106 1039 q 123 1031 118 1035 q 129 1020 128 1026 q 131 1008 131 1014 q 123 914 131 961 q 94 824 115 867 z "},"":{"ha":694,"x_min":100,"x_max":594,"o":"m 100 0 l 100 1021 l 139 1021 l 568 38 l 568 1021 l 594 1021 l 594 0 l 556 0 l 126 983 l 126 0 l 100 0 m 344 -299 l 344 -274 l 372 -274 q 425 -269 399 -274 q 474 -252 451 -264 q 516 -222 497 -240 q 547 -179 535 -203 q 563 -130 558 -156 q 568 -78 568 -104 l 568 0 l 594 0 l 594 -78 q 589 -137 594 -107 q 570 -193 583 -167 q 536 -240 557 -219 q 488 -275 515 -261 q 432 -294 461 -289 q 372 -299 403 -299 l 344 -299 z "},"":{"ha":694,"x_min":100,"x_max":594,"o":"m 344 -299 l 344 -274 l 372 -274 q 425 -269 399 -274 q 474 -252 451 -264 q 516 -222 497 -240 q 547 -179 535 -203 q 563 -130 558 -156 q 568 -78 568 -104 l 568 444 q 564 509 568 476 q 548 572 560 542 q 517 629 536 603 q 471 674 497 656 q 412 701 444 693 q 347 708 379 708 q 283 701 315 708 q 224 674 250 693 q 178 629 197 656 q 147 572 158 603 q 131 509 135 542 q 126 444 126 476 l 126 0 l 100 0 l 100 722 l 126 722 l 126 574 q 160 640 139 608 q 211 693 181 671 q 278 724 242 715 q 351 733 314 733 q 423 725 388 733 q 488 697 458 717 q 538 647 517 676 q 572 585 560 618 q 590 516 585 551 q 594 444 594 481 l 594 -78 q 589 -137 594 -107 q 570 -193 583 -167 q 536 -240 557 -219 q 488 -275 515 -261 q 432 -294 461 -289 q 372 -299 403 -299 l 344 -299 z "},"":{"ha":694,"x_min":89,"x_max":606,"o":"m 347 -11 q 275 -3 311 -11 q 208 22 239 4 q 153 68 176 40 q 115 129 129 96 q 94 199 100 163 q 89 271 89 235 l 89 750 q 94 822 89 786 q 115 892 100 858 q 153 953 129 925 q 208 999 176 981 q 275 1024 239 1017 q 347 1032 311 1032 q 419 1024 383 1032 q 487 999 456 1017 q 542 953 518 981 q 580 892 565 925 q 600 822 594 858 q 606 750 606 786 l 606 271 q 600 199 606 235 q 580 129 594 163 q 542 68 565 96 q 487 22 518 40 q 419 -3 456 4 q 347 -11 383 -11 m 347 14 q 413 21 381 14 q 473 44 444 28 q 522 87 501 61 q 556 142 543 113 q 574 205 569 172 q 579 271 579 238 l 579 750 q 574 816 579 783 q 556 878 569 849 q 522 934 543 908 q 473 976 501 960 q 413 1000 444 993 q 347 1007 381 1007 q 282 1000 314 1007 q 222 976 250 993 q 172 934 193 960 q 138 878 151 908 q 120 816 125 849 q 115 750 115 783 l 115 271 q 120 205 115 238 q 138 142 125 172 q 172 87 151 113 q 222 44 193 61 q 282 21 250 28 q 347 14 314 14 m 556 1217 l 139 1217 l 139 1242 l 556 1242 l 556 1217 z "},"":{"ha":694,"x_min":89,"x_max":606,"o":"m 347 -11 q 274 -3 311 -11 q 206 24 238 4 q 151 72 175 43 q 114 134 128 100 q 94 205 100 168 q 89 278 89 242 l 89 444 q 94 517 89 481 q 114 588 100 554 q 151 651 128 622 q 206 699 175 679 q 274 726 238 718 q 347 733 311 733 q 420 726 383 733 q 488 699 457 718 q 543 651 519 679 q 581 588 567 622 q 600 517 594 554 q 606 444 606 481 l 606 278 q 600 205 606 242 q 581 134 594 168 q 543 72 567 100 q 488 24 519 43 q 420 -3 457 4 q 347 -11 383 -11 m 347 14 q 413 21 381 14 q 474 46 446 28 q 524 90 503 64 q 557 147 544 117 q 574 211 569 178 q 579 278 579 244 l 579 444 q 574 511 579 478 q 557 575 569 544 q 524 632 544 606 q 474 676 503 658 q 413 701 446 694 q 347 708 381 708 q 281 701 314 708 q 220 676 249 694 q 171 632 192 658 q 138 575 150 606 q 120 511 125 544 q 115 444 115 478 l 115 278 q 120 211 115 244 q 138 147 125 178 q 171 90 150 117 q 220 46 192 64 q 281 21 249 28 q 347 14 314 14 m 556 918 l 139 918 l 139 943 l 556 943 l 556 918 z "},"":{"ha":694,"x_min":89,"x_max":606,"o":"m 347 -11 q 275 -3 311 -11 q 208 22 239 4 q 153 68 176 40 q 115 129 129 96 q 94 199 100 163 q 89 271 89 235 l 89 750 q 94 822 89 786 q 115 892 100 858 q 153 953 129 925 q 208 999 176 981 q 275 1024 239 1017 q 347 1032 311 1032 q 419 1024 383 1032 q 487 999 456 1017 q 542 953 518 981 q 580 892 565 925 q 600 822 594 858 q 606 750 606 786 l 606 271 q 600 199 606 235 q 580 129 594 163 q 542 68 565 96 q 487 22 518 40 q 419 -3 456 4 q 347 -11 383 -11 m 347 14 q 413 21 381 14 q 473 44 444 28 q 522 87 501 61 q 556 142 543 113 q 574 205 569 172 q 579 271 579 238 l 579 750 q 574 816 579 783 q 556 878 569 849 q 522 934 543 908 q 473 976 501 960 q 413 1000 444 993 q 347 1007 381 1007 q 282 1000 314 1007 q 222 976 250 993 q 172 934 193 960 q 138 878 151 908 q 120 816 125 849 q 115 750 115 783 l 115 271 q 120 205 115 238 q 138 142 125 172 q 172 87 151 113 q 222 44 193 61 q 282 21 250 28 q 347 14 314 14 m 347 1132 q 273 1145 310 1132 q 212 1186 236 1158 q 177 1251 188 1214 q 167 1326 167 1289 l 194 1326 q 202 1262 194 1294 q 231 1205 210 1229 q 284 1169 253 1181 q 347 1157 315 1157 q 410 1169 379 1157 q 463 1205 442 1181 q 492 1262 485 1229 q 500 1326 500 1294 l 528 1326 q 517 1251 528 1289 q 483 1186 507 1214 q 422 1145 458 1158 q 347 1132 385 1132 z "},"":{"ha":694,"x_min":89,"x_max":606,"o":"m 347 -11 q 274 -3 311 -11 q 206 24 238 4 q 151 72 175 43 q 114 134 128 100 q 94 205 100 168 q 89 278 89 242 l 89 444 q 94 517 89 481 q 114 588 100 554 q 151 651 128 622 q 206 699 175 679 q 274 726 238 718 q 347 733 311 733 q 420 726 383 733 q 488 699 457 718 q 543 651 519 679 q 581 588 567 622 q 600 517 594 554 q 606 444 606 481 l 606 278 q 600 205 606 242 q 581 134 594 168 q 543 72 567 100 q 488 24 519 43 q 420 -3 457 4 q 347 -11 383 -11 m 347 14 q 413 21 381 14 q 474 46 446 28 q 524 90 503 64 q 557 147 544 117 q 574 211 569 178 q 579 278 579 244 l 579 444 q 574 511 579 478 q 557 575 569 544 q 524 632 544 606 q 474 676 503 658 q 413 701 446 694 q 347 708 381 708 q 281 701 314 708 q 220 676 249 694 q 171 632 192 658 q 138 575 150 606 q 120 511 125 544 q 115 444 115 478 l 115 278 q 120 211 115 244 q 138 147 125 178 q 171 90 150 117 q 220 46 192 64 q 281 21 249 28 q 347 14 314 14 m 347 833 q 273 847 310 833 q 212 888 236 860 q 177 953 188 915 q 167 1028 167 990 l 194 1028 q 202 963 194 996 q 231 906 210 931 q 284 870 253 882 q 347 858 315 858 q 410 870 379 858 q 463 906 442 882 q 492 963 485 931 q 500 1028 500 996 l 528 1028 q 517 953 528 990 q 483 888 507 915 q 422 847 458 860 q 347 833 385 833 z "},"":{"ha":694,"x_min":89,"x_max":615,"o":"m 347 -11 q 275 -3 311 -11 q 208 22 239 4 q 153 68 176 40 q 115 129 129 96 q 94 199 100 163 q 89 271 89 235 l 89 750 q 94 822 89 786 q 115 892 100 858 q 153 953 129 925 q 208 999 176 981 q 275 1024 239 1017 q 347 1032 311 1032 q 419 1024 383 1032 q 487 999 456 1017 q 542 953 518 981 q 580 892 565 925 q 600 822 594 858 q 606 750 606 786 l 606 271 q 600 199 606 235 q 580 129 594 163 q 542 68 565 96 q 487 22 518 40 q 419 -3 456 4 q 347 -11 383 -11 m 347 14 q 413 21 381 14 q 473 44 444 28 q 522 87 501 61 q 556 142 543 113 q 574 205 569 172 q 579 271 579 238 l 579 750 q 574 816 579 783 q 556 878 569 849 q 522 934 543 908 q 473 976 501 960 q 413 1000 444 993 q 347 1007 381 1007 q 282 1000 314 1007 q 222 976 250 993 q 172 934 193 960 q 138 878 151 908 q 120 816 125 849 q 115 750 115 783 l 115 271 q 120 205 115 238 q 138 142 125 172 q 172 87 151 113 q 222 44 193 61 q 282 21 250 28 q 347 14 314 14 m 461 1125 l 442 1139 l 593 1335 l 615 1318 l 461 1125 m 225 1125 l 206 1139 l 357 1335 l 379 1318 l 225 1125 z "},"":{"ha":694,"x_min":89,"x_max":615,"o":"m 347 -11 q 274 -3 311 -11 q 206 24 238 4 q 151 72 175 43 q 114 134 128 100 q 94 205 100 168 q 89 278 89 242 l 89 444 q 94 517 89 481 q 114 588 100 554 q 151 651 128 622 q 206 699 175 679 q 274 726 238 718 q 347 733 311 733 q 420 726 383 733 q 488 699 457 718 q 543 651 519 679 q 581 588 567 622 q 600 517 594 554 q 606 444 606 481 l 606 278 q 600 205 606 242 q 581 134 594 168 q 543 72 567 100 q 488 24 519 43 q 420 -3 457 4 q 347 -11 383 -11 m 347 14 q 413 21 381 14 q 474 46 446 28 q 524 90 503 64 q 557 147 544 117 q 574 211 569 178 q 579 278 579 244 l 579 444 q 574 511 579 478 q 557 575 569 544 q 524 632 544 606 q 474 676 503 658 q 413 701 446 694 q 347 708 381 708 q 281 701 314 708 q 220 676 249 694 q 171 632 192 658 q 138 575 150 606 q 120 511 125 544 q 115 444 115 478 l 115 278 q 120 211 115 244 q 138 147 125 178 q 171 90 150 117 q 220 46 192 64 q 281 21 249 28 q 347 14 314 14 m 461 826 l 442 840 l 593 1036 l 615 1019 l 461 826 m 225 826 l 206 840 l 357 1036 l 379 1019 l 225 826 z "},"":{"ha":694,"x_min":89,"x_max":594,"o":"m 340 0 l 340 1021 l 594 1021 l 594 996 l 368 996 l 368 543 l 589 543 l 589 518 l 368 518 l 368 25 l 594 25 l 594 0 l 340 0 m 340 0 q 271 7 306 0 q 206 31 236 14 q 151 75 175 49 q 114 134 128 101 q 94 201 100 167 q 89 271 89 236 l 89 750 q 94 819 89 785 q 114 887 100 854 q 151 946 128 919 q 206 990 175 972 q 271 1014 236 1007 q 340 1021 306 1021 l 340 996 q 277 990 308 996 q 219 967 246 983 q 171 927 192 951 q 138 874 150 903 q 120 813 125 844 q 115 750 115 782 l 115 271 q 120 208 115 239 q 138 147 125 176 q 171 94 150 118 q 219 53 192 69 q 277 31 246 38 q 340 25 308 25 l 340 0 z "},"":{"ha":694,"x_min":89,"x_max":606,"o":"m 225 -11 q 181 -3 203 -11 q 143 19 160 4 q 116 54 126 35 q 99 95 106 74 q 91 140 93 117 q 89 185 89 163 l 89 538 q 91 583 89 560 q 99 627 93 606 q 116 668 106 649 q 143 703 126 688 q 181 726 160 718 q 225 733 203 733 q 266 727 246 733 q 303 707 286 721 q 330 675 319 693 q 347 636 340 657 q 365 675 354 657 q 392 707 375 693 q 428 727 408 721 q 469 733 449 733 q 513 726 492 733 q 551 703 535 718 q 578 668 568 688 q 595 627 589 649 q 603 583 601 606 q 606 538 606 560 l 606 349 l 361 349 l 361 185 q 363 147 361 165 q 368 110 364 128 q 381 74 372 92 q 401 42 389 57 q 432 21 414 28 q 468 14 450 14 q 503 20 486 14 q 533 40 521 26 q 554 69 546 53 q 567 102 563 85 q 574 138 572 119 q 576 174 576 156 l 576 181 l 603 181 l 603 172 q 600 130 603 151 q 591 88 597 108 q 574 49 585 68 q 547 17 563 31 q 510 -4 531 3 q 468 -11 489 -11 q 427 -5 447 -11 q 391 15 407 1 q 365 47 375 29 q 347 86 354 65 q 329 47 340 65 q 302 15 318 29 q 266 -5 286 1 q 225 -11 246 -11 m 579 374 l 579 538 q 577 576 579 557 q 571 613 575 594 q 558 649 567 632 q 538 681 550 667 q 507 701 525 694 q 469 708 489 708 q 433 701 451 708 q 402 681 415 694 q 381 649 389 667 q 369 613 374 632 q 363 576 364 594 q 361 538 361 557 l 361 374 l 579 374 m 225 14 q 261 21 243 14 q 292 42 279 28 q 313 73 306 56 q 326 109 321 90 q 332 147 331 128 q 333 185 333 165 l 333 538 q 332 576 333 557 q 326 613 331 594 q 313 649 321 632 q 292 681 306 667 q 261 701 279 694 q 225 708 243 708 q 188 701 206 708 q 157 681 169 694 q 136 649 144 667 q 124 613 128 632 q 117 576 119 594 q 115 538 115 557 l 115 185 q 117 147 115 165 q 124 109 119 128 q 136 73 128 90 q 157 42 144 56 q 188 21 169 28 q 225 14 206 14 z "},"":{"ha":694,"x_min":100,"x_max":628,"o":"m 100 0 l 100 1021 l 360 1021 q 429 1013 394 1021 q 494 988 464 1006 q 546 942 524 969 q 582 882 568 914 q 601 815 596 850 q 606 744 606 781 q 601 677 606 711 q 583 611 596 643 q 550 552 571 579 q 500 506 529 525 q 438 478 471 488 q 371 469 406 469 l 628 0 l 597 0 l 340 469 l 126 469 l 126 0 l 100 0 m 360 494 q 422 501 390 494 q 480 525 453 508 q 526 567 507 542 q 558 621 546 592 q 574 682 569 650 q 579 744 579 714 q 574 808 579 776 q 558 869 569 839 q 526 924 546 899 q 480 965 507 949 q 422 989 453 982 q 360 996 390 996 l 126 996 l 126 494 l 360 494 m 343 1125 l 324 1139 l 457 1335 l 481 1318 l 343 1125 z "}}}
